<svg width="159" height="135" viewBox="0 0 159 135" fill="none" xmlns="http://www.w3.org/2000/svg">
<path d="M144.36 0H0V7.26172H144.36V0Z" fill="#1C2B4F"/>
<path d="M6.85999 7.26172H0V95.105H6.85999V7.26172Z" fill="#1C2B4F"/>
<path d="M144.36 6.48364H137.5V94.3269H144.36V6.48364Z" fill="#1C2B4F"/>
<path d="M137.5 6.48364H7.06982V94.3269H137.5V6.48364Z" fill="#D5EEF5"/>
<path d="M45.2901 33.7258H37.5801V94.3269H45.2901V33.7258Z" fill="#1C2B4F"/>
<path d="M16.1802 33.7258H8.47021V94.3269H16.1802V33.7258Z" fill="#1C2B4F"/>
<path d="M137.51 25.6863H8.47021V33.7258H137.51V25.6863Z" fill="#1C2B4F"/>
<path d="M67.0002 35.2173H46.4702V54.9277H67.0002V35.2173Z" fill="#A8DEEA"/>
<path d="M67.0002 56.7432H46.4702V76.4534H67.0002V56.7432Z" fill="#A8DEEA"/>
<path d="M67.0002 79.501H46.4702V94.3269H67.0002V79.501Z" fill="#A8DEEA"/>
<path d="M89.3201 79.501H68.79V94.3269H89.3201V79.501Z" fill="#A8DEEA"/>
<path d="M111.1 79.501H90.5698V94.3269H111.1V79.501Z" fill="#A8DEEA"/>
<path d="M133.6 79.501H113.07V94.3269H133.6V79.501Z" fill="#A8DEEA"/>
<path d="M89.3201 35.2173H68.79V54.9277H89.3201V35.2173Z" fill="#A8DEEA"/>
<path d="M89.3201 56.7432H68.79V76.4534H89.3201V56.7432Z" fill="#A8DEEA"/>
<path d="M111.1 35.2173H90.5698V54.9277H111.1V35.2173Z" fill="#A8DEEA"/>
<path d="M111.1 56.7432H90.5698V76.4534H111.1V56.7432Z" fill="#A8DEEA"/>
<path d="M133.6 35.2173H113.07V54.9277H133.6V35.2173Z" fill="#A8DEEA"/>
<path d="M133.6 56.7432H113.07V76.4534H133.6V56.7432Z" fill="#A8DEEA"/>
<path d="M29.6198 103.739H52.9997L54.7997 102.864C54.7997 102.864 51.9997 88.7509 52.4797 89.0427C52.9597 89.3345 42.2498 85.2498 42.2498 85.2498L29.8898 90.7717L28.2598 101.686L29.6198 103.739Z" fill="#070507"/>
<path d="M121 103.739L144.35 101.448L146.15 100.573C146.15 100.573 143.36 86.5249 143.81 86.7627C144.26 87.0004 133.58 82.9697 133.58 82.9697L121.22 88.5241L119.61 99.4166L121 103.739Z" fill="#070507"/>
<path d="M29.6199 103.739L16.6199 103.22L12.6199 96.0882C12.2995 95.5438 12.1661 94.8952 12.2428 94.2554C12.3196 93.6156 12.6017 93.0252 13.0399 92.587L16.9999 87.0651C17.4519 85.927 18.1938 84.951 19.1391 84.2508C20.0845 83.5506 21.1945 83.155 22.3399 83.11C24.1599 81.608 26.9499 80.9488 30.6799 81.1001L50.6799 78.3445C63.3199 70.175 75.5899 63.9183 86.9999 62.0056C110.36 58.1802 131.56 66.328 152.58 75.4593C153.41 76.0428 153.41 77.0045 152.46 78.4093C154.74 80.9596 155.05 83.0128 154.41 84.8282L153.88 87.5298C154.102 88.3496 154.606 89.046 155.29 89.4749C156.47 89.8747 156.6 91.0742 156.29 92.6195L155.78 97.6119L146.12 100.692L145.31 96.3692L144.92 94.2944C144.08 89.4316 134.46 83.8449 125.71 89.0102C122.34 91.5821 121 96.7042 121 103.739H52.9999C56.7099 78.485 25.9999 83.8881 29.6199 103.739Z" fill="#5193CF"/>
<path d="M23.0499 90.5988L14.3599 90.7717L16.8099 87.2489L23.5899 85.3687C26.4999 85.1742 29.4599 84.958 27.7599 86.5357L23.0499 90.5988Z" fill="white"/>
<path opacity="0.17" d="M45.2798 78.9822C53.6198 74.1302 63.4398 69.9158 73.7398 65.9175L50.6798 78.3446L45.2798 78.9822Z" fill="#F15E5B"/>
<path d="M58.48 76.1725C62.27 75.8916 64.32 76.3995 63.48 78.2473L129.23 76.983L133.91 71.2017C118.98 64.7181 98.91 61.4114 83.76 64.891C74.8616 67.274 66.3414 71.0762 58.48 76.1725Z" fill="#1C2B4F"/>
<path d="M152.5 78.4094H149.5L147.16 80.9381L150.27 84.8391H154.47C155 83.4883 155.33 81.9971 152.5 78.4094Z" fill="#1C2B4F"/>
<path d="M133.89 112.146C140.053 112.146 145.05 106.747 145.05 100.087C145.05 93.4262 140.053 88.0269 133.89 88.0269C127.726 88.0269 122.73 93.4262 122.73 100.087C122.73 106.747 127.726 112.146 133.89 112.146Z" fill="#1C2B4F"/>
<path d="M42.2498 111.53C48.4133 111.53 53.4099 106.131 53.4099 99.4706C53.4099 92.8102 48.4133 87.4109 42.2498 87.4109C36.0863 87.4109 31.0898 92.8102 31.0898 99.4706C31.0898 106.131 36.0863 111.53 42.2498 111.53Z" fill="#1C2B4F"/>
<path d="M42.25 107.348C46.2761 107.348 49.54 103.821 49.54 99.4706C49.54 95.1198 46.2761 91.5928 42.25 91.5928C38.2238 91.5928 34.96 95.1198 34.96 99.4706C34.96 103.821 38.2238 107.348 42.25 107.348Z" fill="#E4E9F6"/>
<path d="M133.89 107.964C137.916 107.964 141.18 104.437 141.18 100.087C141.18 95.7359 137.916 92.209 133.89 92.209C129.864 92.209 126.6 95.7359 126.6 100.087C126.6 104.437 129.864 107.964 133.89 107.964Z" fill="#E4E9F6"/>
<path d="M31.6698 125.654H55.0698L56.8698 124.779C56.8698 124.779 54.0798 110.73 54.5298 110.968C54.9798 111.206 44.2998 107.164 44.2998 107.164L31.9398 112.719L30.2998 123.612L31.6698 125.654Z" fill="#070507"/>
<path d="M123.06 125.654L146.42 123.363L148.22 122.488C148.22 122.488 145.43 108.44 145.88 108.678C146.33 108.915 135.65 104.885 135.65 104.885L123.29 110.439L121.65 121.321L123.06 125.654Z" fill="#070507"/>
<path d="M31.6701 125.654L18.6701 125.135L14.6701 118.003C14.0701 116.598 14.1401 115.41 15.0901 114.502L18.9301 108.991C19.377 107.849 20.1176 106.869 21.0641 106.168C22.0105 105.467 23.1232 105.074 24.2701 105.036C26.0801 103.523 28.8801 102.875 32.6101 103.026L52.6101 100.27C65.2401 92.09 77.51 85.8332 88.97 83.9314C112.32 80.106 133.52 88.2538 154.55 97.3851C155.37 97.9578 155.37 98.9303 154.43 100.335C156.7 102.885 157.01 104.939 156.38 106.754L155.81 109.477C156.024 110.301 156.531 111 157.22 111.422C158.39 111.822 158.53 113.011 158.22 114.567L157.71 119.559L148.05 122.639L147.24 118.317L146.85 116.253C146 111.379 136.39 105.803 127.63 110.968C124.28 113.508 122.88 118.619 122.95 125.654H54.9501C58.7501 100.4 28.0001 105.814 31.6701 125.654Z" fill="#F15E5B"/>
<path d="M25.0999 112.524L16.3999 112.719L18.8499 109.207L25.6399 107.305C28.5399 107.11 31.4999 106.894 29.8099 108.472L25.0999 112.524Z" fill="white"/>
<path opacity="0.17" d="M47.3301 100.908C55.6601 96.0559 65.4801 91.8523 75.7801 87.8215L52.7301 100.27L47.3301 100.908Z" fill="#F15E5B"/>
<path d="M60.5298 98.0983C64.3098 97.8065 66.3598 98.3144 65.5298 100.173L131.27 98.9088L135.95 93.1166C121.03 86.6329 100.95 83.391 85.8098 86.8166C76.9073 89.1862 68.3853 92.9893 60.5298 98.0983Z" fill="#1C2B4F"/>
<path d="M154.55 100.335H151.55L149.21 102.864L152.32 106.776H156.53C157.05 105.403 157.38 103.912 154.55 100.335Z" fill="#1C2B4F"/>
<path d="M135.93 134.061C142.094 134.061 147.09 128.662 147.09 122.001C147.09 115.341 142.094 109.942 135.93 109.942C129.767 109.942 124.77 115.341 124.77 122.001C124.77 128.662 129.767 134.061 135.93 134.061Z" fill="#1C2B4F"/>
<path d="M44.3001 133.456C50.4636 133.456 55.4601 128.057 55.4601 121.396C55.4601 114.736 50.4636 109.337 44.3001 109.337C38.1366 109.337 33.1401 114.736 33.1401 121.396C33.1401 128.057 38.1366 133.456 44.3001 133.456Z" fill="#1C2B4F"/>
<path d="M44.2998 129.274C48.3259 129.274 51.5898 125.747 51.5898 121.396C51.5898 117.046 48.3259 113.519 44.2998 113.519C40.2736 113.519 37.0098 117.046 37.0098 121.396C37.0098 125.747 40.2736 129.274 44.2998 129.274Z" fill="#E4E9F6"/>
<path d="M135.93 129.879C139.956 129.879 143.22 126.352 143.22 122.002C143.22 117.651 139.956 114.124 135.93 114.124C131.904 114.124 128.64 117.651 128.64 122.002C128.64 126.352 131.904 129.879 135.93 129.879Z" fill="#E4E9F6"/>
<path d="M44.2656 15.3169C44.1602 16.2192 43.8262 16.9165 43.2637 17.4087C42.7051 17.897 41.9609 18.1411 41.0312 18.1411C40.0234 18.1411 39.2148 17.7798 38.6055 17.0571C38 16.3345 37.6973 15.3677 37.6973 14.1567V13.3364C37.6973 12.5435 37.8379 11.8462 38.1191 11.2446C38.4043 10.6431 38.8066 10.1821 39.3262 9.86182C39.8457 9.5376 40.4473 9.37549 41.1309 9.37549C42.0371 9.37549 42.7637 9.62939 43.3105 10.1372C43.8574 10.6411 44.1758 11.3403 44.2656 12.2349H43.1348C43.0371 11.5552 42.8242 11.063 42.4961 10.7583C42.1719 10.4536 41.7168 10.3013 41.1309 10.3013C40.4121 10.3013 39.8477 10.5669 39.4375 11.0981C39.0312 11.6294 38.8281 12.3853 38.8281 13.3657V14.1919C38.8281 15.1177 39.0215 15.854 39.4082 16.4009C39.7949 16.9478 40.3359 17.2212 41.0312 17.2212C41.6562 17.2212 42.1348 17.0806 42.4668 16.7993C42.8027 16.5142 43.0254 16.02 43.1348 15.3169H44.2656ZM50.5176 15.7974H46.9434L46.1406 18.0239H44.9805L48.2383 9.49268H49.2227L52.4863 18.0239H51.332L50.5176 15.7974ZM47.2832 14.8716H50.1836L48.7305 10.8813L47.2832 14.8716ZM56.7637 14.5728H54.7598V18.0239H53.6289V9.49268H56.4531C57.4141 9.49268 58.1523 9.71143 58.668 10.1489C59.1875 10.5864 59.4473 11.2231 59.4473 12.0591C59.4473 12.5903 59.3027 13.0532 59.0137 13.4478C58.7285 13.8423 58.3301 14.1372 57.8184 14.3325L59.8223 17.9536V18.0239H58.6152L56.7637 14.5728ZM54.7598 13.6528H56.4883C57.0469 13.6528 57.4902 13.5083 57.8184 13.2192C58.1504 12.9302 58.3164 12.5435 58.3164 12.0591C58.3164 11.5317 58.1582 11.1274 57.8418 10.8462C57.5293 10.5649 57.0762 10.4224 56.4824 10.4185H54.7598V13.6528ZM67.1348 14.5728H65.1309V18.0239H64V9.49268H66.8242C67.7852 9.49268 68.5234 9.71143 69.0391 10.1489C69.5586 10.5864 69.8184 11.2231 69.8184 12.0591C69.8184 12.5903 69.6738 13.0532 69.3848 13.4478C69.0996 13.8423 68.7012 14.1372 68.1895 14.3325L70.1934 17.9536V18.0239H68.9863L67.1348 14.5728ZM65.1309 13.6528H66.8594C67.418 13.6528 67.8613 13.5083 68.1895 13.2192C68.5215 12.9302 68.6875 12.5435 68.6875 12.0591C68.6875 11.5317 68.5293 11.1274 68.2129 10.8462C67.9004 10.5649 67.4473 10.4224 66.8535 10.4185H65.1309V13.6528ZM76.2227 14.0806H72.5254V17.104H76.8203V18.0239H71.4004V9.49268H76.7617V10.4185H72.5254V13.1606H76.2227V14.0806ZM84.7773 18.0239H83.6465L79.3516 11.4497V18.0239H78.2207V9.49268H79.3516L83.6582 16.0962V9.49268H84.7773V18.0239ZM92.4941 10.4185H89.752V18.0239H88.6328V10.4185H85.8965V9.49268H92.4941V10.4185ZM98.002 15.7974H94.4277L93.625 18.0239H92.4648L95.7227 9.49268H96.707L99.9707 18.0239H98.8164L98.002 15.7974ZM94.7676 14.8716H97.668L96.2148 10.8813L94.7676 14.8716ZM102.25 17.104H106.293V18.0239H101.119V9.49268H102.25V17.104Z" fill="#1C2B4F"/>
</svg>
