<svg width="145" height="213" viewBox="0 0 145 213" fill="none" xmlns="http://www.w3.org/2000/svg">
<path d="M28.0502 65.5609V45.6021H8.97021V64.945V65.7878H28.0502V65.5609Z" fill="#CEB496"/>
<path d="M28.0502 44.1327V31.7271H8.97021V43.7545V44.2732H28.0502V44.1327Z" fill="#CEB496"/>
<path d="M48.8398 65.6476V53.2312H29.7598V65.2694V65.7881H48.8398V65.6476Z" fill="#CEB496"/>
<path d="M48.8398 51.5565V23.9463H29.7598V50.7136V51.8699H48.8398V51.5565Z" fill="#CEB496"/>
<path d="M73.27 50.5836L77.41 59.9202L87.22 55.2519L82.09 45.8181L73.27 50.5836Z" fill="#CEB496"/>
<path d="M76.69 63.2268L88.57 57.0025L87.95 56.1272L77.09 61.768L69.4 44.5107L68.23 44.943L76.69 63.2268Z" fill="black"/>
<path d="M72.1899 65.2371C73.8799 65.2371 75.2499 63.7566 75.2499 61.9303C75.2499 60.104 73.8799 58.6235 72.1899 58.6235C70.4999 58.6235 69.1299 60.104 69.1299 61.9303C69.1299 63.7566 70.4999 65.2371 72.1899 65.2371Z" fill="black"/>
<path d="M60.43 36.0925C62.7317 37.3533 64.6611 39.2848 66 41.6686C67.3691 41.9784 68.6181 42.7324 69.58 43.8298L69.12 45.1914L65.88 44.4674C64.3214 43.5779 63.015 42.2484 62.1 40.6204V48.952L56.64 49.3411V39.2696C56.5623 38.6146 56.6843 37.9502 56.9874 37.3769C57.2906 36.8036 57.7584 36.3527 58.32 36.0925H60.43Z" fill="#1C2B4F"/>
<path d="M56.6499 49.3844L62.1099 48.9954L65.4799 62.6759L62.3799 63.3999L61.1499 59.4989C60.2599 56.6461 59.1499 53.2638 59.1499 53.0909C59.1499 52.918 57.1099 50.6271 56.6499 49.3844Z" fill="#1C2B4F"/>
<path d="M56.0798 63.9617L61.1498 59.5204L60.0398 55.9868L54.5898 61.5303L55.8498 63.9617" fill="#1C2B4F"/>
<path d="M58.3301 36.0925H60.4301L60.1901 34.5797C60.8301 34.5797 61.0801 34.396 61.2401 34.0935C61.6417 32.7626 61.6936 31.3374 61.3901 29.9766H59.2601L58.8401 32.1377L58.4801 34.2988L58.3301 36.0925Z" fill="#CEB496"/>
<path d="M61.2399 30.3545C61.1799 29.0578 59.9999 28.6256 57.6999 29.0578C57.1352 30.6548 57.1352 32.4207 57.6999 34.0177L58.8999 34.2446L58.7799 31.9754L59.3799 30.8948L59.9599 31.0569L61.2399 30.3545Z" fill="black"/>
<path d="M54.5898 61.5305L53.5898 62.4814L55.2698 65.3126C56.1198 66.1014 56.7198 65.6151 56.6398 65.4098L54.5898 61.5305Z" fill="black"/>
<path d="M62.5298 63.4216L62.8298 64.4268L66.8298 63.6377C67.3398 63.1405 67.3698 62.7406 66.3198 62.5569L65.4298 62.7406L62.5298 63.4216Z" fill="black"/>
<path d="M13.2998 119.43H93.6998V186.677H14.2598L13.2998 119.43Z" fill="#1C2B4F"/>
<path d="M21.8198 126.767H85.1798V171.213L22.5798 171.894L21.8198 126.767Z" fill="#E4D6CD"/>
<path d="M81.4897 168.728H25.5098V155.112H43.2398L43.1498 161.92H47.2898V155.112H71.3197V161.92H74.7397L74.8298 155.112H81.4897V168.728Z" fill="#CEB496"/>
<path d="M55.9199 154.906H58.7999L58.8999 168.933H55.9199V154.906Z" fill="#B1987A"/>
<path d="M93.6998 187.714V186.677H14.2598V187.779L93.6998 187.714Z" fill="#D5EEF5"/>
<path d="M66.81 153.642V140.901H47.73V153.253V153.782H66.81V153.642Z" fill="#CEB496"/>
<path d="M94.8701 137.011V187.8L133.21 186.828V158.408C128.94 151.731 124.263 145.371 119.21 139.367C118.245 138.527 117.199 137.803 116.09 137.206L94.8701 137.011Z" fill="url(#paint0_linear_166_256)"/>
<path d="M50.9701 131.651H42.8701V140.21H50.9701V131.651Z" fill="#CEB496"/>
<path d="M37.1099 143.236V152.713H45.8799V142.609H37.1099V143.236Z" fill="#CEB496"/>
<path d="M45.8799 153.783H37.1099V152.713H45.5199H45.8799V153.783Z" fill="#B1987A"/>
<path d="M108.83 199.708C115.225 199.708 120.41 194.367 120.41 187.779C120.41 181.19 115.225 175.849 108.83 175.849C102.435 175.849 97.25 181.19 97.25 187.779C97.25 194.367 102.435 199.708 108.83 199.708Z" fill="#1C2B4F"/>
<path d="M108.83 196.596C113.801 196.596 117.83 192.649 117.83 187.779C117.83 182.909 113.801 178.961 108.83 178.961C103.86 178.961 99.8301 182.909 99.8301 187.779C99.8301 192.649 103.86 196.596 108.83 196.596Z" fill="#E4E9F6"/>
<path d="M39.3901 199.708C45.7855 199.708 50.9701 194.367 50.9701 187.779C50.9701 181.19 45.7855 175.849 39.3901 175.849C32.9946 175.849 27.8101 181.19 27.8101 187.779C27.8101 194.367 32.9946 199.708 39.3901 199.708Z" fill="#1C2B4F"/>
<path d="M39.3901 196.596C44.3607 196.596 48.3901 192.649 48.3901 187.779C48.3901 182.909 44.3607 178.961 39.3901 178.961C34.4196 178.961 30.3901 182.909 30.3901 187.779C30.3901 192.649 34.4196 196.596 39.3901 196.596Z" fill="#E4E9F6"/>
<path d="M102.69 138.762H99.8301V159.315H102.69V138.762Z" fill="#1C2B4F"/>
<path d="M104.91 159.315V139.864C104.91 139.864 118.09 140.156 119.6 139.864C119.98 139.799 132.33 155.954 133.21 158.429C133.21 158.602 133.27 163.14 133.21 163.14C132.11 163.14 125.92 163.032 121.52 163.14C121.28 163.14 121.8 160.914 120.34 159.974C120.06 159.79 104.91 159.974 104.91 159.974V159.315Z" fill="#D5EEF5"/>
<path d="M39.3902 189.594C40.4506 189.594 41.3102 188.781 41.3102 187.779C41.3102 186.776 40.4506 185.963 39.3902 185.963C38.3298 185.963 37.4702 186.776 37.4702 187.779C37.4702 188.781 38.3298 189.594 39.3902 189.594Z" fill="#1C2B4F"/>
<path d="M108.83 189.594C109.891 189.594 110.75 188.781 110.75 187.779C110.75 186.776 109.891 185.963 108.83 185.963C107.77 185.963 106.91 186.776 106.91 187.779C106.91 188.781 107.77 189.594 108.83 189.594Z" fill="#1C2B4F"/>
<path d="M144.36 0H0V7.26196H144.36V0Z" fill="#1C2B4F"/>
<path d="M144.35 70.802H0V78.0637H144.35V70.802Z" fill="#1C2B4F"/>
<path d="M3.92999 7.26196H0V180.128H3.92999V7.26196Z" fill="#1C2B4F"/>
<path d="M144.36 3.29614H140.43V176.162H144.36V3.29614Z" fill="#1C2B4F"/>
<path d="M92.5599 197.472L88.9599 206.808L80.4399 202.14L84.8999 192.706L92.5599 197.472Z" fill="#CEB496"/>
<path d="M89.59 210.115L79.27 203.891L79.81 203.015L89.24 208.656L95.92 191.399L96.94 191.831L89.59 210.115Z" fill="black"/>
<path d="M93.4998 212.135C94.9689 212.135 96.1599 210.655 96.1599 208.829C96.1599 207.003 94.9689 205.522 93.4998 205.522C92.0308 205.522 90.8398 207.003 90.8398 208.829C90.8398 210.655 92.0308 212.135 93.4998 212.135Z" fill="black"/>
<path d="M103.71 182.981C101.646 184.314 99.9696 186.246 98.87 188.557C97.6416 188.895 96.5472 189.653 95.75 190.718L96.16 192.079L98.97 191.355C100.365 190.417 101.499 189.088 102.25 187.508V195.84L107 196.229V186.114C107.081 185.488 106.985 184.849 106.724 184.282C106.464 183.715 106.051 183.247 105.54 182.938L103.71 182.981Z" fill="#1C2B4F"/>
<path d="M107 196.272L102.25 195.883L99.3198 209.639L102.02 210.363C102.02 210.363 102.51 208.559 103.09 206.462C103.86 203.62 104.79 200.227 104.83 200.054C105.64 198.855 106.366 197.59 107 196.272Z" fill="#1C2B4F"/>
<path d="M107.49 210.85L103.08 206.408L104.05 202.875L108.78 208.418L107.69 210.85" fill="#1C2B4F"/>
<path d="M105.54 182.98H103.71L103.92 181.457C103.739 181.504 103.549 181.481 103.383 181.393C103.217 181.304 103.085 181.154 103.01 180.971C102.66 179.63 102.616 178.217 102.88 176.854H104.73L105.09 179.015L105.41 181.176L105.54 182.98Z" fill="#CEB496"/>
<path d="M103 177.221C103 175.924 104.08 175.492 106.07 175.924C106.564 177.534 106.564 179.274 106.07 180.884L105.07 181.111L105.18 178.842L104.66 177.761L104.15 177.923L103 177.221Z" fill="black"/>
<defs>
<linearGradient id="paint0_linear_166_256" x1="94.5501" y1="153.739" x2="127.207" y2="175.655" gradientUnits="userSpaceOnUse">
<stop stop-color="#0086CD"/>
<stop offset="0.14" stop-color="#0280C4"/>
<stop offset="0.37" stop-color="#076FAD"/>
<stop offset="0.65" stop-color="#105387"/>
<stop offset="0.98" stop-color="#1B2D52"/>
<stop offset="1" stop-color="#1C2B4F"/>
</linearGradient>
</defs>
</svg>
