<svg width="166" height="151" viewBox="0 0 166 151" fill="none" xmlns="http://www.w3.org/2000/svg">
<g clip-path="url(#clip0_166_255)">
<path d="M74.8802 88.8101H4.68018V95.2901H74.8802V88.8101Z" fill="#BD886F"/>
<path d="M69.2101 95.29H10.3501V150.01H69.2101V95.29Z" fill="#BD886F"/>
<path d="M22.4399 88.81H60.8399V65.36C60.8399 53.95 22.4399 52.75 22.4399 65.36" fill="#1C2B4F"/>
<path d="M8.01 88.81V87.19H10.05V83.83H0.45L0 67.75L23.49 68.3V83.69L12.96 83.92L12.9 87.17L16.74 87.22L16.71 88.81H8.01Z" fill="#1C2B4F"/>
<path d="M24.1199 80.72C23.6099 81.12 24.5599 73.64 25.8299 69.37C26.3199 67.75 33.5099 59.16 37.1699 58.48H44.7299C50.9099 62.68 56.1399 68.37 61.3799 74.69L56.8799 79.63L51.8799 74.08V85.08L32.4999 84.93L32.5799 78.28L31.6799 81.16L24.1199 80.71" fill="#F15E5B"/>
<path d="M52.7 88.8099L51.89 85.0899L32.5 84.9299V88.8099H52.7Z" fill="#F15E5B"/>
<path d="M31.63 80.9201L24.07 79.5701L24 88.6601L49.11 89.1101H49.74C49.74 88.7201 49.41 88.4501 48.44 88.3901L50.78 88.4601C51.38 88.4601 51.3 87.8401 50.51 87.6101H48.38L50.74 87.5101C50.89 87.3901 50.8 87.1201 50.29 86.9801C49.6311 86.8417 48.9624 86.7548 48.29 86.7201C48.7704 86.6519 49.2548 86.6151 49.74 86.6101C51.96 86.6701 50.47 85.4401 48.24 85.6901L46.52 85.8501L47.29 85.2701C48.05 84.5901 48.13 84.2101 47.29 84.2701L44.74 85.6801L43.47 86.0001L30.82 84.1601L31.63 80.9201Z" fill="#FBC8BA"/>
<path d="M46.1102 44.67L46.8102 52.13C45.4402 56.88 42.8102 58.94 37.2102 54.42C36.6578 53.6505 36.3605 52.7272 36.3602 51.78C33.8902 50.99 33.9302 48.18 36.5002 48.6L36.7502 47L36.5002 46C36.8314 45.7744 37.1082 45.4778 37.3106 45.1319C37.513 44.786 37.6358 44.3993 37.6702 44L41.8702 43C43.8002 43.06 45.5202 43.36 46.1102 44.67Z" fill="#FBC8BA"/>
<path d="M42.7902 63.23L39.2402 59.33V55.78H44.6402L44.3902 59.51L42.7902 63.23Z" fill="#FBC8BA"/>
<path d="M46.5302 50.7399C46.2202 48.4399 45.9402 45.3799 45.2902 44.4199C43.1902 43.0699 40.7702 43.1999 38.1602 44.1499C37.3193 45.5288 36.7902 47.0749 36.6102 48.6799C34.2902 48.9699 34.4102 50.6799 36.3602 51.7799L39.9402 64.7799L32.1502 58.1599C29.8502 48.6199 31.5002 43.2299 35.4102 41.1599C35.6111 40.9501 35.8248 40.7531 36.0502 40.5699C39.9502 37.7599 45.0502 36.6599 48.1202 42.0199C49.5433 44.9046 50.4052 48.0334 50.6602 51.2399L49.8202 64.5599L44.7302 58.4799L46.5302 50.7399Z" fill="#1C2B4F"/>
<path d="M60.58 83.35L70.4 70.9C71.9213 70.1584 73.2188 69.0266 74.16 67.62C75.66 64.09 74.57 63.62 73.16 66.15C73.28 65.36 73.93 64.22 73.93 63.81C73.93 62.81 72.43 63.92 71.58 65.44L72.94 63C73.13 62.2 72.27 62.22 71.94 63L70.38 65.31L71.38 62.9C71.45 62.23 70.99 62.24 70.66 62.51C70.0456 63.2224 69.6224 64.0792 69.43 65L68.37 63.76C68.21 63.5 67.45 63.1 67.37 64.13L68.58 66.23L57 79.49L60.58 83.35Z" fill="#FBC8BA"/>
<path d="M165.38 18.3799H86.96V138.98H165.38V18.3799Z" fill="#BD886F"/>
<path d="M67.2302 0H6.66016V7.56H67.2302V0Z" fill="#1C2B4F"/>
<path d="M67.2302 34.5599H4.68018V27.1799H8.96018H67.2302V34.5599Z" fill="#1C2B4F"/>
<path d="M9.06012 17.9999H7.62012V15.8999H8.76012H32.5601V17.8199L31.3801 17.9999L30.4201 27.1799H10.0201L9.06012 17.9999Z" fill="#CED6DC"/>
<path d="M10.7998 12L8.75977 15.9H31.5598L29.1198 12H10.7998Z" fill="#F15E5B"/>
<path d="M14.9902 9.81006H25.1902V12.0001H24.2602L24.2002 10.6601L15.9302 10.6501L15.9802 12.0001H14.9902V9.81006Z" fill="#F15E5B"/>
<path d="M86.9602 18.6499H80.7202V149.94H86.9602V18.6499Z" fill="#1C2B4F"/>
<path d="M165.38 46.25H86.96V51.77H165.38V46.25Z" fill="#1C2B4F"/>
<path d="M165.16 77.6001H86.7598V83.1201H165.16V77.6001Z" fill="#1C2B4F"/>
<path d="M165.16 108.95H86.7598V114.47H165.16V108.95Z" fill="#1C2B4F"/>
<path d="M89.57 40.0501C87.72 38.1401 87.73 36.9601 88.97 36.2701L88.43 34.5601C88.55 32.9801 90.43 31.9301 91.97 30.7501C91.97 28.0601 93.83 26.3401 96.65 25.1101H113.21C115.61 25.3901 115.92 27.4001 115.31 30.1101C116.8 31.9501 116.54 34.3801 115.31 37.1101L105.69 41.1101C104.47 41.3701 103.69 42.3101 103.43 43.9301H90.83L89.57 40.0501ZM100.07 27.5101C97.62 27.4001 96.57 28.3501 97.85 31.0501C97.85 31.0501 98.69 32.6501 99.38 32.6701C103.591 32.8123 107.796 32.265 111.83 31.0501C112.35 29.1301 111.74 28.0501 110.27 27.5101H100.07Z" fill="#F15E5B"/>
<path d="M92.32 45.47L92.27 44.01H102.94L103.12 45.47H92.32Z" fill="#CED6DC"/>
<path d="M103.23 27.5V28.77H97.3301C97.4901 28 98.1301 27.53 99.5101 27.51L103.23 27.5Z" fill="#1C2B4F"/>
<path d="M90.89 38.2001L95.74 34.2001C96.65 33.4001 95.34 32.4501 94.61 33.2001L90.18 37.2001C89.73 37.7601 89.9 38.6501 90.89 38.2001Z" fill="#1C2B4F"/>
<path d="M90.25 35.6999L94 32.2399C94.064 32.1853 94.116 32.118 94.1527 32.0423C94.1894 31.9666 94.2101 31.8841 94.2134 31.8C94.2167 31.7159 94.2026 31.6321 94.1719 31.5537C94.1413 31.4753 94.0947 31.4042 94.0352 31.3447C93.9757 31.2852 93.9045 31.2386 93.8262 31.208C93.7478 31.1773 93.664 31.1632 93.5799 31.1665C93.4958 31.1698 93.4133 31.1905 93.3376 31.2272C93.2619 31.2639 93.1946 31.3159 93.14 31.3799L89.73 34.8499C89.36 35.3199 89.49 36.0899 90.25 35.6999Z" fill="#1C2B4F"/>
<path d="M93.3502 43.2201H101C101 40.8934 99.2302 39.2601 95.6902 38.3201C93.5002 38.4901 93.0002 40.3801 93.3502 43.2201Z" fill="#1C2B4F"/>
<path d="M104.51 39.0299L105.43 39.7499L112.61 37.3199L112.44 36.3799L104.51 39.0299Z" fill="#CED6DC"/>
<path d="M103.23 37.91L104.26 38.63L112.3 36.2L112.1 35.25L103.23 37.91Z" fill="#CED6DC"/>
<path d="M101.7 36.5799L102.9 37.2999L112.3 34.8699L112.07 33.9299L101.7 36.5799Z" fill="#CED6DC"/>
<path d="M140.61 46.63V34.99H138.09L137.91 46.63H140.61Z" fill="#1C2B4F"/>
<path d="M141.57 39.28H136.77V40.24H141.57V39.28Z" fill="#1C2B4F"/>
<path d="M138.09 28.5699V27.8999H136.62L128.61 30.2199V34.2699L137.91 36.0099L138.09 35.3499V28.5699Z" fill="#1C2B4F"/>
<path d="M128.61 31.95H121.32V33.0299H128.61V31.95Z" fill="#CED6DC"/>
<path d="M154.31 39.4401H153.03L152.4 36.0701L154.11 36.7701L154.31 39.4401Z" fill="#1C2B4F"/>
<path d="M138.09 35.3499V27.8999H154.77C157.77 27.6499 158.47 28.6399 156.57 31.0299C159.36 34.0299 159.48 39.6599 159.51 45.3699H154.77L154.11 36.7699C152.97 36.9099 152.01 35.6499 152.01 35.6499L138.09 35.3499Z" fill="#F15E5B"/>
<path d="M113.94 69.57L114.34 68.72H118.12V70.07L123.72 70.35L123.42 76.68V77.33L110 77.6C104.07 77.4 99.1502 77.94 97.9402 76.41C96.4302 72.09 101.57 70.55 108.69 69.84L113.94 69.57ZM99.4502 75.65H108.67V72.36C103.29 72.89 99.0602 73.7 99.4502 75.65Z" fill="#F15E5B"/>
<path d="M155 76.68H123.47L123.77 71.6L154.53 71.24C158.43 71.24 158 76.58 155 76.68Z" fill="#CED6DC"/>
<path d="M112.45 70.8301H118.71V74.2101L112.81 73.9601L112.45 70.8301Z" fill="#1C2B4F"/>
<path d="M92.52 103.18C92.52 104.98 94.69 104.85 94.69 103.07V96C95.25 95.64 95.26 95.06 95.12 94.42L95.46 94.12V91.62L93 91.53L92.52 103.18Z" fill="#1C2B4F"/>
<path d="M98.6998 103.18C98.6998 104.98 96.5298 104.85 96.5298 103.07V96C95.9698 95.64 95.9698 95.06 96.0998 94.42L95.7598 94.12V91.62L98.2398 91.53L98.6998 103.18Z" fill="#1C2B4F"/>
<path d="M93.6799 95.1399C94.2254 97.5028 93.9172 99.9825 92.8099 102.14C91.4699 101.92 91.9099 98.8699 92.8099 95.1399H93.6799Z" fill="#F15E5B"/>
<path d="M97.5802 95.1399C97.0346 97.5028 97.3428 99.9825 98.4502 102.14C99.7902 101.92 99.3502 98.8699 98.4502 95.1399H97.5802Z" fill="#F15E5B"/>
<path d="M93.8999 91.5299V87.3899L94.8099 84.3899H96.5199L97.3599 87.2799V91.5599L95.7699 91.6199V92.2599H95.4899L95.4599 91.6199L93.8999 91.5299Z" fill="#CED6DC"/>
<path d="M101.75 105.3C101.75 107.3 103.35 107.16 103.35 105.17V97.29C103.536 97.0416 103.662 96.7533 103.718 96.4478C103.773 96.1423 103.757 95.8281 103.67 95.53L103.91 95.19V92.38L102.09 92.28L101.75 105.3Z" fill="#1C2B4F"/>
<path d="M106.3 105.3C106.3 107.3 104.7 107.16 104.7 105.17V97.29C104.514 97.0416 104.388 96.7533 104.332 96.4478C104.277 96.1423 104.293 95.8281 104.38 95.53L104.14 95.19V92.38L105.96 92.28L106.3 105.3Z" fill="#1C2B4F"/>
<path d="M102.61 96.31C103.002 98.9146 102.783 101.575 101.97 104.08C100.97 103.83 101.31 100.42 101.97 96.22L102.61 96.31Z" fill="#F15E5B"/>
<path d="M105.47 96.31C105.079 98.9146 105.298 101.575 106.11 104.08C107.11 103.83 106.77 100.42 106.11 96.22L105.47 96.31Z" fill="#F15E5B"/>
<path d="M102.77 92.28V87.65L103.43 84.29H104.7L105.31 87.52V92.31L104.14 92.38V93.09H103.94L103.91 92.38L102.77 92.28Z" fill="#CED6DC"/>
<path d="M110 106.81C110 108.81 111.59 108.65 111.59 106.68V98.8699C111.777 98.626 111.904 98.341 111.96 98.0385C112.016 97.736 111.998 97.4245 111.91 97.1299L112.16 96.7899V93.9999L110.34 93.8999L110 106.81Z" fill="#1C2B4F"/>
<path d="M114.58 106.81C114.58 108.81 112.99 108.65 112.99 106.68V98.8699C112.807 98.6238 112.683 98.3389 112.627 98.0372C112.572 97.7355 112.586 97.425 112.67 97.1299L112.43 96.7899V93.9999L114.25 93.8999L114.58 106.81Z" fill="#1C2B4F"/>
<path d="M110.89 97.9001C111.291 100.481 111.071 103.121 110.25 105.6C109.25 105.36 109.59 101.98 110.25 97.8101L110.89 97.9001Z" fill="#F15E5B"/>
<path d="M113.76 97.9001C113.369 100.482 113.589 103.118 114.4 105.6C115.4 105.36 115.06 101.98 114.4 97.8101L113.76 97.9001Z" fill="#F15E5B"/>
<path d="M111.06 93.9V89.32L111.72 85.99L112.33 84.24L112.98 85.99L113.6 89.19V93.94L112.43 94V94.71H112.23L112.2 94L111.06 93.9Z" fill="#CED6DC"/>
<path d="M94.3101 123.68L94.6101 138.41H107.87L107.45 123.68H94.3101Z" fill="#F15E5B"/>
<path d="M95.4799 123.68H93.6299V124.24H95.4799V123.68Z" fill="#1C2B4F"/>
<path d="M108.58 124.23H107.66H106.74V123.68H108.58V124.23Z" fill="#1C2B4F"/>
<path d="M94.5499 124.23C98.3899 133 103.71 134.31 107.66 124.23H108.11C106.89 131.5 98.7499 137.45 94.1099 124.23H94.5499Z" fill="#1C2B4F"/>
<path d="M108.11 122.54H93.6299V123.68H108.11V122.54Z" fill="#EC4848"/>
<path d="M113.57 125.5L113.83 138.41H125.46L125.09 125.5H113.57Z" fill="#F15E5B"/>
<path d="M114.59 125.49H112.97V125.98H114.59V125.49Z" fill="#1C2B4F"/>
<path d="M126.08 125.98H125.27H124.46V125.5H126.08V125.98Z" fill="#1C2B4F"/>
<path d="M113.77 126C117.14 133.69 121.77 134.84 125.27 126H125.66C124.59 132.37 117.46 137.59 113.36 126H113.77Z" fill="#1C2B4F"/>
<path d="M125.66 124.5H112.97V125.5H125.66V124.5Z" fill="#EC4848"/>
<path d="M131.58 127.5L131.81 138.41H142.19L141.87 127.5H131.58Z" fill="#F15E5B"/>
<path d="M132.48 127.5H131.04V127.91H132.48V127.5Z" fill="#1C2B4F"/>
<path d="M142.75 127.92H142.03H141.3V127.5H142.75V127.92Z" fill="#1C2B4F"/>
<path d="M131.76 127.91C134.76 134.41 138.93 135.38 142.03 127.91H142.38C141.38 133.29 135.05 137.7 131.38 127.91H131.76Z" fill="#1C2B4F"/>
<path d="M142.38 126.66H131.04V127.5H142.38V126.66Z" fill="#EC4848"/>
<path d="M165.16 138.41H86.96V149.94H165.16V138.41Z" fill="#1C2B4F"/>
<path d="M124 88.34C123.75 86.89 124.15 86.51 124.78 86.51C124.78 87.46 124.94 88.14 125.44 88.28V86.51C125.69 86.51 126.59 86.51 126.79 86.58C128.91 87.1 128.23 89.58 127.01 92.45V105.53C127.18 108.37 125.09 108.53 125.12 105.53V91.85C124.474 90.7854 124.09 89.5823 124 88.34ZM126.13 105.28C125.975 105.245 125.812 105.259 125.664 105.32C125.517 105.381 125.392 105.487 125.308 105.622C125.223 105.758 125.182 105.916 125.192 106.075C125.201 106.235 125.259 106.387 125.359 106.512C125.459 106.637 125.595 106.727 125.748 106.771C125.902 106.815 126.065 106.81 126.216 106.757C126.366 106.704 126.497 106.606 126.589 106.476C126.681 106.345 126.73 106.19 126.73 106.03C126.748 105.855 126.697 105.679 126.589 105.54C126.482 105.4 126.324 105.307 126.15 105.28H126.13Z" fill="#CED6DC"/>
<path d="M125.34 89.7699C125.455 90.0921 125.592 90.4061 125.75 90.7099H126.75L127.36 88.9899L126.18 88.4299L125.34 89.7699Z" fill="#565B64"/>
<path d="M131 88.2799C130.79 87.0099 131.14 86.6699 131.69 86.6799C131.69 87.5099 131.83 88.1099 132.27 88.2299V86.6799C132.49 86.6799 133.27 86.6799 133.46 86.6799C135.32 87.1399 134.72 89.3099 133.65 91.8399V103.32C133.81 105.81 131.97 105.92 132 103.32V91.3199C131.437 90.3974 131.094 89.3569 131 88.2799V88.2799ZM132.87 103.15C132.723 103.186 132.592 103.271 132.498 103.391C132.405 103.511 132.354 103.658 132.354 103.81C132.354 103.962 132.405 104.109 132.498 104.229C132.592 104.348 132.723 104.433 132.87 104.47C133.018 104.433 133.148 104.348 133.242 104.229C133.336 104.109 133.386 103.962 133.386 103.81C133.386 103.658 133.336 103.511 133.242 103.391C133.148 103.271 133.018 103.186 132.87 103.15Z" fill="#CED6DC"/>
<path d="M132 89.33C132 89.33 132.3 90.09 132.33 90.09H133.19L133.69 88.69L132.69 88.24L132 89.33Z" fill="#565B64"/>
<path d="M137 87.93C136.8 86.93 137.12 86.67 137.63 86.68C137.63 87.32 137.76 87.79 138.17 87.88V86.68C138.37 86.68 139.11 86.68 139.27 86.68C140.99 87.04 140.44 88.68 139.45 90.68V99.59C139.59 101.52 137.89 101.59 137.91 99.59V90.32C137.399 89.6188 137.085 88.7936 137 87.93ZM138.73 99.47C138.629 99.466 138.528 99.4925 138.442 99.546C138.355 99.5996 138.287 99.6778 138.245 99.7705C138.203 99.8633 138.19 99.9664 138.208 100.067C138.225 100.167 138.272 100.26 138.342 100.333C138.413 100.406 138.504 100.457 138.603 100.478C138.703 100.5 138.806 100.491 138.9 100.453C138.995 100.415 139.076 100.35 139.133 100.265C139.19 100.181 139.22 100.082 139.22 99.98C139.222 99.91 139.209 99.8404 139.182 99.7758C139.155 99.7112 139.115 99.6529 139.064 99.6048C139.013 99.5568 138.952 99.5199 138.886 99.4967C138.82 99.4734 138.75 99.4643 138.68 99.47H138.73Z" fill="#CED6DC"/>
<path d="M138 89.33C138.093 89.5904 138.203 89.8442 138.33 90.09H139.18L139.68 88.69L138.68 88.24L138 89.33Z" fill="#565B64"/>
<path d="M36.0601 27.18H45.1501L45.2901 22C43.6201 17.21 37.6201 17.65 36.0601 22V27.18Z" fill="#F15E5B"/>
<path d="M40.68 25.44C41.906 25.44 42.9 24.4461 42.9 23.22C42.9 21.9939 41.906 21 40.68 21C39.4539 21 38.46 21.9939 38.46 23.22C38.46 24.4461 39.4539 25.44 40.68 25.44Z" fill="#1C2B4F"/>
<path d="M42.96 22.49H38.46V23.69H42.96V22.49Z" fill="#F15E5B"/>
<path d="M37.3401 24.7H36.3301V26.57H37.3401V24.7Z" fill="#1C2B4F"/>
<path d="M37.3401 22.1101H36.3301V23.8401H37.3401V22.1101Z" fill="#1C2B4F"/>
<path d="M38.9466 19.9379L38.0986 19.3892L37.1587 20.8415L38.0066 21.3903L38.9466 19.9379Z" fill="#1C2B4F"/>
<path d="M41.7519 19.8546L41.7104 18.8455L39.9819 18.9164L40.0233 19.9255L41.7519 19.8546Z" fill="#1C2B4F"/>
<path d="M44.2292 21.3526L44.7895 20.7135C44.8187 20.6803 44.8154 20.6297 44.7821 20.6006L43.6016 19.5656C43.5683 19.5365 43.5178 19.5398 43.4887 19.573L42.9283 20.2122C42.8992 20.2454 42.9025 20.296 42.9358 20.3251L44.1163 21.3601C44.1495 21.3892 44.2001 21.3859 44.2292 21.3526Z" fill="#1C2B4F"/>
<path d="M51.4302 27.1099H60.5202L60.6502 21.9999C59.0002 17.1599 53.0002 17.6099 51.4302 21.9999V27.1099Z" fill="#F15E5B"/>
<path d="M56.0398 25.3699C57.2659 25.3699 58.2598 24.376 58.2598 23.1499C58.2598 21.9239 57.2659 20.9299 56.0398 20.9299C54.8138 20.9299 53.8198 21.9239 53.8198 23.1499C53.8198 24.376 54.8138 25.3699 56.0398 25.3699Z" fill="#1C2B4F"/>
<path d="M58.3198 22.4099H53.8198V23.6099H58.3198V22.4099Z" fill="#F15E5B"/>
<path d="M52.6999 24.6299H51.6899V26.4999H52.6999V24.6299Z" fill="#1C2B4F"/>
<path d="M52.6999 22.04H51.6899V23.77H52.6999V22.04Z" fill="#1C2B4F"/>
<path d="M54.3098 19.8647L53.4619 19.3159L52.522 20.7683L53.3699 21.317L54.3098 19.8647Z" fill="#1C2B4F"/>
<path d="M57.1117 19.7887L57.0703 18.7795L55.3418 18.8505L55.3832 19.8596L57.1117 19.7887Z" fill="#1C2B4F"/>
<path d="M59.5964 21.2787L60.1567 20.6395C60.1859 20.6063 60.1825 20.5557 60.1493 20.5266L58.9687 19.4916C58.9355 19.4625 58.885 19.4658 58.8559 19.4991L58.2955 20.1382C58.2664 20.1714 58.2697 20.222 58.3029 20.2511L59.4835 21.2861C59.5167 21.3152 59.5673 21.3119 59.5964 21.2787Z" fill="#1C2B4F"/>
</g>
<defs>
<clipPath id="clip0_166_255">
<rect width="165.37" height="150.01" fill="white"/>
</clipPath>
</defs>
</svg>
