<svg width="120" height="222" viewBox="0 0 120 222" fill="none" xmlns="http://www.w3.org/2000/svg">
<path d="M119.28 37.2812H0V37.9297H119.28V37.2812Z" fill="#1C2B4F"/>
<path d="M41.7298 51.9448H77.4698C78.7398 38.4049 73.0998 26.4102 59.6398 26.4102C48.0898 27.6529 40.4098 35.7682 41.7298 51.9448Z" fill="#1C2B4F"/>
<path d="M42.6402 51.394H76.5702C77.7602 38.5347 72.4202 27.1558 59.6402 27.145C48.6802 28.3337 41.3902 36.0385 42.6402 51.394Z" fill="url(#paint0_linear_166_254)"/>
<path d="M54.12 51.9453H64.7C64.7812 52.7718 64.7075 53.6074 64.4835 54.4025C64.2594 55.1975 63.8896 55.9357 63.3959 56.573C62.9023 57.2103 62.295 57.7337 61.6102 58.112C60.9254 58.4903 60.1771 58.7157 59.41 58.7749C56.19 58.7749 53.68 56.4732 54.12 51.9453Z" fill="#FFFBFD"/>
<path d="M59.4001 0H58.6802V26.6802H59.4001V0Z" fill="#1C2B4F"/>
<path d="M81.1899 75.9238H21.6099V165.399H81.1899V75.9238Z" fill="#E4E9F6"/>
<path d="M79.4401 78.5613H23.3701V162.763H79.4401V78.5613Z" fill="#AFDFE2"/>
<path d="M45.6899 210.493L46.5899 198.293H52.3999L50.5499 211.552L45.6899 210.493Z" fill="#F8CABB"/>
<path d="M58.8701 210.385L56.8301 197.58H62.5301L63.8501 210.385H58.8701Z" fill="#F8CABB"/>
<path d="M42.9399 155.922C43.3199 151.999 45.3799 149.341 48.79 147.698V145.321L56.26 143.376C61.34 145.213 63.78 149.665 64.41 155.922L43.2999 156.408L42.9399 155.922Z" fill="#FFFBFD"/>
<path d="M46.3601 130.679V136.222L45.1001 136.806V141.668C45.7001 143.83 47.2601 144.55 49.7801 143.83V145.58L55.1801 143.927L53.7401 139.161C55.6201 137 55.9201 135.066 53.2901 133.758L51.7601 133.856L51.6701 129.674C50.0832 130.727 48.184 131.087 46.3601 130.679Z" fill="#F8CABB"/>
<path d="M53.2901 152.755H65.0001C65.9201 137.454 65.6001 124.659 59.1501 124.011C51.4701 122.325 45.6001 123.255 44.6401 131.413L51.5801 130.333L51.8601 133.672C53.5901 133.672 54.6501 134.147 55.0901 135.12C55.1411 136.59 54.6605 138.024 53.7501 139.118L53.2901 152.755Z" fill="#1C2B4F"/>
<path d="M42.3799 188.88L41.8999 198.401L66.3799 198.012L65.5299 188.545L42.3799 188.88Z" fill="#FFFBFD"/>
<path d="M40.6902 188.838C41.2302 188.935 69.1302 188.838 69.1302 188.838L70.4402 187.573L70.1702 160.558C69.5882 159.022 68.6621 157.667 67.475 156.615C66.288 155.562 64.8774 154.845 63.3702 154.528H45.1902C42.0002 155.101 39.9602 157.824 39.4102 161.314V186.817L40.6902 188.838Z" fill="#1C2B4F"/>
<path d="M42.4001 219.084C42.05 219.084 41.7142 219.234 41.4667 219.502C41.2191 219.769 41.0801 220.132 41.0801 220.51C41.0801 220.889 41.2191 221.252 41.4667 221.519C41.7142 221.787 42.05 221.937 42.4001 221.937H67.0001C68.5501 221.937 69.0001 219.084 67.0001 219.084H42.4001Z" fill="#1C2B4F"/>
<path d="M52.8799 188.881V219.084H56.9499V188.87L52.8799 188.881Z" fill="#1C2B4F"/>
<path d="M44.5 218.813L44.92 211.757C46.66 208.515 50.44 208.58 51.07 212.838L50.44 218.857L44.5 218.813Z" fill="#F15E5B" stroke="#231F20" stroke-width="0.5" stroke-miterlimit="10"/>
<path d="M45.9599 218.695L45.1499 212.698L50.6199 212.914L48.7999 218.695H45.9599Z" fill="#F15E5B" stroke="#231F20" stroke-width="0.5" stroke-miterlimit="10"/>
<path d="M57.73 218.813L58.15 211.757C59.89 208.515 63.67 208.58 64.3 212.838L63.67 218.857L57.73 218.813Z" fill="#F15E5B" stroke="#231F20" stroke-width="0.5" stroke-miterlimit="10"/>
<path d="M59.1899 218.695L58.3799 212.698L63.8499 212.914L62.0199 218.695H59.1899Z" fill="#F15E5B" stroke="#231F20" stroke-width="0.5" stroke-miterlimit="10"/>
<path d="M69.72 129.857L67.06 127.761C64.25 127.966 62.06 126.896 60.9 124.011C60.72 123.071 61.08 122.66 62.07 122.877C61.07 121.85 62.07 120.942 62.95 121.418C61.67 120.456 62.74 119.775 63.82 120.261L60 117.311C60.0128 117.125 60.0629 116.943 60.1468 116.779C60.2307 116.615 60.3465 116.473 60.4862 116.362C60.6259 116.251 60.7862 116.174 60.956 116.137C61.1259 116.099 61.3012 116.102 61.47 116.144L69.17 121.882C69.5372 122.914 69.6742 124.025 69.57 125.124L71.7 126.648L69.72 129.857Z" fill="#F8CABB"/>
<path d="M65.5502 123.19C65.6402 123.125 70.3202 115.896 70.3202 115.896C71.2202 113.27 68.3202 112.178 66.6302 113.951L62.9502 121.515L65.5502 123.19Z" fill="#5193CF"/>
<path d="M66.8799 113.756C66.9499 113.756 68.9699 115.216 68.9699 115.216H69.3299V114.859L67.1399 113.551C67.0435 113.604 66.9557 113.673 66.8799 113.756Z" fill="#1C2B4F"/>
<path d="M66.4702 114.47C66.5402 114.47 68.5702 115.929 68.5702 115.929H68.9302V115.561L66.6102 114.178L66.4702 114.47Z" fill="#1C2B4F"/>
<path d="M66 115.377C66.07 115.377 68.09 116.837 68.09 116.837H68.45V116.48L66.14 115.085L66 115.377Z" fill="#1C2B4F"/>
<path d="M65.5498 116.22C65.6198 116.22 67.6498 117.679 67.6498 117.679H67.9998V117.312L65.6798 115.928L65.5498 116.22Z" fill="#1C2B4F"/>
<path d="M65.21 116.912C65.28 116.912 67.3 118.371 67.3 118.371H67.66V118.004L65.34 116.62L65.21 116.912Z" fill="#1C2B4F"/>
<path d="M64.7798 117.722L66.8698 119.182H67.2298V118.868L64.9098 117.474L64.7798 117.722Z" fill="#1C2B4F"/>
<path d="M64.2998 118.663C64.3698 118.663 66.3998 120.122 66.3998 120.122H66.7598V119.754L64.4398 118.371L64.2998 118.663Z" fill="#1C2B4F"/>
<path d="M69.43 122.271C68.05 119.84 66.43 120.542 64.77 122.704C64.92 123.687 65.48 123.784 66.32 123.168L67.51 122.758C66.24 123.719 66.06 124.757 67.1 125.87C67.1 125.87 69.45 124.011 69.43 124.011C69.41 124.011 69.43 122.271 69.43 122.271Z" fill="#F8CABB"/>
<path d="M67.9199 130.527L71.2799 126.432L77.9999 131.695L86.8799 119.051C90.5099 114.729 95.8799 113.865 100.5 118.468L114.84 136.157C114.35 140.977 112.01 145.299 108.84 149.384L104.58 146.693L108.04 137.162L106.4 135.239L103.4 131.749L106.19 135.455V159.045H82.0799L82.4399 136.806C80.9499 139.108 79.3399 140.285 77.4399 138.621L67.9199 130.527Z" fill="#FFFBFD"/>
<path d="M106.88 158.591H82.75L85.64 205.144H92.36L93.44 185.823L96.67 184.007L98.75 205.144L100.5 215.194H105.12L106.88 158.591Z" fill="#1C2B4F"/>
<path d="M82.8601 128.766H95.4402L101.35 128.517V191.02C101.136 191.756 100.714 192.402 100.144 192.867C99.5743 193.332 98.8841 193.593 98.1702 193.614H83.6501C82.9215 193.568 82.2348 193.231 81.7243 192.667C81.2138 192.104 80.9163 191.354 80.8901 190.566L82.8601 128.766Z" fill="#F15E5B"/>
<path d="M100.88 117.938L95.2798 128.744L97.9598 128.636L102.57 119.257C102.415 118.899 102.179 118.591 101.883 118.36C101.588 118.129 101.242 117.984 100.88 117.938Z" fill="#F15E5B"/>
<path d="M85.4701 129.177L86.7101 119.159C85.6201 119.008 84.7101 119.159 84.6401 120.737L83.8901 128.766" fill="#F15E5B"/>
<path d="M105.69 146.402L104.37 148.563C102.06 148.736 100.02 149.157 98.7 150.259C98.32 151.805 99.79 151.632 101.89 150.897L98.54 154.279C98.63 155.9 99.76 155.198 101.62 152.885L99.53 155.76C99.53 156.516 99.66 157.002 100.53 156.289L102.6 153.696L101.14 156.44C100.81 157.175 101.6 157.597 102.14 156.808L103.56 154.409H103.75L102.75 156.84C102.48 157.791 103.29 158.018 103.67 157.208L105.83 153.209C106.229 152.768 106.515 152.222 106.658 151.625C106.802 151.028 106.799 150.401 106.65 149.806L108.17 147.947L105.69 146.402Z" fill="#F8CABB"/>
<path d="M85.6099 205.144H92.2198L91.5598 215.486L86.3199 214.913L85.6099 205.144Z" fill="#1C2B4F"/>
<path d="M79.1701 221.159H91.6101C91.9801 218.997 92.2101 216.987 91.6101 215.485L86.6101 214.545C81.4401 216.317 76.3801 218.122 79.1701 221.159Z" fill="#CED6DC"/>
<path d="M92.7701 221.159H105.22C105.58 218.997 105.82 216.987 105.22 215.485L100.22 214.545C95.0001 216.317 90.0001 218.122 92.7701 221.159Z" fill="#CED6DC"/>
<path d="M92.47 121.18L96.73 116.966V113.14H90.25L90.56 117.16L92.47 121.18Z" fill="#FBC8BA"/>
<path d="M87.0001 98.779L86.1001 108.948C87.8501 115.431 91.1701 118.219 98.3401 112.06C99.0381 111.011 99.4156 109.753 99.4201 108.461C102.57 107.381 102.52 103.566 99.2401 104.139L98.9301 101.978L99.2401 100.573C98.815 100.26 98.4604 99.8482 98.2024 99.3675C97.9445 98.8868 97.7899 98.3496 97.7501 97.7956L92.4001 96.4448C89.9401 96.5961 87.7401 97.0067 87.0001 98.779Z" fill="#FBC8BA"/>
<path d="M86.46 107.046C86.86 103.923 87.21 99.7514 88.03 98.4006C90.72 96.5636 93.81 96.7473 97.12 98.0332C98.204 99.9071 98.8873 102.019 99.1199 104.214C102.12 104.593 102.18 107.164 99.6899 108.72L98.3599 111.962L105.18 112.103C107.74 104.041 105.64 96.7041 100.65 93.9161C100.397 93.6263 100.127 93.3556 99.8399 93.1057C94.8399 89.2803 88.32 87.7891 84.45 95.0832C82.6422 99.0047 81.5426 103.263 81.21 107.629L86.46 107.046Z" fill="#1C2B4F"/>
<defs>
<linearGradient id="paint0_linear_166_254" x1="42.5002" y1="39.2695" x2="76.7302" y2="39.2695" gradientUnits="userSpaceOnUse">
<stop stop-color="#0086CD"/>
<stop offset="0.14" stop-color="#0280C4"/>
<stop offset="0.37" stop-color="#076FAD"/>
<stop offset="0.65" stop-color="#105387"/>
<stop offset="0.98" stop-color="#1B2D52"/>
<stop offset="1" stop-color="#1C2B4F"/>
</linearGradient>
</defs>
</svg>
