<svg width="790" height="790" viewBox="0 0 790 790" fill="none" xmlns="http://www.w3.org/2000/svg">
<path d="M437.68 639.916L436.176 641.053C436.176 641.053 -48.3223 628.653 191.755 316.588C246.786 245.055 208.721 77.172 339.952 165.241C453.689 241.569 562.347 195.23 692.587 326.327C748.249 382.354 757.142 398.512 718.523 454.811C617.267 602.42 549.895 643.1 437.68 639.916Z" fill="#2B3A65"/>
<path d="M565.785 368.232C572.724 368.232 578.35 362.594 578.35 355.638C578.35 348.682 572.724 343.043 565.785 343.043C558.846 343.043 553.22 348.682 553.22 355.638C553.22 362.594 558.846 368.232 565.785 368.232Z" fill="#FD6584"/>
<path d="M593.906 349.674C593.551 348.509 592.865 347.474 591.931 346.696C590.997 345.917 589.856 345.429 588.649 345.292C588.621 345.29 588.593 345.29 588.565 345.292C588.531 345.282 588.496 345.274 588.461 345.269C584.254 344.721 579.577 346.052 576.429 348.948C575.26 350.006 574.325 351.298 573.685 352.74C573.102 351.941 572.332 351.297 571.444 350.863C570.556 350.429 569.576 350.218 568.589 350.25C567.315 350.334 566.099 350.81 565.105 351.613C564.111 352.415 563.389 353.506 563.036 354.735C562.997 354.885 563.008 355.044 563.066 355.188C563.125 355.331 563.228 355.452 563.361 355.532C563.739 355.857 564.189 356.086 564.674 356.202C565.714 356.424 566.763 356.627 567.812 356.811C569.864 357.169 571.927 357.46 574 357.683C575.37 357.83 576.742 357.946 578.118 358.032C580.96 358.212 583.817 358.254 586.664 358.164C588.075 358.117 589.431 358.07 590.72 357.447C591.66 356.984 592.462 356.284 593.049 355.415C593.602 354.579 593.965 353.631 594.113 352.64C594.261 351.648 594.19 350.636 593.906 349.674V349.674Z" fill="#E6E6E6"/>
<path d="M568.057 368.023C568.033 367.495 567.945 366.972 567.794 366.466C567.438 365.302 566.75 364.267 565.816 363.488C564.881 362.71 563.74 362.222 562.533 362.084C562.506 362.082 562.479 362.082 562.453 362.084C562.417 362.074 562.381 362.066 562.344 362.061C560.016 361.775 557.653 362.018 555.432 362.773C552.015 363.919 549.018 366.23 547.573 369.532C546.989 368.732 546.219 368.088 545.33 367.654C544.441 367.22 543.46 367.01 542.472 367.041C541.199 367.126 539.982 367.602 538.988 368.405C537.995 369.207 537.272 370.298 536.919 371.527C536.883 371.677 536.894 371.835 536.953 371.979C537.011 372.122 537.113 372.243 537.244 372.324C537.623 372.648 538.073 372.877 538.557 372.994C539.602 373.216 540.646 373.419 541.7 373.603C543.752 373.961 545.813 374.252 547.884 374.475C552.09 374.928 556.323 375.089 560.552 374.956C561.959 374.909 563.319 374.862 564.608 374.239C565.546 373.776 566.347 373.075 566.933 372.206C567.757 370.974 568.153 369.503 568.057 368.023Z" fill="#E6E6E6"/>
<path d="M661.083 526.961H649.63V347.734C648.858 347.163 648.081 346.597 647.296 346.045C647.14 345.937 646.985 345.828 646.83 345.72C637.771 339.369 627.971 334.151 617.649 330.183L615.428 360.889L615.428 360.891H601.137V325.037C600.205 324.805 599.274 324.588 598.332 324.386V360.891H544.367V323.438C543.43 323.612 542.494 323.791 541.562 323.985V360.891H526.801L526.8 360.889L524.471 328.687C514.426 332.178 504.826 336.842 495.87 342.583C495.559 342.781 495.248 342.979 494.938 343.187C494.312 343.593 493.686 344.008 493.07 344.428V526.961H476.943C474.88 526.959 472.848 527.465 471.025 528.434C469.202 529.404 467.645 530.806 466.488 532.519C465.332 534.232 464.613 536.203 464.394 538.259C464.174 540.316 464.462 542.395 465.23 544.314C465.461 544.894 465.736 545.456 466.054 545.993C466.464 546.694 466.94 547.354 467.475 547.965C468.657 549.315 470.113 550.397 471.746 551.138C473.379 551.879 475.151 552.262 476.943 552.262H661.083C664.431 552.262 667.641 550.929 670.008 548.557C672.375 546.184 673.704 542.966 673.704 539.611C673.704 536.256 672.375 533.038 670.008 530.666C667.641 528.293 664.431 526.961 661.083 526.961L661.083 526.961ZM612.351 403.521L603.443 526.961H538.786L529.878 403.521H612.351ZM615.226 363.702L613.028 394.152H601.137V363.702H615.226ZM598.332 363.702V394.152H576.859C576.429 393.306 575.774 392.596 574.967 392.1C574.159 391.604 573.231 391.342 572.284 391.341H569.48C568.533 391.342 567.604 391.604 566.797 392.1C565.989 392.596 565.334 393.306 564.904 394.152H544.367V363.702H598.332ZM541.562 394.152H529.2L527.003 363.702H541.562V394.152Z" fill="#F2F2F2"/>
<path d="M465.437 547.36C469.525 552.215 473.946 556.778 478.669 561.015L657.29 561.487C662.013 557.25 666.434 552.687 670.522 547.832L465.437 547.36Z" fill="#3F3D56"/>
<path d="M555.641 501.696V550.072H589.451V501.696C589.452 501.348 589.341 501.009 589.135 500.729C588.93 500.448 588.64 500.242 588.308 500.139C588.152 500.087 587.988 500.062 587.823 500.064H557.274C557.059 500.063 556.847 500.105 556.649 500.187C556.451 500.269 556.271 500.389 556.12 500.54C555.968 500.692 555.848 500.872 555.765 501.07C555.683 501.268 555.641 501.481 555.641 501.696V501.696ZM568.836 518.318C568.845 517.364 569.229 516.453 569.905 515.782C570.58 515.11 571.493 514.734 572.445 514.734C573.396 514.734 574.309 515.11 574.985 515.782C575.661 516.453 576.045 517.364 576.054 518.318V523.931C576.049 524.887 575.667 525.803 574.991 526.477C574.314 527.152 573.399 527.53 572.445 527.53C571.491 527.53 570.576 527.152 569.899 526.477C569.223 525.803 568.84 524.887 568.836 523.931V518.318Z" fill="#2F2E41"/>
<path d="M555.537 548.524V553.189C555.538 553.431 555.634 553.663 555.804 553.834C555.974 554.005 556.204 554.102 556.445 554.104H588.647C588.888 554.103 589.119 554.006 589.289 553.835C589.459 553.663 589.555 553.431 589.555 553.189V548.524H555.537Z" fill="#3F3D56"/>
<path d="M502.452 428.81V517.138C502.453 518.264 502.899 519.343 503.693 520.139C504.487 520.935 505.564 521.383 506.687 521.383H637.271C638.394 521.383 639.471 520.935 640.265 520.139C641.059 519.343 641.505 518.264 641.506 517.138V428.81C641.504 427.686 641.057 426.608 640.263 425.813C639.469 425.018 638.393 424.571 637.271 424.57H506.687C505.565 424.571 504.489 425.018 503.695 425.813C502.902 426.608 502.454 427.686 502.452 428.81V428.81Z" fill="#3F3D56"/>
<path d="M505.515 429.909V516.049C505.516 516.65 505.755 517.226 506.179 517.652C506.603 518.077 507.179 518.316 507.779 518.317H636.184C636.784 518.316 637.359 518.077 637.784 517.652C638.208 517.226 638.447 516.65 638.448 516.049V429.909C638.448 429.307 638.209 428.73 637.785 428.303C637.361 427.877 636.785 427.637 636.184 427.636H507.779C507.178 427.637 506.602 427.877 506.178 428.303C505.754 428.73 505.515 429.307 505.515 429.909Z" fill="#1C2A4F"/>
<path d="M531.697 555.204C531.828 555.368 531.994 555.5 532.183 555.591C532.372 555.682 532.58 555.728 532.789 555.727H609.182C609.391 555.727 609.597 555.68 609.786 555.59C609.974 555.5 610.141 555.368 610.272 555.206C610.404 555.043 610.498 554.853 610.547 554.65C610.596 554.446 610.599 554.234 610.556 554.029L609.37 548.383C609.321 548.153 609.215 547.939 609.063 547.76C608.91 547.581 608.715 547.443 608.495 547.359C608.336 547.297 608.167 547.265 607.996 547.265H533.97C533.8 547.265 533.63 547.297 533.471 547.359C533.252 547.443 533.057 547.581 532.904 547.76C532.751 547.938 532.645 548.153 532.596 548.383L531.41 554.029C531.368 554.234 531.372 554.446 531.422 554.649C531.471 554.852 531.566 555.041 531.697 555.204Z" fill="#2F2E41"/>
<path d="M533.971 548.445C533.948 548.445 533.925 548.449 533.903 548.457C533.865 548.47 533.832 548.491 533.805 548.52C533.778 548.55 533.759 548.585 533.749 548.623L532.562 554.272C532.556 554.305 532.557 554.339 532.565 554.371C532.573 554.403 532.589 554.433 532.61 554.459L532.615 554.465C532.636 554.492 532.662 554.514 532.693 554.528C532.723 554.542 532.756 554.549 532.79 554.548H609.183C609.216 554.549 609.249 554.541 609.279 554.527C609.31 554.513 609.336 554.492 609.357 554.466C609.379 554.441 609.395 554.41 609.404 554.378C609.413 554.345 609.414 554.311 609.407 554.278L608.22 548.626C608.211 548.589 608.194 548.555 608.169 548.526C608.144 548.497 608.112 548.475 608.077 548.461C608.052 548.451 608.024 548.445 607.997 548.445H533.971Z" fill="white"/>
<path d="M511.907 439.502H632.056C632.181 439.499 632.3 439.447 632.387 439.358C632.474 439.268 632.523 439.148 632.523 439.023C632.523 438.898 632.474 438.777 632.387 438.688C632.3 438.598 632.181 438.547 632.056 438.544H511.907C511.782 438.547 511.664 438.598 511.576 438.688C511.489 438.777 511.44 438.898 511.44 439.023C511.44 439.148 511.489 439.268 511.576 439.358C511.664 439.447 511.782 439.499 511.907 439.502Z" fill="#3F3D56"/>
<path d="M623.877 436.099C625.424 436.099 626.677 434.814 626.677 433.23C626.677 431.645 625.424 430.36 623.877 430.36C622.331 430.36 621.077 431.645 621.077 433.23C621.077 434.814 622.331 436.099 623.877 436.099Z" fill="#3F3D56"/>
<path d="M614.204 436.099C615.75 436.099 617.004 434.814 617.004 433.23C617.004 431.645 615.75 430.36 614.204 430.36C612.657 430.36 611.404 431.645 611.404 433.23C611.404 434.814 612.657 436.099 614.204 436.099Z" fill="#3F3D56"/>
<path d="M604.531 436.099C606.077 436.099 607.331 434.814 607.331 433.23C607.331 431.645 606.077 430.36 604.531 430.36C602.984 430.36 601.73 431.645 601.73 433.23C601.73 434.814 602.984 436.099 604.531 436.099Z" fill="#3F3D56"/>
<path d="M517.219 431.593C517.218 431.661 517.231 431.728 517.257 431.791C517.283 431.854 517.32 431.911 517.368 431.959C517.416 432.008 517.472 432.046 517.535 432.072C517.597 432.098 517.664 432.112 517.732 432.112H524.602C524.738 432.109 524.867 432.053 524.962 431.955C525.057 431.858 525.11 431.727 525.11 431.591C525.11 431.455 525.057 431.324 524.962 431.227C524.867 431.129 524.738 431.073 524.602 431.07H517.732C517.595 431.071 517.464 431.127 517.368 431.226C517.271 431.324 517.218 431.456 517.219 431.593V431.593Z" fill="#3F3D56"/>
<path d="M517.219 433.551C517.218 433.619 517.231 433.686 517.257 433.749C517.283 433.812 517.32 433.869 517.368 433.917C517.416 433.966 517.472 434.004 517.535 434.03C517.597 434.056 517.664 434.07 517.732 434.07H524.602C524.738 434.067 524.867 434.011 524.962 433.914C525.057 433.816 525.111 433.685 525.111 433.549C525.111 433.413 525.057 433.282 524.962 433.185C524.867 433.087 524.738 433.031 524.602 433.028H517.732C517.595 433.029 517.464 433.085 517.368 433.184C517.271 433.282 517.218 433.414 517.219 433.551V433.551Z" fill="#3F3D56"/>
<path d="M517.219 435.504C517.218 435.641 517.271 435.773 517.368 435.872C517.464 435.97 517.595 436.026 517.732 436.027H524.602C524.738 436.024 524.867 435.968 524.962 435.87C525.057 435.773 525.11 435.642 525.11 435.506C525.11 435.37 525.057 435.239 524.962 435.142C524.867 435.044 524.738 434.988 524.602 434.985H517.732C517.664 434.985 517.597 434.999 517.535 435.025C517.472 435.051 517.416 435.09 517.368 435.138C517.32 435.186 517.283 435.243 517.257 435.306C517.231 435.369 517.218 435.436 517.219 435.504Z" fill="#3F3D56"/>
<path d="M614.154 454.122H529.809C528.701 454.123 527.639 454.565 526.855 455.35C526.072 456.135 525.631 457.2 525.63 458.311V499.459C525.631 500.57 526.072 501.635 526.855 502.42C527.639 503.205 528.701 503.647 529.809 503.649H614.154C615.262 503.647 616.324 503.205 617.108 502.42C617.891 501.635 618.332 500.57 618.333 499.459V458.311C618.332 457.2 617.891 456.135 617.107 455.35C616.324 454.565 615.262 454.123 614.154 454.122ZM617.392 458.311V470.316H587.746V455.065H614.154C615.012 455.066 615.835 455.408 616.442 456.017C617.049 456.625 617.391 457.45 617.392 458.311H617.392ZM557.158 486.511V471.259H586.805V486.511H557.158ZM586.805 487.454V502.705H557.158V487.454H586.805ZM556.217 486.511H526.571V471.259H556.217V486.511ZM557.158 470.316V455.065H586.805V470.316H557.158ZM587.746 471.259H617.392V486.511H587.746V471.259ZM529.809 455.065H556.217V470.316H526.571V458.311C526.572 457.45 526.913 456.625 527.521 456.017C528.128 455.408 528.951 455.066 529.809 455.065V455.065ZM526.571 499.459V487.454H556.217V502.705H529.809C528.951 502.704 528.128 502.362 527.52 501.753C526.913 501.145 526.572 500.32 526.571 499.459V499.459ZM614.154 502.705H587.746V487.454H617.392V499.459C617.391 500.32 617.049 501.145 616.442 501.753C615.835 502.362 615.012 502.704 614.154 502.705H614.154Z" fill="#3F3D56"/>
<path d="M567.694 464.569C566.946 463.328 566.059 462.003 564.67 461.598C563.061 461.129 561.409 462.061 560.007 462.981C555.816 465.732 551.779 468.713 547.916 471.911L547.92 471.959L556.943 471.335C559.116 471.185 561.364 471.014 563.284 469.984C564.013 469.593 564.723 469.07 565.549 469.034C566.574 468.989 567.469 469.707 568.172 470.457C572.33 474.896 573.533 481.683 578.199 485.582C575.257 478.311 571.744 471.284 567.694 464.569V464.569Z" fill="white"/>
<path d="M593.254 502.214C592.795 501.632 592.607 501.496 592.153 500.909C588.46 496.121 584.989 491.171 581.739 486.06C579.532 482.588 577.434 479.05 575.446 475.445C574.499 473.731 573.579 472.004 572.684 470.264C571.99 468.914 571.311 467.556 570.648 466.19C570.458 465.8 570.274 465.408 570.09 465.016C569.658 464.092 569.234 463.164 568.779 462.253C568.308 461.159 567.588 460.191 566.675 459.428C566.242 459.097 565.723 458.897 565.18 458.851C564.416 458.855 563.667 459.07 563.016 459.472C558.089 462.069 553.489 465.248 549.317 468.942C545.138 472.62 541.403 476.777 538.187 481.325C538.089 481.466 537.856 481.332 537.955 481.19C538.346 480.636 538.745 480.088 539.152 479.545C544.206 472.807 550.403 467.013 557.46 462.427C558.647 461.656 559.857 460.921 561.089 460.222C561.71 459.87 562.333 459.522 562.968 459.195C563.576 458.838 564.257 458.626 564.96 458.577C567.378 458.539 568.629 461.283 569.489 463.13C569.759 463.711 570.033 464.29 570.31 464.868C571.355 467.06 572.442 469.233 573.568 471.385C574.263 472.714 574.973 474.036 575.699 475.349C577.957 479.44 580.357 483.447 582.899 487.372C586.267 492.57 589.608 497.163 593.444 502.024C593.55 502.159 593.361 502.351 593.254 502.214Z" fill="white"/>
<path d="M549.078 467.587C548.937 467.43 548.798 467.273 548.656 467.116C547.542 465.88 546.345 464.659 544.815 463.95C544.085 463.602 543.288 463.416 542.479 463.408C541.645 463.43 540.823 463.61 540.055 463.938C539.69 464.084 539.333 464.25 538.981 464.426C538.58 464.629 538.185 464.845 537.792 465.063C537.055 465.472 536.327 465.899 535.609 466.344C534.18 467.229 532.796 468.181 531.457 469.202C530.763 469.731 530.083 470.277 529.417 470.841C528.798 471.365 528.191 471.903 527.597 472.454C527.47 472.572 527.281 472.382 527.408 472.264C527.564 472.118 527.723 471.973 527.881 471.829C528.328 471.424 528.783 471.026 529.245 470.637C530.086 469.925 530.95 469.24 531.836 468.583C533.212 467.561 534.637 466.608 536.108 465.724C536.844 465.283 537.589 464.86 538.345 464.456C538.573 464.334 538.804 464.215 539.038 464.102C539.568 463.834 540.118 463.609 540.684 463.43C541.485 463.17 542.334 463.087 543.17 463.185C543.978 463.303 544.756 463.573 545.464 463.981C546.967 464.823 548.133 466.125 549.267 467.396C549.382 467.525 549.193 467.716 549.078 467.587Z" fill="white"/>
<path d="M579.875 480.393L583.477 479.072L585.265 478.417C585.843 478.184 586.432 477.98 587.03 477.807C587.554 477.657 588.109 477.665 588.628 477.828C589.091 477.999 589.515 478.263 589.875 478.602C590.242 478.941 590.584 479.307 590.897 479.696C591.286 480.165 591.67 480.639 592.055 481.112C593.646 483.061 595.225 485.019 596.795 486.985C598.364 488.951 599.923 490.926 601.471 492.909C603.024 494.897 604.565 496.893 606.096 498.897C606.284 499.143 606.471 499.389 606.658 499.635C606.762 499.77 606.995 499.636 606.89 499.499C605.348 497.474 603.795 495.458 602.231 493.45C600.664 491.437 599.085 489.433 597.496 487.437C595.907 485.441 594.307 483.454 592.697 481.476C592.296 480.983 591.894 480.49 591.491 479.999C591.151 479.584 590.816 479.164 590.443 478.778C590.126 478.395 589.737 478.079 589.297 477.847C588.858 477.615 588.377 477.472 587.883 477.426C587.284 477.447 586.694 477.577 586.141 477.81C585.539 478.028 584.939 478.251 584.337 478.471L580.71 479.801L579.804 480.133C579.643 480.192 579.712 480.452 579.875 480.393V480.393Z" fill="white"/>
<path d="M544.341 465.505C543.416 465.048 542.385 464.846 541.356 464.92C540.327 464.993 539.336 465.34 538.485 465.925C541.693 466.48 544.866 467.222 547.988 468.148C546.691 467.386 545.677 466.193 544.341 465.505Z" fill="white"/>
<path d="M538.467 465.921L538.115 466.209C538.234 466.108 538.358 466.014 538.485 465.925L538.467 465.921Z" fill="white"/>
<path d="M589.739 480.406C589.424 479.94 588.985 479.572 588.471 479.345L587.976 479.364C591.745 486.04 596.835 491.873 602.934 496.505L589.739 480.406Z" fill="white"/>
<path d="M587.423 473.097C588.998 473.097 590.274 471.817 590.274 470.239C590.274 468.66 588.998 467.381 587.423 467.381C585.848 467.381 584.572 468.66 584.572 470.239C584.572 471.817 585.848 473.097 587.423 473.097Z" fill="white"/>
<path d="M628.798 501.998C629.36 501.997 629.898 501.773 630.295 501.375C630.692 500.977 630.915 500.438 630.916 499.875V456.008C630.916 455.445 630.693 454.905 630.296 454.507C629.898 454.109 629.36 453.886 628.798 453.886C628.237 453.886 627.698 454.109 627.301 454.507C626.904 454.905 626.681 455.445 626.681 456.008V499.875C626.682 500.438 626.905 500.977 627.302 501.375C627.699 501.773 628.237 501.997 628.798 501.998V501.998Z" fill="#3F3D56"/>
<path d="M628.798 501.998C629.36 501.997 629.898 501.773 630.295 501.375C630.692 500.977 630.915 500.438 630.916 499.875V490.574C630.672 490.24 630.353 489.969 629.985 489.782C629.617 489.595 629.211 489.498 628.798 489.498C628.386 489.498 627.979 489.595 627.611 489.782C627.243 489.969 626.925 490.24 626.681 490.574V499.875C626.682 500.438 626.905 500.977 627.302 501.375C627.699 501.773 628.237 501.997 628.798 501.998V501.998Z" fill="#2F2E41"/>
<path d="M628.798 493.035C629.402 493.034 629.981 492.794 630.408 492.366C630.835 491.938 631.075 491.358 631.076 490.753V480.749C630.813 480.39 630.471 480.099 630.075 479.898C629.679 479.697 629.242 479.592 628.798 479.592C628.355 479.592 627.918 479.697 627.522 479.898C627.126 480.099 626.783 480.39 626.521 480.749V490.753C626.522 491.358 626.762 491.938 627.189 492.366C627.616 492.794 628.195 493.034 628.798 493.035V493.035Z" fill="#6C63FF"/>
<path d="M628.798 491.216C629.238 491.216 629.66 491.04 629.972 490.728C630.283 490.416 630.458 489.993 630.459 489.551V482.255C630.268 481.993 630.017 481.781 629.729 481.634C629.44 481.488 629.121 481.411 628.798 481.411C628.474 481.411 628.155 481.488 627.867 481.634C627.578 481.781 627.328 481.993 627.137 482.255V489.551C627.137 489.993 627.313 490.416 627.624 490.728C627.935 491.04 628.357 491.216 628.798 491.216V491.216Z" fill="#3F3D56"/>
<path d="M563.471 551.279C563.099 550.945 562.875 550.477 562.847 549.978C562.819 549.478 562.99 548.988 563.322 548.615L581.823 527.864C581.987 527.68 582.187 527.529 582.41 527.422C582.632 527.314 582.874 527.252 583.121 527.238C583.368 527.224 583.615 527.259 583.848 527.341C584.081 527.423 584.296 527.55 584.481 527.715C584.665 527.88 584.815 528.08 584.922 528.303C585.029 528.526 585.092 528.769 585.106 529.016C585.119 529.263 585.085 529.511 585.003 529.745C584.921 529.979 584.794 530.194 584.63 530.379L566.129 551.129C565.796 551.502 565.329 551.727 564.831 551.755C564.332 551.783 563.843 551.612 563.471 551.279Z" fill="#6C63FF"/>
<path d="M716.95 585.444C716.95 588.882 716.14 591.514 716.239 593.618C710.689 596.046 704.982 598.098 699.157 599.759C698.498 599.948 697.84 600.127 697.176 600.307C693.586 589.288 689.99 579.199 688.574 578.128C685.332 575.689 683.708 585.779 683.708 583.34C683.708 580.901 685.332 580.901 681.28 577.652C677.224 574.402 679.657 559.775 679.657 559.775L673.981 545.148L680.329 521.818L688.574 491.512H696.682C696.682 491.512 696.922 491.687 697.322 492.012C699.35 493.673 705.468 499.22 704.79 505.328C704.588 507.149 705.039 512.441 705.825 519.488C708.216 540.766 713.707 563.897 713.707 570.001C713.707 578.128 716.95 580.567 716.95 585.444Z" fill="#E6E6E6"/>
<path d="M710.151 519.408C710.142 519.384 710.137 519.365 710.127 519.346C709.946 518.856 709.734 518.377 709.492 517.912C708.123 515.332 709.572 511.37 708.029 506.993C705.535 499.899 702.495 495.715 698.038 491.965C697.907 491.852 697.775 491.743 697.638 491.63L697.634 491.625C694.66 489.177 691.074 486.89 686.622 484.041C685.695 483.446 684.726 482.828 683.719 482.177C682.42 481.343 682.491 478.56 682.566 475.616C682.651 472.348 682.74 468.961 681.14 466.848L681.037 466.711L680.872 466.668C675.386 465.581 669.791 465.149 664.204 465.381H664.199C661.827 465.469 659.471 465.815 657.174 466.414C657.004 466.461 656.835 466.508 656.67 466.565C656.543 466.598 656.416 466.64 656.289 466.683L656.185 466.72L656.106 466.796C654.557 468.348 654.2 471.131 654.03 474.031V474.036C653.997 474.564 653.969 475.093 653.946 475.621C653.814 478.442 653.691 481.107 652.656 482.262C650.347 484.885 647.556 487.037 644.435 488.602C639.574 491.007 635.73 490.932 635.673 490.932L635.226 490.918L635.184 491.361C631.956 497.526 632.078 513.431 631.979 530.464C631.974 531.412 631.968 532.365 631.96 533.322C631.904 541.256 631.753 549.327 631.16 556.68C630.902 559.841 630.567 562.864 630.12 565.689C627.946 579.449 618.097 568.024 613.387 577.18C613.542 578.08 613.802 578.959 614.163 579.798C614.704 580.118 615.26 580.43 615.81 580.741C618.252 582.104 620.74 583.376 623.273 584.557C623.415 584.623 623.556 584.689 623.697 584.75C628.344 586.905 633.133 588.737 638.031 590.231C638.986 590.524 639.941 590.802 640.906 591.066C649.439 593.427 658.226 594.747 667.075 594.995C667.111 594.991 667.147 594.99 667.183 594.991C677.648 594.701 688.045 593.198 698.165 590.514C698.307 590.477 698.448 590.439 698.589 590.401C699.252 590.222 699.911 590.043 700.57 589.854C706.395 588.193 712.102 586.141 717.652 583.713C717.658 583.92 717.678 584.126 717.713 584.33C717.718 584.397 717.727 584.463 717.741 584.529C717.751 584.453 717.76 584.378 717.765 584.302C717.793 584.08 717.817 583.854 717.84 583.628C720.72 555.477 714.739 531.577 710.151 519.408Z" fill="#3F3D56"/>
<path d="M645.478 450.415C648.35 455.68 652.925 459.807 658.45 462.116C663.974 464.426 670.119 464.781 675.872 463.123C681.625 461.465 686.643 457.892 690.099 452.994C693.556 448.095 695.245 442.163 694.889 436.173C694.532 430.184 692.151 424.494 688.138 420.042C684.125 415.59 678.719 412.641 672.811 411.68C666.902 410.719 660.843 411.803 655.631 414.755C650.42 417.707 646.367 422.35 644.139 427.919C644.019 428.221 643.91 428.523 643.801 428.838C642.542 432.349 642.04 436.087 642.329 439.807C642.618 443.526 643.691 447.142 645.478 450.415V450.415Z" fill="#FFB6B6"/>
<path d="M641.691 428.838C642.825 425.658 642.331 427.314 643.476 424.147C642.728 426.952 643.91 428.523 643.802 428.838H675.169V410.56C665.98 406.909 656.995 403.803 651.568 410.56C646.732 410.56 642.095 412.486 638.675 415.914C635.255 419.341 633.334 423.99 633.334 428.838H641.691Z" fill="#2F2E41"/>
<path d="M652.81 479.645C652.834 479.307 652.87 478.956 652.919 478.618C653.256 476.128 654.1 473.734 654.957 471.365C655.861 468.814 656.778 466.251 657.694 463.701C656.514 468.331 656.874 473.22 658.719 477.626C664.014 473.492 660.673 464.039 667.595 464.039C684.238 464.039 701.363 450.512 701.363 433.819C701.363 417.137 694.223 404.662 677.581 404.662C660.926 404.662 647.419 412.301 647.094 428.983C667.595 433.819 648.939 477.953 652.81 479.645Z" fill="#2F2E41"/>
<path d="M699.283 431.262C709.94 431.262 718.579 422.602 718.579 411.92C718.579 401.238 709.94 392.579 699.283 392.579C688.627 392.579 679.988 401.238 679.988 411.92C679.988 422.602 688.627 431.262 699.283 431.262Z" fill="#2F2E41"/>
<path d="M729.364 522.842C729.299 523.837 729.241 524.897 729.19 526.021C728.193 547.195 729.054 575.699 722.329 591.166C720.824 591.991 719.302 592.78 717.765 593.533C717.704 593.562 717.647 593.59 717.595 593.618C717.181 593.821 716.767 594.019 716.353 594.208C716.338 594.221 716.32 594.231 716.301 594.236C711.754 596.39 707.068 598.235 702.274 599.76C701.685 599.948 701.092 600.128 700.499 600.307C700.372 600.345 700.245 600.382 700.118 600.42C691.087 603.097 681.749 604.602 672.336 604.896C671.846 604.911 671.366 604.92 670.9 604.929C670.736 604.934 670.576 604.939 670.416 604.939C669.889 604.944 669.366 604.948 668.839 604.948C667.776 604.948 666.717 604.933 665.663 604.901C656.814 604.652 648.027 603.333 639.494 600.972C638.53 600.708 637.574 600.43 636.619 600.137C631.721 598.642 626.932 596.811 622.285 594.656C622.144 594.595 622.003 594.529 621.862 594.463C619.33 593.283 616.842 592.012 614.399 590.647C613.848 590.335 613.293 590.024 612.752 589.703C612.39 588.865 612.13 587.986 611.975 587.086C610.907 581.939 610.05 585.411 609.439 574.704C608.879 564.888 608.521 555.044 608.389 549.417C608.347 547.917 608.333 546.714 608.328 545.893C608.827 542.318 616.845 538.261 628.539 534.408C629.645 534.044 630.789 533.681 631.96 533.323C635.123 532.346 638.501 531.389 642.031 530.464C651.019 528.106 660.999 525.941 670.905 524.153C675.794 523.276 680.665 522.488 685.394 521.818C693.69 520.639 701.54 519.823 708.255 519.488C708.899 519.455 709.53 519.427 710.151 519.408C710.819 519.38 711.473 519.361 712.113 519.347C721.788 519.134 728.395 520.144 729.364 522.842Z" fill="#2F2E41"/>
<path opacity="0.2" d="M729.365 522.842C729.299 523.837 729.241 524.897 729.19 526.021C721.859 518.106 642.878 553.464 609.439 574.704C608.879 564.888 608.521 555.044 608.389 549.417C608.347 547.917 608.333 546.714 608.328 545.893C608.827 542.318 616.846 538.261 628.539 534.408C629.645 534.044 630.789 533.681 631.96 533.323C635.123 532.346 638.501 531.389 642.031 530.464C651.019 528.106 661 525.941 670.905 524.153C675.794 523.276 680.665 522.488 685.394 521.818C693.69 520.639 701.54 519.823 708.255 519.488C708.899 519.455 709.53 519.427 710.151 519.408C710.819 519.38 711.473 519.361 712.113 519.347C721.788 519.134 728.395 520.144 729.365 522.842Z" fill="black"/>
<path d="M568.742 547.375C569.483 548.311 570.419 549.073 571.486 549.607C572.552 550.141 573.722 550.434 574.913 550.466C576.104 550.498 577.288 550.267 578.381 549.791C579.474 549.314 580.45 548.603 581.239 547.708L608.037 558.74L605.145 543.931L580.14 535.725C578.552 534.496 576.569 533.893 574.567 534.032C572.566 534.17 570.684 535.04 569.279 536.476C567.874 537.912 567.043 539.814 566.945 541.823C566.846 543.832 567.485 545.808 568.742 547.375V547.375Z" fill="#FFB6B6"/>
<path d="M657.886 485.706L657.739 485.691L642.112 486.828C640.128 486.972 638.197 487.538 636.448 488.488C634.699 489.437 633.171 490.749 631.966 492.335C631.406 493.07 630.921 493.86 630.519 494.692L630.515 494.695C629.168 497.458 628.762 500.588 629.359 503.604L636.716 540.727L619.014 539.115L612.552 540.222L604.927 537.138L589.279 537.405L588.917 538.607L585.634 549.514L585.376 550.371L609.27 565.463L616.197 563.351L619.461 565.864L619.617 565.868L626.089 565.996L653.687 566.538L661.231 553.142L662.409 551.042C671.171 531.368 673.333 517.634 672.647 508.172C672.287 503.173 671.134 499.373 669.738 496.509C665.422 487.659 658.19 485.781 657.886 485.706Z" fill="#3F3D56"/>
<path d="M701.724 429.091C698.065 428.267 694.672 426.53 691.861 424.041C689.05 421.552 686.911 418.393 685.643 414.855C684.511 411.563 684.083 407.949 682.183 405.02C685.078 401.035 687.399 396.662 689.079 392.029C689.729 390.236 691.252 386.98 688.671 385.993C686.614 385.207 684.278 387.104 683.059 388.601C682.132 389.736 681.468 391.061 681.114 392.483C680.693 390.623 680.273 388.762 679.852 386.901C679.799 386.722 679.679 386.571 679.517 386.479C679.355 386.387 679.164 386.361 678.984 386.407C675.539 386.995 673.04 390.193 672.606 393.562C672.369 395.296 672.762 397.057 673.714 398.524C674.821 400.212 676.442 401.422 677.984 402.68C679.625 404.018 681.015 405.442 681.897 407.398C682.813 409.431 683.226 411.656 683.834 413.791C684.988 417.891 687.224 421.603 690.307 424.536C693.389 427.469 697.204 429.514 701.349 430.456C702.234 430.65 702.612 429.286 701.724 429.091ZM682.267 395.264C682.156 393.487 682.625 391.721 683.602 390.234C684.091 389.48 684.704 388.814 685.415 388.265C686.089 387.749 687.084 387.065 687.975 387.255C689.132 387.501 688.667 388.795 688.421 389.575C688.097 390.605 687.741 391.624 687.352 392.631C686.595 394.588 685.717 396.495 684.722 398.342C684.205 399.303 683.653 400.244 683.076 401.17C682.679 399.41 682.281 397.651 681.884 395.892C682.009 395.846 682.115 395.759 682.185 395.645C682.254 395.531 682.283 395.397 682.267 395.264V395.264ZM674.023 395.546C673.792 393.938 674.127 392.301 674.97 390.914C675.813 389.527 677.111 388.478 678.642 387.947C679.763 392.906 680.883 397.865 682.004 402.824C681.773 403.166 681.534 403.503 681.295 403.839C681.232 403.767 681.175 403.692 681.11 403.621C678.76 401.057 674.661 399.31 674.023 395.546V395.546Z" fill="#6C63FF"/>
</svg>
