<svg width="190" height="165" viewBox="0 0 190 165" fill="none" xmlns="http://www.w3.org/2000/svg">
<g clip-path="url(#clip0_343_162)">
<path d="M173.194 97.155L144.774 113.565L143.523 114.286L143.399 114.357L129.752 122.235V122.239H129.748L128.502 122.956H128.498L114.445 131.077L113.194 131.794L99.1367 139.912L97.886 140.632L95.0021 142.297L93.7513 141.58L16.8057 97.155L32.1295 88.309L81.8691 59.5922L95.0021 52.0127L173.194 97.155Z" fill="#1C2A4F"/>
<path d="M173.194 97.155L144.774 113.565L143.523 114.286L143.399 114.357L129.752 122.235V122.239H129.748L128.502 122.956H128.498L114.445 131.077L113.194 131.794L99.1367 139.912L97.886 140.632L95.0021 142.297L93.7513 141.58L16.8057 97.155L32.1295 88.309L81.8691 59.5922L95.0021 52.0127L173.194 97.155Z" fill="#4C84B5"/>
<path d="M143.252 113.554L129.561 121.556L128.036 120.671L126.845 119.986L115.803 113.61L114.624 112.933L106 107.954L119.774 100L128.398 104.979L129.637 105.696L140.619 112.036L141.87 112.757L143.252 113.554Z" fill="#F5F5F5"/>
<path d="M143.523 114.286L129.689 122.2L128.498 121.515L142.272 113.565L143.523 114.286Z" fill="#E0E0E0"/>
<path d="M131.29 107.224L117.456 115.138L116.277 114.461L130.051 106.507L131.29 107.224Z" fill="#E0E0E0"/>
<g opacity="0.1">
<path opacity="0.1" d="M137.97 91.9813L136.707 92.6544L122.933 100.608L88.1865 120.67L32.1294 88.3091L81.869 59.5923L137.97 91.9813Z" fill="black"/>
</g>
<g opacity="0.1">
<path opacity="0.1" d="M159.061 93.8452C160.256 94.5382 160.256 95.6654 159.061 96.3584C158.387 96.7003 157.642 96.8784 156.887 96.8784C156.131 96.8784 155.386 96.7003 154.712 96.3584C153.517 95.6654 153.517 94.5382 154.712 93.8452C155.386 93.5034 156.131 93.3252 156.887 93.3252C157.642 93.3252 158.387 93.5034 159.061 93.8452V93.8452Z" fill="black"/>
</g>
<g opacity="0.1">
<path opacity="0.1" d="M146.383 109.558C147.578 110.251 147.578 111.378 146.383 112.071C145.708 112.412 144.962 112.59 144.206 112.59C143.45 112.59 142.704 112.412 142.029 112.071C140.834 111.378 140.834 110.251 142.029 109.558C142.704 109.216 143.45 109.038 144.206 109.038C144.962 109.038 145.708 109.216 146.383 109.558V109.558Z" fill="black"/>
</g>
<g opacity="0.1">
<path opacity="0.1" d="M36.2324 99.1226C37.4274 99.8156 37.4274 100.943 36.2324 101.636C35.5576 101.977 34.8119 102.155 34.0555 102.155C33.2992 102.155 32.5535 101.977 31.8787 101.636C30.6837 100.943 30.6837 99.8156 31.8787 99.1226C32.5535 98.781 33.2992 98.603 34.0555 98.603C34.8119 98.603 35.5576 98.781 36.2324 99.1226V99.1226Z" fill="black"/>
</g>
<path d="M38.5781 58.2223V89.1416L88.2182 117.799V75.8148L48.146 52.5347L38.5781 58.2223Z" fill="#EBEBEB"/>
<path d="M135.074 48.7671V90.7509L118.531 100.298L104.757 108.252L88.2183 117.799V75.815L112.72 43.5176L135.074 48.7671Z" fill="#FAFAFA"/>
<path d="M118.531 70.4619V100.298L104.757 108.264V78.4158C104.807 75.9515 105.398 73.5284 106.49 71.3182C106.585 71.1191 106.681 70.92 106.784 70.7328C108.027 68.343 109.748 66.3516 111.644 65.2523C112.466 64.7411 113.409 64.4554 114.377 64.4238C116.822 64.4238 118.531 66.6861 118.531 70.4619Z" fill="#1C2A4F"/>
<path opacity="0.3" d="M118.531 70.4619V100.298L104.757 108.264V78.4158C104.807 75.9515 105.398 73.5284 106.49 71.3182C106.585 71.1191 106.681 70.92 106.784 70.7328C108.027 68.343 109.748 66.3516 111.644 65.2523C112.466 64.7411 113.409 64.4554 114.377 64.4238C116.822 64.4238 118.531 66.6861 118.531 70.4619Z" fill="black"/>
<path d="M117.304 69.5178L113.552 71.6805L112.453 72.3178L111.955 72.6045L111.305 72.9829L110.724 73.3175L110.09 73.6839L105.844 76.1334C106.072 74.6371 106.515 73.1816 107.159 71.8119C107.165 71.797 107.171 71.7824 107.179 71.7681C107.266 71.5809 107.354 71.3977 107.45 71.2225C107.455 71.2072 107.461 71.1925 107.469 71.1786C107.613 70.8959 107.768 70.625 107.924 70.3582C108.699 69.008 109.722 67.8161 110.939 66.8452C111.066 66.7536 111.194 66.662 111.337 66.5784C111.481 66.4947 111.516 66.4589 111.604 66.4031L111.775 66.3036C111.844 66.2613 111.914 66.2228 111.986 66.1881C113.349 65.4592 114.592 65.4154 115.571 65.9252C115.7 65.9889 115.822 66.0635 115.938 66.1482C115.996 66.1881 116.056 66.2319 116.117 66.2797L116.161 66.3235C116.248 66.4222 116.328 66.5274 116.4 66.6381V66.6381C116.934 67.5089 117.245 68.4981 117.304 69.5178V69.5178Z" fill="#FAFAFA"/>
<path d="M117.739 69.9359L113.022 72.6642L111.329 73.644L111.282 73.6719L110.652 74.0343L105.789 76.8224C105.808 76.5874 105.836 76.3484 105.868 76.1134L110.114 73.6639L110.748 73.2975L111.329 72.9629L111.979 72.5845L112.477 72.2978L113.576 71.6605L117.328 69.4978C117.265 68.4723 116.947 67.4786 116.404 66.6062V66.6062C116.332 66.4954 116.253 66.3903 116.165 66.2915L116.145 66.2637C116.25 66.3503 116.35 66.4434 116.444 66.5425V66.5425C117.137 67.3112 117.603 68.4582 117.739 69.9359Z" fill="#BA68C8"/>
<path opacity="0.6" d="M117.739 69.9359L113.022 72.6642L111.329 73.644L111.282 73.6719L110.652 74.0343L105.789 76.8224C105.808 76.5874 105.836 76.3484 105.868 76.1134L110.114 73.6639L110.748 73.2975L111.329 72.9629L111.979 72.5845L112.477 72.2978L113.576 71.6605L117.328 69.4978C117.265 68.4723 116.947 67.4786 116.404 66.6062V66.6062C116.332 66.4954 116.253 66.3903 116.165 66.2915L116.145 66.2637C116.25 66.3503 116.35 66.4434 116.444 66.5425V66.5425C117.137 67.3112 117.603 68.4582 117.739 69.9359Z" fill="black"/>
<path d="M110.892 73.477L110.306 73.8155L110.262 73.8394L110.059 73.708L109.724 73.4889L107.159 71.8121C107.165 71.7972 107.172 71.7826 107.179 71.7683C107.267 71.5811 107.354 71.3979 107.45 71.2227L110.358 73.1384L110.692 73.3575L110.892 73.477Z" fill="white"/>
<path opacity="0.6" d="M110.892 73.477L110.306 73.8155L110.262 73.8394L110.059 73.708L109.724 73.4889L107.159 71.8121C107.165 71.7972 107.172 71.7826 107.179 71.7683C107.267 71.5811 107.354 71.3979 107.45 71.2227L110.358 73.1384L110.692 73.3575L110.892 73.477Z" fill="black"/>
<path d="M116.11 66.2635L116.054 66.3671L116.014 66.4308L113.186 71.4851L112.843 72.1025L112.64 72.4689L112.266 72.684L111.971 72.8552L111.322 73.2296L110.923 73.4487V66.8291C111.051 66.7375 111.178 66.6459 111.322 66.5622C111.465 66.4786 111.501 66.4427 111.589 66.387V73.0066L111.74 72.7318L111.971 72.3335L112.086 72.1303L115.564 65.917C115.692 65.9807 115.815 66.0553 115.93 66.14C115.989 66.1746 116.049 66.2157 116.11 66.2635Z" fill="white"/>
<path opacity="0.6" d="M116.11 66.2635L116.054 66.3671L116.014 66.4308L113.186 71.4851L112.843 72.1025L112.64 72.4689L112.266 72.684L111.971 72.8552L111.322 73.2296L110.923 73.4487V66.8291C111.051 66.7375 111.178 66.6459 111.322 66.5622C111.465 66.4786 111.501 66.4427 111.589 66.387V73.0066L111.74 72.7318L111.971 72.3335L112.086 72.1303L115.564 65.917C115.692 65.9807 115.815 66.0553 115.93 66.14C115.989 66.1746 116.049 66.2157 116.11 66.2635Z" fill="black"/>
<path d="M111.274 73.6717L110.645 74.0341L110.306 73.8151L110.107 73.6836L107.179 71.7519C107.267 71.5647 107.354 71.3815 107.45 71.2063L107.271 71.0868C107.277 71.0718 107.283 71.0572 107.291 71.043L107.47 71.1625L110.74 73.3172L110.939 73.4486L111.274 73.6717Z" fill="white"/>
<path d="M116.332 66.463L116.153 66.3077C116.149 66.2969 116.142 66.2873 116.133 66.2798C116.201 66.3355 116.265 66.3993 116.332 66.463Z" fill="#455A64"/>
<path d="M116.432 66.5585L116.392 66.6222L113.568 71.6805L113.022 72.6643L111.33 73.6441V66.5625C111.417 66.4988 111.509 66.443 111.596 66.3872L111.768 66.2877C111.836 66.2454 111.906 66.2069 111.979 66.1721V73.206L112.274 72.6842L112.477 72.3178L115.938 66.1323C115.997 66.1722 116.056 66.216 116.118 66.2638L116.161 66.3076L116.141 66.2797C116.244 66.3665 116.341 66.4597 116.432 66.5585V66.5585Z" fill="white"/>
<path opacity="0.3" d="M116.432 66.5585L116.392 66.6222L113.568 71.6805L113.022 72.6643L111.33 73.6441V66.5625C111.417 66.4988 111.509 66.443 111.596 66.3872L111.768 66.2877C111.836 66.2454 111.906 66.2069 111.979 66.1721V73.206L112.274 72.6842L112.477 72.3178L115.938 66.1323C115.997 66.1722 116.056 66.216 116.118 66.2638L116.161 66.3076L116.141 66.2797C116.244 66.3665 116.341 66.4597 116.432 66.5585V66.5585Z" fill="black"/>
<path opacity="0.3" d="M111.274 73.6717L110.645 74.0341L110.306 73.8151L110.107 73.6836L107.179 71.7519C107.267 71.5647 107.354 71.3815 107.45 71.2063L107.271 71.0868C107.277 71.0718 107.283 71.0572 107.291 71.043L107.47 71.1625L110.74 73.3172L110.939 73.4486L111.274 73.6717Z" fill="black"/>
<path d="M106.657 90.2171C106.639 90.2211 106.62 90.2211 106.602 90.2171C106.586 90.2073 106.573 90.1938 106.564 90.1778C106.555 90.1618 106.55 90.1439 106.55 90.1255V79.7022C106.549 79.6837 106.554 79.6655 106.563 79.6494C106.572 79.6333 106.586 79.6199 106.602 79.6106L110.943 77.1054C110.96 77.0955 110.978 77.0903 110.997 77.0903C111.016 77.0903 111.035 77.0955 111.051 77.1054C111.067 77.1146 111.08 77.128 111.089 77.1441C111.098 77.1602 111.103 77.1785 111.103 77.197V87.6043C111.102 87.6227 111.097 87.6407 111.088 87.6566C111.079 87.6726 111.066 87.6861 111.051 87.6959L106.709 90.2012C106.693 90.21 106.676 90.2155 106.657 90.2171V90.2171ZM106.761 79.762V89.9264L110.892 87.5366V77.3882L106.761 79.762Z" fill="white"/>
<path d="M112.294 86.9708C112.275 86.9761 112.256 86.9761 112.238 86.9708C112.222 86.9619 112.208 86.9486 112.199 86.9324C112.19 86.9162 112.185 86.8978 112.186 86.8792V76.4559C112.187 76.4376 112.191 76.4196 112.201 76.4036C112.21 76.3877 112.222 76.3741 112.238 76.3643L116.58 73.8591C116.597 73.8512 116.615 73.8472 116.633 73.8472C116.652 73.8472 116.67 73.8512 116.687 73.8591C116.703 73.8689 116.716 73.8824 116.725 73.8984C116.734 73.9144 116.739 73.9323 116.739 73.9507V84.358C116.74 84.3766 116.735 84.395 116.726 84.4112C116.717 84.4274 116.704 84.4407 116.687 84.4496L112.345 86.9469C112.331 86.9604 112.313 86.9688 112.294 86.9708V86.9708ZM112.397 76.5197V86.6801L116.528 84.2903V74.1379L112.397 76.5197Z" fill="white"/>
<path d="M106.657 102.811C106.639 102.815 106.62 102.815 106.602 102.811C106.586 102.8 106.572 102.786 106.563 102.77C106.554 102.753 106.55 102.734 106.55 102.715V92.2998C106.549 92.2812 106.554 92.2627 106.563 92.2466C106.572 92.2304 106.585 92.2171 106.602 92.2081L110.943 89.6989C110.96 89.6911 110.979 89.687 110.997 89.687C111.016 89.687 111.034 89.6911 111.051 89.6989C111.067 89.7091 111.08 89.7232 111.089 89.74C111.098 89.7567 111.103 89.7755 111.103 89.7945V100.198C111.103 100.217 111.098 100.236 111.089 100.252C111.08 100.269 111.067 100.283 111.051 100.293L106.709 102.799C106.693 102.806 106.675 102.81 106.657 102.811ZM106.761 92.3595V102.52L110.892 100.13V89.9777L106.761 92.3595Z" fill="white"/>
<path d="M112.294 99.5687C112.275 99.5722 112.256 99.5722 112.238 99.5687C112.222 99.5594 112.209 99.5461 112.199 99.53C112.19 99.5138 112.186 99.4956 112.186 99.4771V89.0538C112.186 89.0355 112.191 89.0175 112.2 89.0015C112.209 88.9855 112.222 88.972 112.238 88.9622L116.58 86.4569C116.596 86.4471 116.614 86.4419 116.633 86.4419C116.652 86.4419 116.671 86.4471 116.687 86.4569C116.703 86.4662 116.716 86.4796 116.726 86.4957C116.735 86.5118 116.739 86.5301 116.739 86.5486V96.9559C116.739 96.9743 116.734 96.9922 116.725 97.0082C116.716 97.0242 116.703 97.0377 116.687 97.0475L112.345 99.5528C112.329 99.5616 112.312 99.567 112.294 99.5687V99.5687ZM112.397 89.1175V99.2939L116.528 96.9041V86.7318L112.397 89.1175Z" fill="white"/>
<path d="M116.309 87.4211C116.234 87.4239 116.16 87.4055 116.095 87.3682C116.03 87.3309 115.977 87.276 115.942 87.21C115.914 87.1617 115.895 87.1083 115.888 87.0528C115.88 86.9973 115.884 86.9408 115.898 86.8867C115.913 86.8326 115.938 86.7819 115.972 86.7375C116.006 86.6932 116.049 86.6561 116.098 86.6285L117.48 85.8319L117.121 85.6248C117.024 85.5683 116.953 85.4755 116.925 85.3668C116.896 85.2581 116.911 85.1425 116.968 85.0453C117.024 84.9481 117.117 84.8773 117.226 84.8486C117.335 84.8198 117.45 84.8354 117.548 84.8919L118.543 85.4655C118.608 85.503 118.661 85.5567 118.699 85.6214C118.736 85.686 118.755 85.7593 118.755 85.8339C118.755 85.9085 118.736 85.9818 118.699 86.0464C118.661 86.1111 118.608 86.1648 118.543 86.2023L116.508 87.3653C116.447 87.4001 116.379 87.4193 116.309 87.4211V87.4211Z" fill="#263238"/>
<path d="M135.074 87.6638L132.374 89.2331V86.1503L135.074 84.5811V87.6638Z" fill="#E0E0E0"/>
<path d="M135.074 81.4945L132.374 83.0637V79.977L135.074 78.4077V81.4945Z" fill="#E0E0E0"/>
<path d="M135.074 75.325L132.374 76.8943V73.8076L135.074 72.2383V75.325Z" fill="#E0E0E0"/>
<path d="M135.074 69.1512L132.374 70.7205V67.6337L135.074 66.0645V69.1512Z" fill="#E0E0E0"/>
<path d="M135.074 62.9818L132.374 64.5471V61.4643L135.074 59.895V62.9818Z" fill="#E0E0E0"/>
<path d="M135.074 56.8084L132.374 58.3777V55.2909L135.074 53.7217V56.8084Z" fill="#E0E0E0"/>
<path d="M135.074 50.6385L132.374 52.2078V49.121L135.074 47.5518V50.6385Z" fill="#E0E0E0"/>
<path d="M90.9189 113.146L88.2183 114.716V111.629L90.9189 110.06V113.146Z" fill="#E0E0E0"/>
<path d="M90.9189 106.973L88.2183 108.542V105.455L90.9189 103.89V106.973Z" fill="#E0E0E0"/>
<path d="M90.9189 100.804L88.2183 102.373V99.2861L90.9189 97.7168V100.804Z" fill="#E0E0E0"/>
<path d="M90.9189 94.6301L88.2183 96.1994V93.1126L90.9189 91.5474V94.6301Z" fill="#E0E0E0"/>
<path d="M90.9189 88.4603L88.2183 90.0295V86.9428L90.9189 85.3735V88.4603Z" fill="#E0E0E0"/>
<path d="M90.9189 82.2869L88.2183 83.8561V80.7734L90.9189 79.2041V82.2869Z" fill="#E0E0E0"/>
<path d="M90.9189 76.1175L88.2183 77.6868V74.6L90.9189 73.0308V76.1175Z" fill="#E0E0E0"/>
<path d="M85.5215 110.06L88.2182 111.629V108.542L85.5215 106.973V110.06Z" fill="#E0E0E0"/>
<path d="M85.5215 116.229L88.2182 117.799V114.716L85.5215 113.146V116.229Z" fill="#E0E0E0"/>
<path d="M85.5215 103.89L88.2182 105.456V102.373L85.5215 100.804V103.89Z" fill="#E0E0E0"/>
<path d="M85.5215 97.7166L88.2182 99.2859V96.1991L85.5215 94.6299V97.7166Z" fill="#E0E0E0"/>
<path d="M85.5215 91.5472L88.2182 93.1125V90.0297L85.5215 88.4604V91.5472Z" fill="#E0E0E0"/>
<path d="M85.5215 85.3739L88.2182 86.9431V83.8564L85.5215 82.2871V85.3739Z" fill="#E0E0E0"/>
<path d="M85.5215 79.2044L88.2182 80.7737V77.6869L85.5215 76.1177V79.2044Z" fill="#E0E0E0"/>
<path d="M85.5215 73.0305L88.2182 74.5998V71.513L85.5215 69.9478V73.0305Z" fill="#E0E0E0"/>
<path d="M38.5781 82.972L41.2748 84.5413V81.4545L38.5781 79.8853V82.972Z" fill="#E0E0E0"/>
<path d="M38.5781 89.1414L41.2748 90.7106V87.6239L38.5781 86.0586V89.1414Z" fill="#E0E0E0"/>
<path d="M38.5781 76.7986L41.2748 78.3679V75.2851L38.5781 73.7158V76.7986Z" fill="#E0E0E0"/>
<path d="M38.5781 70.6287L41.2748 72.198V69.1113L38.5781 67.542V70.6287Z" fill="#E0E0E0"/>
<path d="M38.5781 64.4593L41.2748 66.0246V62.9418L38.5781 61.3726V64.4593Z" fill="#E0E0E0"/>
<path d="M58.7775 77.9656V91.854L49.5322 86.5169V72.6245L58.7775 77.9656Z" fill="#FAFAFA"/>
<path d="M50.0342 79.8056L58.7775 84.8519V77.9654L50.0342 72.9111V79.8056Z" fill="#000084"/>
<path opacity="0.6" d="M50.0342 79.8056L58.7775 84.8519V77.9654L50.0342 72.9111V79.8056Z" fill="white"/>
<path d="M50.2492 86.0947V80.2199L58.7775 85.1388V84.4259L50.2492 79.503V73.0387L49.5322 72.6245V86.5169L58.7775 91.854V91.0176L50.2492 86.0947Z" fill="#000084"/>
<path opacity="0.2" d="M50.2492 86.0947V80.2199L58.7775 85.1388V84.4259L50.2492 79.503V73.0387L49.5322 72.6245V86.5169L58.7775 91.854V91.0176L50.2492 86.0947Z" fill="#280089"/>
<path d="M77.2642 88.6398V102.528L68.0229 97.1951V83.3027L77.2642 88.6398Z" fill="#FAFAFA"/>
<path d="M68.521 90.4798L77.2644 95.5261V88.6397L68.521 83.5894V90.4798Z" fill="#0E0499"/>
<path opacity="0.6" d="M68.521 90.4798L77.2644 95.5261V88.6397L68.521 83.5894V90.4798Z" fill="white"/>
<path d="M68.74 96.7729V90.8942L77.2643 95.817V95.1041L68.74 90.1812V83.717L68.019 83.3027V97.1911L77.2643 102.528V101.696L68.74 96.7729Z" fill="#0E0499"/>
<path opacity="0.2" d="M68.74 96.7729V90.8942L77.2643 95.817V95.1041L68.74 90.1812V83.717L68.019 83.3027V97.1911L77.2643 102.528V101.696L68.74 96.7729Z" fill="#0008A0"/>
<path d="M120.89 72.6243V86.5127L130.135 81.1756V67.2832L120.89 72.6243Z" fill="#FAFAFA"/>
<path d="M129.633 74.4647L120.89 79.511V72.6245L129.633 67.5742V74.4647Z" fill="#18007F"/>
<path opacity="0.8" d="M129.633 74.4647L120.89 79.511V72.6245L129.633 67.5742V74.4647Z" fill="white"/>
<path d="M129.418 80.7573V67.7013L130.135 67.2871V81.1755L120.89 86.5126V85.6802L129.418 80.7573Z" fill="#18007F"/>
<path d="M120.89 79.0847V79.8016L129.964 74.5641V73.8472L120.89 79.0847Z" fill="#18007F"/>
<path d="M93.1616 88.6398V102.528L102.403 97.1951V83.3027L93.1616 88.6398Z" fill="#FAFAFA"/>
<path d="M101.901 90.4798L93.1616 95.5261V88.6397L101.901 83.5894V90.4798Z" fill="#18007F"/>
<path opacity="0.8" d="M101.901 90.4798L93.1616 95.5261V88.6397L101.901 83.5894V90.4798Z" fill="white"/>
<path d="M101.686 96.7729V83.717L102.403 83.3027V97.1911L93.1577 102.528V101.696L101.686 96.7729Z" fill="#18007F"/>
<path d="M93.1616 95.1042V95.8172L102.232 90.5796V89.8667L93.1616 95.1042Z" fill="#18007F"/>
<path d="M79.1084 86.5129L83.5339 83.4142L112.293 46.5205L138.241 52.3634L141.324 50.591L112.038 43.7563L79.1084 86.5129Z" fill="#455A64"/>
<path d="M112.039 43.7561L65.3063 17.4888L32.6113 59.6718L79.1085 86.5127L112.039 43.7561Z" fill="#A1D7F4"/>
<path d="M112.038 43.7561L141.324 50.5908L94.4919 24.3274L65.3062 17.4888L112.038 43.7561Z" fill="#5193CF"/>
<path d="M34.1251 100.887C33.9561 100.887 33.794 100.82 33.6745 100.701C33.5549 100.581 33.4878 100.419 33.4878 100.25V74.0425C33.4878 73.8735 33.5549 73.7114 33.6745 73.5919C33.794 73.4724 33.9561 73.4053 34.1251 73.4053C34.2942 73.4053 34.4563 73.4724 34.5758 73.5919C34.6953 73.7114 34.7625 73.8735 34.7625 74.0425V100.25C34.7625 100.334 34.746 100.417 34.7139 100.494C34.6819 100.571 34.635 100.642 34.5758 100.701C34.5166 100.76 34.4463 100.807 34.369 100.839C34.2917 100.871 34.2088 100.887 34.1251 100.887Z" fill="#37474F"/>
<path d="M34.1251 83.6493C34.0499 83.6493 33.976 83.6294 33.9109 83.5917C33.8458 83.5539 33.7919 83.4996 33.7547 83.4342L30.1259 77.0615C30.0709 76.9631 30.0568 76.847 30.0866 76.7382C30.1164 76.6295 30.1877 76.5367 30.2852 76.48C30.3335 76.4524 30.3869 76.4346 30.4421 76.4276C30.4974 76.4207 30.5535 76.4247 30.6071 76.4395C30.6608 76.4543 30.711 76.4796 30.7549 76.5139C30.7988 76.5482 30.8354 76.5908 30.8628 76.6394L34.4916 83.012C34.5199 83.06 34.5384 83.1131 34.5459 83.1683C34.5535 83.2235 34.5499 83.2797 34.5354 83.3335C34.5209 83.3873 34.4959 83.4376 34.4617 83.4816C34.4275 83.5256 34.3848 83.5623 34.3362 83.5895C34.2728 83.6288 34.1997 83.6495 34.1251 83.6493V83.6493Z" fill="#37474F"/>
<path d="M34.0536 85.3776C33.979 85.3778 33.9059 85.3571 33.8425 85.3178C33.794 85.2905 33.7513 85.2539 33.717 85.21C33.6827 85.1661 33.6575 85.1159 33.6426 85.0622C33.6278 85.0086 33.6238 84.9525 33.6307 84.8972C33.6377 84.842 33.6555 84.7887 33.6832 84.7403L38.5309 76.2328C38.5869 76.1346 38.6796 76.0626 38.7886 76.0327C38.8977 76.0029 39.0142 76.0175 39.1124 76.0735C39.2107 76.1295 39.2827 76.2222 39.3125 76.3313C39.3424 76.4403 39.3277 76.5568 39.2718 76.655L34.4241 85.1625C34.3871 85.2281 34.3333 85.2827 34.2682 85.3205C34.203 85.3583 34.1289 85.378 34.0536 85.3776V85.3776Z" fill="#37474F"/>
<path d="M41.4342 78.1405C46.5952 78.1405 50.7791 73.9571 50.7791 68.7966C50.7791 63.636 46.5952 59.4526 41.4342 59.4526C36.2732 59.4526 32.0894 63.636 32.0894 68.7966C32.0894 73.9571 36.2732 78.1405 41.4342 78.1405Z" fill="#031E5B"/>
<path opacity="0.3" d="M41.4342 78.1405C46.5952 78.1405 50.7791 73.9571 50.7791 68.7966C50.7791 63.636 46.5952 59.4526 41.4342 59.4526C36.2732 59.4526 32.0894 63.636 32.0894 68.7966C32.0894 73.9571 36.2732 78.1405 41.4342 78.1405Z" fill="#A1D7F4"/>
<path d="M39.4069 66.1519C39.4045 64.9109 39.65 63.682 40.1287 62.5371C40.6075 61.3922 41.3101 60.3544 42.1952 59.4845C41.9403 59.4646 41.6814 59.4526 41.3986 59.4526C39.8671 59.4601 38.361 59.8438 37.0126 60.5699C35.6643 61.296 34.5151 62.3424 33.6662 63.6169C32.8173 64.8914 32.2947 66.355 32.1443 67.8789C31.9939 69.4029 32.2204 70.9404 32.8038 72.3562C33.3873 73.772 34.3098 75.0228 35.4902 75.9984C36.6706 76.974 38.0727 77.6446 39.5731 77.9512C41.0736 78.2578 42.6264 78.1909 44.095 77.7565C45.5635 77.3221 46.9028 76.5334 47.9949 75.46C45.6561 75.2699 43.4744 74.2071 41.8833 72.4826C40.2922 70.7581 39.4082 68.4982 39.4069 66.1519V66.1519Z" fill="#031E5B"/>
<path opacity="0.4" d="M39.4069 66.1519C39.4045 64.9109 39.65 63.682 40.1287 62.5371C40.6075 61.3922 41.3101 60.3544 42.1952 59.4845C41.9403 59.4646 41.6814 59.4526 41.3986 59.4526C39.8671 59.4601 38.361 59.8438 37.0126 60.5699C35.6643 61.296 34.5151 62.3424 33.6662 63.6169C32.8173 64.8914 32.2947 66.355 32.1443 67.8789C31.9939 69.4029 32.2204 70.9404 32.8038 72.3562C33.3873 73.772 34.3098 75.0228 35.4902 75.9984C36.6706 76.974 38.0727 77.6446 39.5731 77.9512C41.0736 78.2578 42.6264 78.1909 44.095 77.7565C45.5635 77.3221 46.9028 76.5334 47.9949 75.46C45.6561 75.2699 43.4744 74.2071 41.8833 72.4826C40.2922 70.7581 39.4082 68.4982 39.4069 66.1519V66.1519Z" fill="#031E5B"/>
<path d="M30.9054 76.1811C33.5203 73.5664 33.5203 69.3272 30.9054 66.7125C28.2905 64.0978 24.0508 64.0978 21.4359 66.7125C18.821 69.3272 18.821 73.5664 21.4359 76.1811C24.0508 78.7957 28.2905 78.7957 30.9054 76.1811Z" fill="#031E5B"/>
<path opacity="0.3" d="M30.9054 76.1811C33.5203 73.5664 33.5203 69.3272 30.9054 66.7125C28.2905 64.0978 24.0508 64.0978 21.4359 66.7125C18.821 69.3272 18.821 73.5664 21.4359 76.1811C24.0508 78.7957 28.2905 78.7957 30.9054 76.1811Z" fill="#A1D7F4"/>
<path d="M26.8833 64.7859C25.9917 64.6888 25.0896 64.7721 24.2308 65.0307C23.372 65.2894 22.574 65.7181 21.8843 66.2914C21.8843 66.5782 21.8484 66.8649 21.8484 67.1597C21.845 70.0623 22.8985 72.867 24.812 75.0498C24.9441 75.1994 25.0307 75.3836 25.0617 75.5808C25.0926 75.7779 25.0666 75.9798 24.9866 76.1627C24.9067 76.3455 24.7762 76.5017 24.6105 76.6129C24.4448 76.7241 24.2507 76.7857 24.0512 76.7904H24.0273C23.19 76.7904 22.3602 76.6323 21.5815 76.3244C22.3568 77.0476 23.2927 77.5763 24.3123 77.8672C25.3318 78.1581 26.4059 78.2027 27.4461 77.9974C28.4863 77.7921 29.4628 77.3427 30.2954 76.6863C31.1279 76.0299 31.7927 75.1851 32.2349 74.2216C32.6772 73.2581 32.8843 72.2034 32.8392 71.1442C32.7942 70.085 32.4982 69.0517 31.9757 68.1292C31.4532 67.2068 30.719 66.4216 29.8337 65.8382C28.9484 65.2549 27.9372 64.8901 26.8833 64.7739V64.7859Z" fill="#2D06BC"/>
<path opacity="0.4" d="M26.8833 64.7859C25.9917 64.6888 25.0896 64.7721 24.2308 65.0307C23.372 65.2894 22.574 65.7181 21.8843 66.2914C21.8843 66.5782 21.8484 66.8649 21.8484 67.1597C21.845 70.0623 22.8985 72.867 24.812 75.0498C24.9441 75.1994 25.0307 75.3836 25.0617 75.5808C25.0926 75.7779 25.0666 75.9798 24.9866 76.1627C24.9067 76.3455 24.7762 76.5017 24.6105 76.6129C24.4448 76.7241 24.2507 76.7857 24.0512 76.7904H24.0273C23.19 76.7904 22.3602 76.6323 21.5815 76.3244C22.3568 77.0476 23.2927 77.5763 24.3123 77.8672C25.3318 78.1581 26.4059 78.2027 27.4461 77.9974C28.4863 77.7921 29.4628 77.3427 30.2954 76.6863C31.1279 76.0299 31.7927 75.1851 32.2349 74.2216C32.6772 73.2581 32.8843 72.2034 32.8392 71.1442C32.7942 70.085 32.4982 69.0517 31.9757 68.1292C31.4532 67.2068 30.719 66.4216 29.8337 65.8382C28.9484 65.2549 27.9372 64.8901 26.8833 64.7739V64.7859Z" fill="black"/>
<path d="M45.7932 67.6699C47.3142 61.2258 43.3229 54.7689 36.8782 53.248C30.4335 51.7271 23.9759 55.718 22.4549 62.1621C20.9338 68.6061 24.9251 75.063 31.3698 76.584C37.8145 78.1049 44.2721 74.1139 45.7932 67.6699Z" fill="#0E2E75"/>
<path opacity="0.2" d="M37.5425 72.7958C35.4947 72.7949 33.4813 72.2697 31.6941 71.27C29.9069 70.2704 28.4056 68.8297 27.3332 67.0853C26.2608 65.3409 25.6531 63.351 25.5681 61.3052C25.483 59.2593 25.9234 57.2258 26.8473 55.3984C25.4132 56.4903 24.2439 57.8915 23.4263 59.4978C22.6088 61.1041 22.1641 62.8741 22.1253 64.676C22.0866 66.4779 22.4548 68.2654 23.2026 69.9053C23.9504 71.5453 25.0584 72.9954 26.4443 74.1479C27.8301 75.3004 29.4581 76.1255 31.207 76.5617C32.956 76.998 34.7808 77.0342 36.5456 76.6677C38.3105 76.3012 39.97 75.5414 41.4005 74.4449C42.831 73.3484 43.9958 71.9433 44.8081 70.3344C42.7226 71.9309 40.1691 72.796 37.5425 72.7958Z" fill="#0E2E75"/>
<path d="M151.561 95.5422C151.392 95.5412 151.23 95.4732 151.11 95.353C150.991 95.2329 150.924 95.0704 150.924 94.901V68.6934C150.924 68.5244 150.991 68.3623 151.11 68.2428C151.23 68.1233 151.392 68.0562 151.561 68.0562C151.73 68.0562 151.892 68.1233 152.012 68.2428C152.131 68.3623 152.199 68.5244 152.199 68.6934V94.9129C152.196 95.0806 152.128 95.2406 152.009 95.3584C151.89 95.4762 151.729 95.5422 151.561 95.5422V95.5422Z" fill="#37474F"/>
<path d="M151.561 78.296C151.486 78.2957 151.413 78.2757 151.349 78.2379C151.284 78.2001 151.231 78.1459 151.195 78.0809L147.562 71.7082C147.506 71.61 147.491 71.4935 147.521 71.3845C147.551 71.2754 147.623 71.1827 147.721 71.1267C147.819 71.0707 147.936 71.0561 148.045 71.086C148.154 71.1158 148.247 71.1878 148.303 71.286L151.931 77.6587C151.986 77.7572 152.001 77.8733 151.971 77.982C151.941 78.0908 151.87 78.1835 151.772 78.2402C151.708 78.2763 151.635 78.2955 151.561 78.296V78.296Z" fill="#37474F"/>
<path d="M151.477 80.0209C151.405 80.0216 151.333 80.0024 151.27 79.9652C151.219 79.9405 151.174 79.9052 151.138 79.8616C151.101 79.818 151.075 79.7672 151.06 79.7125C151.045 79.6579 151.041 79.6006 151.05 79.5446C151.059 79.4885 151.08 79.435 151.111 79.3877L155.943 70.8802C156.002 70.7892 156.093 70.7241 156.199 70.6983C156.304 70.6725 156.415 70.6878 156.51 70.7411C156.604 70.7944 156.675 70.8817 156.707 70.9853C156.739 71.0888 156.731 71.2008 156.684 71.2984L151.832 79.8059C151.796 79.8689 151.745 79.9218 151.683 79.9594C151.621 79.9971 151.55 80.0182 151.477 80.0209V80.0209Z" fill="#37474F"/>
<path d="M158.855 72.784C164.016 72.784 168.199 68.6006 168.199 63.4401C168.199 58.2796 164.016 54.0962 158.855 54.0962C153.694 54.0962 149.51 58.2796 149.51 63.4401C149.51 68.6006 153.694 72.784 158.855 72.784Z" fill="#031E5B"/>
<path opacity="0.3" d="M158.855 72.784C164.016 72.784 168.199 68.6006 168.199 63.4401C168.199 58.2796 164.016 54.0962 158.855 54.0962C153.694 54.0962 149.51 58.2796 149.51 63.4401C149.51 68.6006 153.694 72.784 158.855 72.784Z" fill="#A1D7F4"/>
<path d="M156.831 60.7994C156.828 59.5583 157.073 58.3291 157.551 57.1841C158.03 56.0391 158.733 55.0014 159.619 54.132C159.36 54.1121 159.105 54.0962 158.842 54.0962C157.309 54.0958 155.799 54.4726 154.446 55.1935C153.093 55.9143 151.938 56.957 151.083 58.2296C150.228 59.5022 149.699 60.9656 149.543 62.4908C149.388 64.016 149.61 65.556 150.19 66.9752C150.77 68.3943 151.69 69.6489 152.87 70.6284C154.049 71.6079 155.452 72.2821 156.953 72.5916C158.455 72.9011 160.01 72.8364 161.481 72.4032C162.951 71.97 164.293 71.1816 165.387 70.1075C163.054 69.9099 160.88 68.8437 159.296 67.12C157.711 65.3963 156.831 63.1406 156.831 60.7994V60.7994Z" fill="#031E5B"/>
<path opacity="0.4" d="M156.831 60.7994C156.828 59.5583 157.073 58.3291 157.551 57.1841C158.03 56.0391 158.733 55.0014 159.619 54.132C159.36 54.1121 159.105 54.0962 158.842 54.0962C157.309 54.0958 155.799 54.4726 154.446 55.1935C153.093 55.9143 151.938 56.957 151.083 58.2296C150.228 59.5022 149.699 60.9656 149.543 62.4908C149.388 64.016 149.61 65.556 150.19 66.9752C150.77 68.3943 151.69 69.6489 152.87 70.6284C154.049 71.6079 155.452 72.2821 156.953 72.5916C158.455 72.9011 160.01 72.8364 161.481 72.4032C162.951 71.97 164.293 71.1816 165.387 70.1075C163.054 69.9099 160.88 68.8437 159.296 67.12C157.711 65.3963 156.831 63.1406 156.831 60.7994V60.7994Z" fill="#031E5B"/>
<path d="M148.324 70.8246C150.939 68.2099 150.939 63.9707 148.324 61.3561C145.709 58.7414 141.47 58.7414 138.855 61.3561C136.24 63.9707 136.24 68.2099 138.855 70.8246C141.47 73.4393 145.709 73.4393 148.324 70.8246Z" fill="#031E5B"/>
<path opacity="0.3" d="M148.324 70.8246C150.939 68.2099 150.939 63.9707 148.324 61.3561C145.709 58.7414 141.47 58.7414 138.855 61.3561C136.24 63.9707 136.24 68.2099 138.855 70.8246C141.47 73.4393 145.709 73.4393 148.324 70.8246Z" fill="#A1D7F4"/>
<path d="M144.315 59.4331C143.424 59.3358 142.522 59.4185 141.663 59.6765C140.805 59.9344 140.006 60.3623 139.316 60.9347C139.296 61.2215 139.284 61.5122 139.284 61.803C139.281 64.7056 140.335 67.5103 142.248 69.6931C142.38 69.8434 142.466 70.0282 142.497 70.2258C142.527 70.4233 142.501 70.6255 142.421 70.8086C142.34 70.9917 142.209 71.1481 142.043 71.2595C141.877 71.371 141.683 71.4327 141.483 71.4376H141.463C140.626 71.4364 139.796 71.277 139.018 70.9677C139.793 71.6886 140.728 72.2152 141.747 72.5043C142.766 72.7934 143.838 72.8367 144.877 72.6307C145.915 72.4246 146.89 71.9751 147.721 71.319C148.552 70.663 149.216 69.8191 149.657 68.8568C150.099 67.8944 150.305 66.8411 150.26 65.7833C150.215 64.7256 149.92 63.6936 149.399 62.7721C148.877 61.8507 148.145 61.0661 147.261 60.4829C146.377 59.8997 145.368 59.5344 144.315 59.4172V59.4331Z" fill="#2D06BC"/>
<path opacity="0.4" d="M144.315 59.4331C143.424 59.3358 142.522 59.4185 141.663 59.6765C140.805 59.9344 140.006 60.3623 139.316 60.9347C139.296 61.2215 139.284 61.5122 139.284 61.803C139.281 64.7056 140.335 67.5103 142.248 69.6931C142.38 69.8434 142.466 70.0282 142.497 70.2258C142.527 70.4233 142.501 70.6255 142.421 70.8086C142.34 70.9917 142.209 71.1481 142.043 71.2595C141.877 71.371 141.683 71.4327 141.483 71.4376H141.463C140.626 71.4364 139.796 71.277 139.018 70.9677C139.793 71.6886 140.728 72.2152 141.747 72.5043C142.766 72.7934 143.838 72.8367 144.877 72.6307C145.915 72.4246 146.89 71.9751 147.721 71.319C148.552 70.663 149.216 69.8191 149.657 68.8568C150.099 67.8944 150.305 66.8411 150.26 65.7833C150.215 64.7256 149.92 63.6936 149.399 62.7721C148.877 61.8507 148.145 61.0661 147.261 60.4829C146.377 59.8997 145.368 59.5344 144.315 59.4172V59.4331Z" fill="black"/>
<path d="M163.211 62.3178C164.732 55.8738 160.74 49.4169 154.296 47.896C147.851 46.375 141.393 50.366 139.872 56.81C138.351 63.2541 142.343 69.711 148.787 71.2319C155.232 72.7529 161.69 68.7619 163.211 62.3178Z" fill="#0E2E75"/>
<path opacity="0.2" d="M154.967 67.4306C152.918 67.4312 150.903 66.9067 149.115 65.9071C147.327 64.9076 145.825 63.4663 144.752 61.721C143.679 59.9757 143.072 57.9846 142.988 55.9377C142.904 53.8909 143.346 51.8567 144.272 50.0293C142.841 51.123 141.676 52.525 140.861 54.1311C140.047 55.7371 139.605 57.506 139.569 59.3062C139.532 61.1064 139.902 62.8918 140.65 64.5296C141.398 66.1674 142.506 67.6155 143.891 68.7664C145.276 69.9173 146.903 70.7414 148.65 71.1774C150.397 71.6135 152.22 71.6503 153.983 71.285C155.747 70.9198 157.405 70.162 158.835 69.0679C160.265 67.9738 161.431 66.5715 162.244 64.9652C160.156 66.5657 157.598 67.4323 154.967 67.4306Z" fill="#0E2E75"/>
</g>
<defs>
<clipPath id="clip0_343_162">
<rect width="190" height="164.466" fill="white"/>
</clipPath>
</defs>
</svg>
