<svg width="449" height="255" viewBox="0 0 449 255" fill="none" xmlns="http://www.w3.org/2000/svg">
<g clip-path="url(#clip0)">
<path d="M353.534 1H56.312V230.394H353.534V1Z" fill="white"/>
<path d="M354.541 -0.00805664H55.3L55.308 231.392H354.534L354.541 -0.00805664ZM352.534 229.392H57.312V23.0279H352.534V229.392Z" fill="#0055DC"/>
<path d="M65.984 15.158C68.0059 15.158 69.645 13.5243 69.645 11.509C69.645 9.4937 68.0059 7.85999 65.984 7.85999C63.9621 7.85999 62.323 9.4937 62.323 11.509C62.323 13.5243 63.9621 15.158 65.984 15.158Z" fill="white"/>
<path d="M77.825 15.158C79.8469 15.158 81.486 13.5243 81.486 11.509C81.486 9.4937 79.8469 7.85999 77.825 7.85999C75.8031 7.85999 74.164 9.4937 74.164 11.509C74.164 13.5243 75.8031 15.158 77.825 15.158Z" fill="white"/>
<path d="M89.666 15.158C91.6879 15.158 93.327 13.5243 93.327 11.509C93.327 9.4937 91.6879 7.85999 89.666 7.85999C87.6441 7.85999 86.005 9.4937 86.005 11.509C86.005 13.5243 87.6441 15.158 89.666 15.158Z" fill="white"/>
<path d="M216.632 39.694H75.671V124.997H216.632V39.694Z" fill="#E2F5FA"/>
<path d="M170.289 99.203V111.901H181.907V99.203H170.289Z" fill="#F6821F"/>
<path d="M155.766 98.501V111.901H167.384V98.501H155.766Z" fill="#FF6633"/>
<path d="M141.243 95.484V111.901H152.861V95.484H141.243Z" fill="#C5EBF5"/>
<path d="M126.721 91.497V111.901H138.339V91.497H126.721Z" fill="#6ECCE5"/>
<path d="M97.677 71.241V111.901H109.295V71.241H97.677Z" fill="#003682"/>
<path d="M112.199 88.704V111.901H123.817V88.704H112.199Z" fill="#0055DC"/>
<path d="M184.811 104.209V111.9H196.429V104.209H184.811Z" fill="#FBAD41"/>
<path d="M208.047 111.651H86.058V112.151H208.047V111.651Z" fill="#0055DC"/>
<path d="M333.948 39.694H222.316V124.997H333.948V39.694Z" fill="#E2F5FA"/>
<path d="M279.258 82.082L309.714 92.582C307.518 98.9514 303.38 104.472 297.883 108.367C292.386 112.262 285.806 114.336 279.068 114.296C272.331 114.257 265.776 112.106 260.325 108.147C254.874 104.187 250.801 98.6184 248.68 92.2237C246.559 85.829 246.496 78.9302 248.5 72.4979C250.504 66.0655 254.474 60.4233 259.852 56.3651C265.23 52.3068 271.745 50.0368 278.48 49.8742C285.216 49.7117 291.833 51.6649 297.4 55.459L279.258 82.082Z" fill="#0055DC"/>
<path d="M279.258 82.082L301.758 59.02C302.288 59.5367 302.8 60.07 303.294 60.62C303.788 61.17 304.262 61.739 304.715 62.327L279.258 82.082Z" fill="#FBAD41"/>
<path d="M279.258 82.082L304.711 62.332C305.105 62.8394 305.483 63.358 305.846 63.888C306.209 64.418 306.555 64.9584 306.885 65.509L279.258 82.082Z" fill="#F6821F"/>
<path d="M279.258 82.082L306.885 65.509C308.031 67.4189 308.976 69.4424 309.704 71.547L279.258 82.082Z" fill="#FF6633"/>
<path d="M279.258 82.082L309.7 71.547C312.058 78.3612 312.061 85.7695 309.71 92.586L279.258 82.082Z" fill="#6ECCE5"/>
<path d="M279.258 82.0819L297.264 55.3669L297.464 55.5049L297.664 55.6449L279.258 82.0819Z" fill="#003682"/>
<path d="M279.258 99.966C289.135 99.966 297.142 91.9591 297.142 82.082C297.142 72.2049 289.135 64.198 279.258 64.198C269.381 64.198 261.374 72.2049 261.374 82.082C261.374 91.9591 269.381 99.966 279.258 99.966Z" fill="#E2F5FA"/>
<path d="M152.966 129.827H75.671V215.13H152.966V129.827Z" fill="#E2F5FA"/>
<path d="M89.635 148.603C91.6105 148.603 93.212 147.001 93.212 145.026C93.212 143.05 91.6105 141.449 89.635 141.449C87.6595 141.449 86.058 143.05 86.058 145.026C86.058 147.001 87.6595 148.603 89.635 148.603Z" fill="#C5EBF5"/>
<path d="M144.784 141.449H98.683V148.602H144.784V141.449Z" fill="#C5EBF5"/>
<path d="M89.635 162.376C91.6105 162.376 93.212 160.775 93.212 158.799C93.212 156.824 91.6105 155.222 89.635 155.222C87.6595 155.222 86.058 156.824 86.058 158.799C86.058 160.775 87.6595 162.376 89.635 162.376Z" fill="#C5EBF5"/>
<path d="M144.784 155.222H98.683V162.375H144.784V155.222Z" fill="#C5EBF5"/>
<path d="M89.635 176.149C91.6105 176.149 93.212 174.548 93.212 172.572C93.212 170.596 91.6105 168.995 89.635 168.995C87.6595 168.995 86.058 170.596 86.058 172.572C86.058 174.548 87.6595 176.149 89.635 176.149Z" fill="#C5EBF5"/>
<path d="M144.784 168.995H98.683V176.148H144.784V168.995Z" fill="#C5EBF5"/>
<path d="M89.635 189.921C91.6105 189.921 93.212 188.319 93.212 186.344C93.212 184.368 91.6105 182.767 89.635 182.767C87.6595 182.767 86.058 184.368 86.058 186.344C86.058 188.319 87.6595 189.921 89.635 189.921Z" fill="#C5EBF5"/>
<path d="M144.784 182.768H98.683V189.921H144.784V182.768Z" fill="#C5EBF5"/>
<path d="M89.635 203.694C91.6105 203.694 93.212 202.093 93.212 200.117C93.212 198.142 91.6105 196.54 89.635 196.54C87.6595 196.54 86.058 198.142 86.058 200.117C86.058 202.093 87.6595 203.694 89.635 203.694Z" fill="#C5EBF5"/>
<path d="M144.784 196.541H98.683V203.694H144.784V196.541Z" fill="#C5EBF5"/>
<path d="M333.59 129.827H158.689V215.13H333.59V129.827Z" fill="#E2F5FA"/>
<path d="M278.648 206.04H282.954V181.751H278.648V206.04Z" fill="#003682"/>
<path d="M274.342 206.041H278.648V192.305H274.342V206.041Z" fill="#0055DC"/>
<path d="M270.036 206.04H274.342V179.938H270.036V206.04Z" fill="#6ECCE5"/>
<path d="M262.501 206.04H266.807V189.892H262.501V206.04Z" fill="#003682"/>
<path d="M258.195 206.041H262.501V186.758H258.195V206.041Z" fill="#0055DC"/>
<path d="M253.888 206.04H258.194V177.163H253.888V206.04Z" fill="#6ECCE5"/>
<path d="M246.352 206.04H250.658V195.304H246.352V206.04Z" fill="#003682"/>
<path d="M242.047 206.04H246.353V189.892H242.047V206.04Z" fill="#0055DC"/>
<path d="M237.741 206.04H242.047V168.915H237.741V206.04Z" fill="#6ECCE5"/>
<path d="M230.204 206.041H234.51V194.111H230.204V206.041Z" fill="#003682"/>
<path d="M225.898 206.041H230.204V192.268H225.898V206.041Z" fill="#0055DC"/>
<path d="M221.592 206.04H225.898V167.363H221.592V206.04Z" fill="#6ECCE5"/>
<path d="M214.057 206.041H218.363V195.06H214.057V206.041Z" fill="#003682"/>
<path d="M209.751 206.04H214.057V190.729H209.751V206.04Z" fill="#0055DC"/>
<path d="M197.955 206.041H202.261V195.06H197.955V206.041Z" fill="#003682"/>
<path d="M193.65 206.04H197.956V190.729H193.65V206.04Z" fill="#0055DC"/>
<path d="M181.787 206.041H186.093V195.06H181.787V206.041Z" fill="#003682"/>
<path d="M177.481 206.04H181.787V190.729H177.481V206.04Z" fill="#0055DC"/>
<path d="M205.444 206.04H209.75V167.987H205.444V206.04Z" fill="#6ECCE5"/>
<path d="M189.297 206.041H193.603V144.689H189.297V206.041Z" fill="#6ECCE5"/>
<path d="M173.149 206.041H177.455V141.45H173.149V206.041Z" fill="#6ECCE5"/>
<path d="M293.727 205.79H166.669V206.29H293.727V205.79Z" fill="#0055DC"/>
<path d="M340.468 254C369.308 254 392.688 230.62 392.688 201.78C392.688 172.94 369.308 149.56 340.468 149.56C311.628 149.56 288.248 172.94 288.248 201.78C288.248 230.62 311.628 254 340.468 254Z" fill="white"/>
<path d="M340.468 255C329.942 255 319.653 251.879 310.901 246.031C302.149 240.183 295.327 231.871 291.299 222.146C287.271 212.422 286.217 201.721 288.271 191.397C290.324 181.074 295.393 171.591 302.836 164.148C310.279 156.705 319.762 151.636 330.085 149.583C340.409 147.529 351.11 148.583 360.834 152.611C370.559 156.639 378.871 163.461 384.719 172.213C390.567 180.964 393.688 191.254 393.688 201.78C393.672 215.89 388.06 229.417 378.083 239.395C368.105 249.372 354.578 254.984 340.468 255ZM340.468 150.56C330.338 150.56 320.435 153.564 312.012 159.192C303.589 164.82 297.024 172.82 293.147 182.179C289.27 191.538 288.256 201.837 290.232 211.772C292.209 221.708 297.087 230.835 304.25 237.998C311.413 245.161 320.54 250.039 330.475 252.016C340.411 253.992 350.71 252.978 360.069 249.101C369.428 245.224 377.428 238.659 383.056 230.236C388.684 221.813 391.688 211.91 391.688 201.78C391.673 188.2 386.271 175.181 376.669 165.579C367.067 155.977 354.048 150.575 340.468 150.56V150.56Z" fill="#FF6633"/>
<path d="M369.12 210.612H311.892V228.182C311.892 231.782 324.703 234.708 340.506 234.708C356.309 234.708 369.12 231.786 369.12 228.182V210.612Z" fill="#C5EBF5"/>
<path d="M340.506 235.208C326.392 235.208 311.392 232.745 311.392 228.182V210.112H369.619V228.182C369.619 232.745 354.619 235.208 340.506 235.208ZM312.392 211.108V228.178C312.392 231.028 323.938 234.204 340.506 234.204C357.074 234.204 368.619 231.028 368.619 228.178V211.108H312.392Z" fill="#0055DC"/>
<path d="M340.506 231.131C327.639 231.131 319.18 229.188 316.186 227.774C315.97 227.672 315.788 227.51 315.661 227.308C315.534 227.107 315.468 226.873 315.469 226.634V213.3C315.469 212.966 315.602 212.645 315.839 212.409C316.075 212.173 316.396 212.04 316.73 212.04H364.282C364.448 212.04 364.612 212.072 364.765 212.136C364.918 212.199 365.057 212.292 365.174 212.409C365.291 212.526 365.384 212.665 365.447 212.818C365.51 212.971 365.543 213.134 365.543 213.3V226.631C365.544 226.87 365.478 227.104 365.351 227.305C365.224 227.507 365.042 227.669 364.826 227.771C361.832 229.188 353.372 231.131 340.506 231.131Z" fill="white"/>
<path d="M322.281 225.768C323.39 225.768 324.289 224.869 324.289 223.76C324.289 222.651 323.39 221.752 322.281 221.752C321.172 221.752 320.273 222.651 320.273 223.76C320.273 224.869 321.172 225.768 322.281 225.768Z" fill="#0055DC"/>
<path d="M339.851 226.172C337.489 226.172 335.14 226.106 332.869 225.977L332.926 224.977C335.177 225.105 337.507 225.17 339.851 225.17C346.607 225.255 353.352 224.618 359.972 223.27L360.195 224.245C353.502 225.61 346.682 226.256 339.851 226.172V226.172Z" fill="#0055DC"/>
<path d="M340.506 217.305C356.309 217.305 369.12 214.383 369.12 210.779C369.12 207.175 356.309 204.253 340.506 204.253C324.703 204.253 311.892 207.175 311.892 210.779C311.892 214.383 324.703 217.305 340.506 217.305Z" fill="#C5EBF5"/>
<path d="M340.506 217.674C326.259 217.674 311.524 215.095 311.524 210.774C311.524 206.453 326.259 203.88 340.506 203.88C354.753 203.88 369.488 206.459 369.488 210.774C369.488 215.089 354.752 217.674 340.506 217.674ZM340.506 204.622C323.611 204.622 312.26 207.806 312.26 210.779C312.26 213.752 323.611 216.937 340.506 216.937C357.401 216.937 368.751 213.753 368.751 210.779C368.751 207.805 357.4 204.622 340.506 204.622Z" fill="#0055DC"/>
<path d="M340.506 215.3C325.929 215.3 317.524 212.978 314.806 211.42C314.693 211.356 314.6 211.263 314.534 211.151C314.469 211.039 314.435 210.912 314.435 210.783C314.435 210.653 314.469 210.526 314.534 210.414C314.6 210.302 314.693 210.209 314.806 210.145C317.52 208.587 325.925 206.265 340.506 206.265C355.087 206.265 363.488 208.587 366.206 210.145C366.319 210.209 366.412 210.302 366.478 210.414C366.543 210.526 366.577 210.653 366.577 210.783C366.577 210.912 366.543 211.039 366.478 211.151C366.412 211.263 366.319 211.356 366.206 211.42C363.488 212.975 355.083 215.3 340.506 215.3Z" fill="white"/>
<path d="M369.12 193.444H311.892V211.014C311.892 214.614 324.703 217.54 340.506 217.54C356.309 217.54 369.12 214.618 369.12 211.014V193.444Z" fill="#C5EBF5"/>
<path d="M340.506 218.04C326.392 218.04 311.392 215.577 311.392 211.014V192.944H369.619V211.014C369.619 215.577 354.619 218.04 340.506 218.04ZM312.392 193.94V211.01C312.392 213.86 323.938 217.036 340.506 217.036C357.074 217.036 368.619 213.86 368.619 211.01V193.94H312.392Z" fill="#0055DC"/>
<path d="M340.506 213.963C327.639 213.963 319.18 212.02 316.186 210.606C315.971 210.504 315.789 210.342 315.662 210.14C315.535 209.938 315.468 209.705 315.469 209.466V196.135C315.469 195.801 315.602 195.48 315.839 195.244C316.075 195.007 316.396 194.874 316.73 194.874H364.282C364.616 194.874 364.937 195.007 365.174 195.243C365.41 195.48 365.543 195.801 365.543 196.135V209.466C365.544 209.705 365.477 209.938 365.35 210.14C365.223 210.342 365.041 210.504 364.826 210.606C361.833 212.02 353.372 213.963 340.506 213.963Z" fill="white"/>
<path d="M322.281 208.599C323.39 208.599 324.289 207.7 324.289 206.591C324.289 205.482 323.39 204.583 322.281 204.583C321.172 204.583 320.273 205.482 320.273 206.591C320.273 207.7 321.172 208.599 322.281 208.599Z" fill="#0055DC"/>
<path d="M339.851 209C337.489 209 335.14 208.934 332.869 208.805L332.926 207.805C335.177 207.933 337.507 207.998 339.851 207.998C346.607 208.082 353.352 207.445 359.972 206.098L360.195 207.073C353.502 208.437 346.682 209.083 339.851 209V209Z" fill="#0055DC"/>
<path d="M340.506 200.137C356.309 200.137 369.12 197.215 369.12 193.611C369.12 190.007 356.309 187.085 340.506 187.085C324.703 187.085 311.892 190.007 311.892 193.611C311.892 197.215 324.703 200.137 340.506 200.137Z" fill="#C5EBF5"/>
<path d="M340.506 200.506C326.259 200.506 311.524 197.927 311.524 193.606C311.524 189.285 326.259 186.712 340.506 186.712C354.753 186.712 369.488 189.291 369.488 193.606C369.488 197.921 354.752 200.506 340.506 200.506ZM340.506 187.454C323.611 187.454 312.26 190.638 312.26 193.611C312.26 196.584 323.611 199.769 340.506 199.769C357.401 199.769 368.751 196.585 368.751 193.611C368.751 190.637 357.4 187.454 340.506 187.454Z" fill="#0055DC"/>
<path d="M340.506 198.129C325.929 198.129 317.524 195.807 314.806 194.248C314.693 194.184 314.599 194.092 314.534 193.98C314.469 193.868 314.435 193.741 314.435 193.611C314.435 193.481 314.469 193.354 314.534 193.242C314.599 193.13 314.693 193.038 314.806 192.974C317.52 191.416 325.925 189.093 340.506 189.093C355.087 189.093 363.488 191.416 366.206 192.974C366.319 193.038 366.413 193.13 366.478 193.242C366.543 193.354 366.577 193.481 366.577 193.611C366.577 193.741 366.543 193.868 366.478 193.98C366.413 194.092 366.319 194.184 366.206 194.248C363.488 195.807 355.083 198.129 340.506 198.129Z" fill="white"/>
<path d="M369.12 176.041H311.892V193.611C311.892 197.211 324.703 200.137 340.506 200.137C356.309 200.137 369.12 197.215 369.12 193.611V176.041Z" fill="#C5EBF5"/>
<path d="M340.506 200.637C326.392 200.637 311.392 198.175 311.392 193.611V176.211H369.619V193.611C369.619 198.175 354.619 200.637 340.506 200.637ZM312.392 176.537V193.607C312.392 196.457 323.938 199.633 340.506 199.633C357.074 199.633 368.619 196.457 368.619 193.607V176.537H312.392Z" fill="#0055DC"/>
<path d="M340.506 196.56C327.639 196.56 319.18 194.618 316.186 193.204C315.971 193.102 315.789 192.94 315.662 192.738C315.535 192.536 315.468 192.303 315.469 192.064V178.733C315.469 178.399 315.602 178.078 315.839 177.842C316.075 177.605 316.396 177.472 316.73 177.472H364.282C364.616 177.472 364.937 177.605 365.174 177.841C365.41 178.078 365.543 178.399 365.543 178.733V192.064C365.544 192.303 365.477 192.536 365.35 192.738C365.223 192.94 365.041 193.102 364.826 193.204C361.832 194.618 353.372 196.56 340.506 196.56Z" fill="white"/>
<path d="M322.281 191.34C323.39 191.34 324.289 190.441 324.289 189.332C324.289 188.223 323.39 187.324 322.281 187.324C321.172 187.324 320.273 188.223 320.273 189.332C320.273 190.441 321.172 191.34 322.281 191.34Z" fill="#0055DC"/>
<path d="M339.851 191.6C337.489 191.6 335.14 191.535 332.869 191.405L332.926 190.405C335.177 190.533 337.507 190.598 339.851 190.598C346.607 190.683 353.352 190.046 359.972 188.698L360.195 189.673C353.502 191.038 346.682 191.684 339.851 191.6V191.6Z" fill="#0055DC"/>
<path d="M340.506 182.735C356.309 182.735 369.12 179.813 369.12 176.209C369.12 172.605 356.309 169.683 340.506 169.683C324.703 169.683 311.892 172.605 311.892 176.209C311.892 179.813 324.703 182.735 340.506 182.735Z" fill="#C5EBF5"/>
<path d="M340.506 183.235C326.392 183.235 311.392 180.772 311.392 176.209C311.392 171.646 326.392 169.183 340.506 169.183C354.62 169.183 369.619 171.645 369.619 176.209C369.619 180.773 354.619 183.235 340.506 183.235ZM340.506 170.183C323.938 170.183 312.392 173.359 312.392 176.209C312.392 179.059 323.938 182.235 340.506 182.235C357.074 182.235 368.619 179.059 368.619 176.209C368.619 173.359 357.074 170.183 340.506 170.183V170.183Z" fill="#0055DC"/>
</g>
<defs>
<clipPath id="clip0">
<rect width="449" height="255" fill="white"/>
</clipPath>
</defs>
</svg>
