<svg xmlns="http://www.w3.org/2000/svg" xmlns:xlink="http://www.w3.org/1999/xlink" width="425" height="306.19" viewBox="0 0 425 306.19"><defs><linearGradient id="a" x1="102.62" y1="354.23" x2="334.64" y2="-2.08" gradientUnits="userSpaceOnUse"><stop offset="0.7" stop-color="#f6fbfe"/><stop offset="0.95" stop-color="#c7e4f6"/></linearGradient><linearGradient id="b" x1="207.22" y1="-82.6" x2="273.27" y2="240.97" gradientUnits="userSpaceOnUse"><stop offset="0.24" stop-color="#f6fbfe"/><stop offset="1" stop-color="#edf5fc"/></linearGradient><linearGradient id="c" x1="273.58" y1="246.57" x2="129.26" y2="102.25" gradientUnits="userSpaceOnUse"><stop offset="0.67" stop-color="#c7e2f4"/><stop offset="0.81" stop-color="#c5e0f3"/><stop offset="0.86" stop-color="#bedaef"/><stop offset="0.9" stop-color="#b3d0e7"/><stop offset="0.93" stop-color="#a2c1dc"/><stop offset="0.95" stop-color="#8caece"/><stop offset="0.97" stop-color="#7096bd"/><stop offset="0.99" stop-color="#517aa9"/><stop offset="1" stop-color="#3f6a9e"/></linearGradient><linearGradient id="d" x1="267.66" y1="244.61" x2="154.53" y2="131.47" gradientUnits="userSpaceOnUse"><stop offset="0" stop-color="#c7e2f4"/><stop offset="0.03" stop-color="#c0dcef"/><stop offset="0.26" stop-color="#92b3d2"/><stop offset="0.47" stop-color="#6e93bc"/><stop offset="0.68" stop-color="#547dab"/><stop offset="0.86" stop-color="#446fa1"/><stop offset="1" stop-color="#3f6a9e"/></linearGradient></defs><polygon points="425 204.67 252.35 306.19 0 166.31 174.06 54.29 425 204.67" opacity="0.75" fill="url(#a)"/><polygon points="420.7 173.31 287.24 251.79 92.17 143.66 226.72 57.07 420.7 173.31" opacity="0.43" fill="url(#b)"/><polygon points="132.48 79.92 160.79 96.12 160.79 113.04 150.58 113.04 133.73 100.44 132.48 79.92" fill="#fff"/><polygon points="247.24 251.22 331.69 202.41 153.26 98.61 73.02 147.73 247.24 251.22" fill="#dce9f5"/><polygon points="247.24 242.76 318.39 201.76 158.91 110.19 150.31 108.12 84.44 147.06 247.24 242.76" fill="url(#c)"/><polyline points="280.64 222.36 235.47 195.24 209.66 195.24 198.91 189.48 165.69 189.48 122.2 163.8 171.19 128.04 298.56 211.32 299.99 212.28 281.22 222.69" fill="url(#d)"/><polygon points="247.24 255.78 247.24 251.22 73.02 147.73 73.02 152.46 247.24 255.78" fill="#1b2b4f"/><polygon points="247.24 251.22 331.69 202.41 331.69 206.82 247.24 255.63 247.24 251.22" fill="#4297d2"/><path d="M146.22,5c1.91-3.92,6.06-6.6,9.44-4L304.17,87.24c3.11,2.08,3.09,6.16,3.27,10.32l.08,114.18c-.84,2.27-1.91,4.2-4.06,4.5L146.68,125.91Z" fill="#1b2b4f"/><path d="M297,215.64c3.68,2.52,7.92,2.23,7.64-2l.24-115.38c.26-5.94-2.35-9.62-7.3-11.48L152,2.7c-2.43-1.26-5.08-.84-5.94,2.07l.62,123.51Z" fill="#dce9f5"/><polygon points="300.55 199.75 300.55 95.4 150.31 8.46 150.58 113.04 300.55 199.75" fill="#fff"/><path d="M233.68,178.86l-22.52,13.08c-1.84,1.29-3.45,1.27-4.84,0l-29.4-16.67c-.71-1.2-1.2-2.39.68-3.42l21.91-12.55Z" fill="#fff"/><path d="M176.33,173.1a5.18,5.18,0,0,0,0,4.63l30.26,17.06c1.43,1.18,3,1.05,4.57,0v-2.67a4.16,4.16,0,0,1-3.9.4L176.72,174.9A2.51,2.51,0,0,1,176.33,173.1Z" fill="#1b2b4f"/><polygon points="211.16 194.79 235.95 180.24 233.68 178.92 211.16 192.12 211.16 194.79" fill="#4297d2"/><path d="M121.77,70.83c2.23-1.94,4.33-2.67,6.23-1.58l39.57,23a8.89,8.89,0,0,1,3.62,5.22l-2.42,1.14A9.46,9.46,0,0,0,166,94.44l-41.59-24A4.17,4.17,0,0,0,121.77,70.83Z" fill="#1b2b4f"/><polyline points="300.58 95.4 150.34 8.46 150.34 19.44 163.42 30.36 300.58 109.64" fill="#1b2b4f"/><polygon points="167.51 29.82 166.54 122.27 150.58 112.35 150.31 18.72 167.51 29.82" fill="#1b2b4f"/><polygon points="172.06 52.57 190.89 62.67 190.89 71.94 190.89 88 171.3 77.08 171.78 61.41 172.06 52.57" fill="#dce9f5"/><polygon points="170.95 84.84 189.95 95.58 189.95 115.02 170.35 104.1 170.95 84.84" fill="#dce9f5"/><path d="M177.4,63.92l9.43,5.43c1.19.56,2.08-.65,1.08-1.45l-9-5.18C177.55,61.91,176.46,63.38,177.4,63.92Z" fill="#fff"/><path d="M177.4,69l9.43,5.43c1.19.56,2.08-.66,1.08-1.45l-9-5.18C177.55,67,176.46,68.45,177.4,69Z" fill="#fff"/><path d="M177.19,73.56,186.61,79c1.19.56,2.08-.66,1.08-1.45l-9-5.18C177.33,71.55,176.24,73,177.19,73.56Z" fill="#fff"/><path d="M175.91,94.78l9.42,5.43c1.19.56,2.09-.65,1.09-1.45l-9-5.18C176.06,92.77,175,94.24,175.91,94.78Z" fill="#fff"/><path d="M175.69,99.35l9.43,5.43c1.19.56,2.08-.66,1.08-1.45l-9-5.18C175.84,97.34,174.75,98.81,175.69,99.35Z" fill="#fff"/><path d="M153.62,31.86,163,37.29c1.19.56,2.09-.66,1.09-1.45l-9-5.18C153.76,29.85,152.68,31.31,153.62,31.86Z" fill="#fff"/><path d="M170.77,31.86l9.42,5.43c1.19.56,2.09-.66,1.09-1.45l-9-5.18C170.91,29.85,169.83,31.31,170.77,31.86Z" fill="#fff"/><path d="M185.49,39.93l9.42,5.42c1.19.57,2.09-.65,1.09-1.45l-9-5.18C185.63,37.92,184.55,39.38,185.49,39.93Z" fill="#fff"/><path d="M153.62,38.69,163,44.12c1.19.56,2.09-.66,1.09-1.45l-9-5.18C153.76,36.68,152.68,38.15,153.62,38.69Z" fill="#fff"/><path d="M153.62,51.77,163,57.2c1.19.56,2.09-.66,1.09-1.45l-9-5.18C153.76,49.76,152.68,51.23,153.62,51.77Z" fill="#fff"/><path d="M153.62,45.74,163,51.17c1.19.56,2.09-.65,1.09-1.45l-9-5.18C153.76,43.73,152.68,45.2,153.62,45.74Z" fill="#fff"/><path d="M153.62,58.81,163,64.23c1.19.57,2.09-.65,1.09-1.45l-9-5.18C153.76,56.79,152.68,58.26,153.62,58.81Z" fill="#fff"/><path d="M153.62,65.64,163,71.06c1.19.57,2.09-.65,1.09-1.44l-9-5.19C153.76,63.63,152.68,65.09,153.62,65.64Z" fill="#fff"/><path d="M153.62,78.5,163,83.92c1.19.57,2.09-.65,1.09-1.45l-9-5.18C153.76,76.48,152.68,78,153.62,78.5Z" fill="#fff"/><path d="M153.62,72.47,163,77.9c1.19.56,2.09-.66,1.09-1.45l-9-5.18C153.76,70.46,152.68,71.92,153.62,72.47Z" fill="#fff"/><polygon points="197.95 67.92 213.66 76.81 293.42 121.91 293.42 188.15 197.35 132.3 197.43 84.66 197.95 67.92" fill="#dce9f5"/><polygon points="293.37 111.96 293.26 120.34 197.72 66.41 197.95 59.05 293.37 111.96" fill="#3f6a9e"/><polygon points="197.72 75.38 293.26 128.77 293.26 120.34 197.72 66.41 197.72 75.38" fill="#a3d7f4"/><path d="M204.14,83.87l83.53,46.76c5.75,3.47,3.28,8.37-1,6L201.87,89.16C196.07,85.66,200.3,81.45,204.14,83.87Z" fill="#c7e2f4"/><path d="M204.14,94.06l83.53,46.76c5.75,3.47,3.28,8.37-1,6L201.87,99.35C196.07,95.85,200.3,91.64,204.14,94.06Z" fill="#c7e2f4"/><path d="M204.66,105.81l83.52,46.77c5.75,3.46,3.29,8.37-1,5.94L202.38,111.1C196.58,107.61,200.82,103.39,204.66,105.81Z" fill="#c7e2f4"/><path d="M204.66,116l83.52,46.76c5.75,3.47,3.29,8.37-1,6l-84.79-47.42C196.58,117.79,200.82,113.58,204.66,116Z" fill="#c7e2f4"/><path d="M167.51,189.05c2.19-.51,3.41-1.68,3.68-3.51V97.61l-2.42,1.14.06,88.86C168.75,188.13,168.51,188.63,167.51,189.05Z" fill="#3f6a9e"/><path d="M169,188.22c-.7,1.7-2.33,2-4.73,1.1l-40.57-23.49a8.6,8.6,0,0,1-3.09-6.57l.05-83.43-.05-2.9c.35-2.06,1.77-2.64,3.8-2.38l40.22,23.24a7.58,7.58,0,0,1,4.15,5Z" fill="#dce9f5"/><polygon points="166.53 98.24 166.59 187.64 123.07 162.63 123.07 73.04 166.53 98.24" fill="#fff"/><polygon points="125.01 116.36 131.56 120.07 164.84 138.88 164.84 164.4 164.84 185.16 124.76 161.93 124.76 143.22 124.79 123.34 125.01 116.36" fill="#dce9f5"/><polygon points="164.81 134.73 164.77 138.23 124.91 115.73 125.01 112.66 164.81 134.73" fill="#3f6a9e"/><polygon points="124.91 119.47 164.77 141.74 164.77 138.23 124.91 115.73 124.91 119.47" fill="#a3d7f4"/><path d="M127.59,123l34.85,19.51c2.4,1.45,1.37,3.5-.42,2.48l-35.38-19.78C124.22,123.76,126,122,127.59,123Z" fill="#c7e2f4"/><path d="M127.59,127.26l34.85,19.51c2.4,1.45,1.37,3.5-.42,2.48l-35.38-19.78C124.22,128,126,126.25,127.59,127.26Z" fill="#c7e2f4"/><path d="M127.81,132.17l34.84,19.51c2.4,1.44,1.37,3.49-.42,2.48l-35.37-19.79C124.44,132.92,126.2,131.16,127.81,132.17Z" fill="#c7e2f4"/><path d="M127.81,136.42l34.84,19.51c2.4,1.44,1.37,3.49-.42,2.48l-35.37-19.79C124.44,137.17,126.2,135.41,127.81,136.42Z" fill="#c7e2f4"/><polygon points="172.06 52.57 190.89 62.67 190.89 71.94 190.89 88 171.3 77.08 171.78 61.41 172.06 52.57" fill="#dce9f5"/><polygon points="170.95 84.84 189.95 95.58 189.95 115.02 170.35 104.1 170.95 84.84" fill="#dce9f5"/><path d="M177.4,63.92l9.43,5.43c1.19.56,2.08-.65,1.08-1.45l-9-5.18C177.55,61.91,176.46,63.38,177.4,63.92Z" fill="#fff"/><path d="M177.4,69l9.43,5.43c1.19.56,2.08-.66,1.08-1.45l-9-5.18C177.55,67,176.46,68.45,177.4,69Z" fill="#fff"/><path d="M177.19,73.56,186.61,79c1.19.56,2.08-.66,1.08-1.45l-9-5.18C177.33,71.55,176.24,73,177.19,73.56Z" fill="#fff"/><path d="M175.91,94.78l9.42,5.43c1.19.56,2.09-.65,1.09-1.45l-9-5.18C176.06,92.77,175,94.24,175.91,94.78Z" fill="#fff"/><path d="M175.69,99.35l9.43,5.43c1.19.56,2.08-.66,1.08-1.45l-9-5.18C175.84,97.34,174.75,98.81,175.69,99.35Z" fill="#fff"/><polygon points="145.78 96.42 163.76 106.59 163.76 124.99 145.21 114.65 145.78 96.42" fill="#dce9f5"/><polygon points="126.53 85.98 144.52 96.15 143.9 114.21 125.97 104.21 126.53 85.98" fill="#dce9f5"/><polygon points="166.53 98.24 123.07 73.04 123.07 79.13 166.53 104.11 166.53 98.24" fill="#1b2b4f"/><path d="M125.84,78.64l8.1,4.66c1,.48,1.79-.56.93-1.25l-7.73-4.45C126,76.91,125,78.17,125.84,78.64Z" fill="#fff"/><path d="M162.44,98l2.7,1.56c.34.17.6-.18.32-.41l-2.59-1.49C162.48,97.44,162.17,97.86,162.44,98Z" fill="#fff"/><path d="M162.44,99.33l2.7,1.56c.34.16.6-.19.32-.42L162.87,99C162.48,98.75,162.17,99.17,162.44,99.33Z" fill="#fff"/><path d="M162.24,100.52l2.71,1.56c.34.16.6-.19.31-.42l-2.59-1.48C162.28,99.94,162,100.37,162.24,100.52Z" fill="#fff"/></svg>