<svg width="25" height="25" viewBox="0 0 25 25" fill="none" xmlns="http://www.w3.org/2000/svg">
<path d="M6.25 12.5L12.5 6.25L18.75 12.5L12.5 18.75L6.25 12.5Z" fill="#FF8200"/>
<path d="M12.5 23.4375C12.2862 23.4378 12.0745 23.3958 11.877 23.3141C11.6795 23.2323 11.5001 23.1123 11.3492 22.9609L2.03824 13.6515C1.73359 13.346 1.5625 12.9322 1.5625 12.5007C1.5625 12.0693 1.73359 11.6555 2.03824 11.35L11.3492 2.03824C11.6547 1.73359 12.0685 1.5625 12.5 1.5625C12.9314 1.5625 13.3453 1.73359 13.6507 2.03824L22.9617 11.3492C23.2663 11.6547 23.4374 12.0685 23.4374 12.5C23.4374 12.9314 23.2663 13.3452 22.9617 13.6507L13.6507 22.9617C13.4997 23.1129 13.3203 23.2328 13.1228 23.3144C12.9253 23.3961 12.7137 23.4379 12.5 23.4375V23.4375ZM12.5 3.12496C12.4913 3.12484 12.4827 3.12643 12.4747 3.12965C12.4666 3.13287 12.4593 3.13765 12.4531 3.14371L3.1445 12.4531C3.13238 12.4654 3.12558 12.4819 3.12558 12.4992C3.12558 12.5164 3.13238 12.533 3.1445 12.5453L12.4531 21.8562C12.4654 21.8683 12.4819 21.8751 12.4992 21.8751C12.5164 21.8751 12.533 21.8683 12.5453 21.8562L21.8562 12.5468C21.8683 12.5346 21.8751 12.518 21.8751 12.5007C21.8751 12.4835 21.8683 12.4669 21.8562 12.4547L12.5468 3.14371C12.5407 3.13751 12.5334 3.13258 12.5254 3.12923C12.5173 3.12588 12.5087 3.12416 12.5 3.12418V3.12496Z" fill="#FF8200"/>
</svg>
