<svg xmlns="http://www.w3.org/2000/svg" width="179.9" height="45.29" viewBox="0 0 179.9 45.29"><polygon points="31.22 39.98 5.95 39.98 5.95 37.88 28.94 6.71 6.15 6.7 6.18 4.89 31.48 4.89 31.48 6.7 8.43 37.97 31.22 37.97 31.22 39.98" fill="#fff"/><path d="M17.14,22.69l-.31-.23c-8.15-5.75-3.08-16.07,8.35-11.15l.27.13L24,13.36l-.3-.16c-6.17-2.57-11.77,2.41-5.27,7l.37.22Z" fill="#fff"/><path d="M20.49,21.53l.31.23c8.15,5.75,3.08,16.07-8.35,11.15l-.27-.13,1.42-1.92s.27.15.31.16c6.16,2.57,11.76-2.41,5.26-7l-.37-.22Z" fill="#fff"/><polygon points="36.07 44.29 1.01 44.29 1.37 1 36.43 1 36.07 44.29" fill="none" stroke="#fff" stroke-miterlimit="10" stroke-width="2"/><polygon points="178.9 44.29 36.47 44.29 36.35 1 178.79 1 178.9 44.29" fill="none" stroke="#fff" stroke-miterlimit="10" stroke-width="2"/><text transform="translate(44.75 30.91)" font-size="24.87" fill="#fff" font-family="YuGothicUI-Semilight, Yu Gothic UI" font-weight="300">Z<tspan x="14.17" y="0" letter-spacing="-0.05em">A</tspan><tspan x="28.75" y="0">YE</tspan><tspan x="54.85" y="0" letter-spacing="-0.01em">R</tspan><tspan x="68.94" y="0">COM</tspan></text></svg>