<svg width="680" height="545" viewBox="0 0 680 545" fill="none" xmlns="http://www.w3.org/2000/svg">
<path d="M599.309 2.15442H2.03418V492.412H599.309V2.15442Z" fill="white"/>
<path d="M601.332 0H0L0.016075 494.545H601.318L601.332 0ZM597.299 490.271H4.04317V49.2322H597.299V490.271Z" fill="#1C2A4F"/>
<path d="M21.4692 32.4127C25.5322 32.4127 28.826 28.9212 28.826 24.6141C28.826 20.307 25.5322 16.8155 21.4692 16.8155C17.4061 16.8155 14.1123 20.307 14.1123 24.6141C14.1123 28.9212 17.4061 32.4127 21.4692 32.4127Z" fill="white"/>
<path d="M45.2646 32.4127C49.3276 32.4127 52.6215 28.9212 52.6215 24.6141C52.6215 20.307 49.3276 16.8155 45.2646 16.8155C41.2015 16.8155 37.9077 20.307 37.9077 24.6141C37.9077 28.9212 41.2015 32.4127 45.2646 32.4127Z" fill="white"/>
<path d="M69.0595 32.4127C73.1226 32.4127 76.4164 28.9212 76.4164 24.6141C76.4164 20.307 73.1226 16.8155 69.0595 16.8155C64.9965 16.8155 61.7026 20.307 61.7026 24.6141C61.7026 28.9212 64.9965 32.4127 69.0595 32.4127Z" fill="white"/>
<path d="M324.201 84.8506H40.936V267.159H324.201V84.8506Z" fill="#E2F5FA"/>
<path d="M231.073 212.033V239.171H254.419V212.033H231.073Z" fill="#F6821F"/>
<path d="M201.889 210.532V239.171H225.236V210.532H201.889Z" fill="#FF6633"/>
<path d="M172.705 204.084V239.171H196.051V204.084H172.705Z" fill="#C5EBF5"/>
<path d="M143.522 195.563V239.171H166.869V195.563H143.522Z" fill="#6ECCE5"/>
<path d="M85.1582 152.272V239.171H108.505V152.272H85.1582Z" fill="#003682"/>
<path d="M114.34 189.594V239.171H137.687V189.594H114.34Z" fill="#0055DC"/>
<path d="M260.256 222.731V239.168H283.603V222.731H260.256Z" fill="#FBAD41"/>
<path d="M306.949 238.636H61.8086V239.705H306.949V238.636Z" fill="#0055DC"/>
<path d="M559.95 84.8506H335.623V267.159H559.95V84.8506Z" fill="#E2F5FA"/>
<path d="M450.049 175.442L511.251 197.882C506.838 211.495 498.523 223.293 487.476 231.618C476.43 239.942 463.207 244.375 449.667 244.289C436.129 244.206 422.956 239.609 412.003 231.148C401.049 222.684 392.864 210.783 388.602 197.117C384.339 183.45 384.213 168.706 388.24 154.959C392.267 141.212 400.245 129.153 411.052 120.48C421.859 111.807 434.951 106.955 448.485 106.608C462.022 106.261 475.319 110.435 486.506 118.544L450.049 175.442Z" fill="#0055DC"/>
<path d="M450.05 175.442L495.264 126.154C496.329 127.258 497.358 128.398 498.351 129.573C499.343 130.749 500.296 131.965 501.206 133.222L450.05 175.442Z" fill="#FBAD41"/>
<path d="M450.05 175.442L501.198 133.232C501.99 134.317 502.75 135.425 503.479 136.558C504.209 137.691 504.904 138.845 505.567 140.022L450.05 175.442Z" fill="#F6821F"/>
<path d="M450.05 175.442L505.567 140.022C507.87 144.104 509.769 148.429 511.232 152.927L450.05 175.442Z" fill="#FF6633"/>
<path d="M450.05 175.442L511.224 152.927C515.962 167.49 515.968 183.323 511.244 197.891L450.05 175.442Z" fill="#6ECCE5"/>
<path d="M450.05 175.442L486.233 118.347L486.635 118.642L487.037 118.941L450.05 175.442Z" fill="#003682"/>
<path d="M450.049 213.663C469.897 213.663 485.988 196.551 485.988 175.442C485.988 154.333 469.897 137.22 450.049 137.22C430.201 137.22 414.111 154.333 414.111 175.442C414.111 196.551 430.201 213.663 450.049 213.663Z" fill="#E2F5FA"/>
<path d="M196.262 277.482H40.936V459.79H196.262V277.482Z" fill="#E2F5FA"/>
<path d="M68.9967 317.61C72.9665 317.61 76.1847 314.186 76.1847 309.965C76.1847 305.742 72.9665 302.32 68.9967 302.32C65.0269 302.32 61.8086 305.742 61.8086 309.965C61.8086 314.186 65.0269 317.61 68.9967 317.61Z" fill="#C5EBF5"/>
<path d="M179.821 302.32H87.1797V317.607H179.821V302.32Z" fill="#C5EBF5"/>
<path d="M68.9967 347.045C72.9665 347.045 76.1847 343.624 76.1847 339.4C76.1847 335.179 72.9665 331.756 68.9967 331.756C65.0269 331.756 61.8086 335.179 61.8086 339.4C61.8086 343.624 65.0269 347.045 68.9967 347.045Z" fill="#C5EBF5"/>
<path d="M179.821 331.756H87.1797V347.043H179.821V331.756Z" fill="#C5EBF5"/>
<path d="M68.9967 376.481C72.9665 376.481 76.1847 373.059 76.1847 368.836C76.1847 364.613 72.9665 361.191 68.9967 361.191C65.0269 361.191 61.8086 364.613 61.8086 368.836C61.8086 373.059 65.0269 376.481 68.9967 376.481Z" fill="#C5EBF5"/>
<path d="M179.821 361.191H87.1797V376.478H179.821V361.191Z" fill="#C5EBF5"/>
<path d="M68.9967 405.914C72.9665 405.914 76.1847 402.49 76.1847 398.269C76.1847 394.046 72.9665 390.624 68.9967 390.624C65.0269 390.624 61.8086 394.046 61.8086 398.269C61.8086 402.49 65.0269 405.914 68.9967 405.914Z" fill="#C5EBF5"/>
<path d="M179.821 390.627H87.1797V405.914H179.821V390.627Z" fill="#C5EBF5"/>
<path d="M68.9967 435.349C72.9665 435.349 76.1847 431.928 76.1847 427.705C76.1847 423.484 72.9665 420.06 68.9967 420.06C65.0269 420.06 61.8086 423.484 61.8086 427.705C61.8086 431.928 65.0269 435.349 68.9967 435.349Z" fill="#C5EBF5"/>
<path d="M179.821 420.062H87.1797V435.35H179.821V420.062Z" fill="#C5EBF5"/>
<path d="M559.231 277.482H207.763V459.79H559.231V277.482Z" fill="#E2F5FA"/>
<path d="M448.824 440.363H457.477V388.453H448.824V440.363Z" fill="#003682"/>
<path d="M440.17 440.365H448.823V411.009H440.17V440.365Z" fill="#0055DC"/>
<path d="M431.517 440.363H440.17V384.578H431.517V440.363Z" fill="#6ECCE5"/>
<path d="M416.376 440.363H425.029V405.852H416.376V440.363Z" fill="#003682"/>
<path d="M407.723 440.365H416.376V399.154H407.723V440.365Z" fill="#0055DC"/>
<path d="M399.068 440.363H407.721V378.648H399.068V440.363Z" fill="#6ECCE5"/>
<path d="M383.923 440.363H392.576V417.418H383.923V440.363Z" fill="#003682"/>
<path d="M375.273 440.363H383.926V405.852H375.273V440.363Z" fill="#0055DC"/>
<path d="M366.62 440.363H375.273V361.02H366.62V440.363Z" fill="#6ECCE5"/>
<path d="M351.474 440.365H360.127V414.869H351.474V440.365Z" fill="#003682"/>
<path d="M342.821 440.365H351.474V410.93H342.821V440.365Z" fill="#0055DC"/>
<path d="M334.168 440.363H342.821V357.703H334.168V440.363Z" fill="#6ECCE5"/>
<path d="M319.026 440.365H327.679V416.897H319.026V440.365Z" fill="#003682"/>
<path d="M310.374 440.363H319.027V407.641H310.374V440.363Z" fill="#0055DC"/>
<path d="M286.669 440.365H295.322V416.897H286.669V440.365Z" fill="#003682"/>
<path d="M278.018 440.363H286.671V407.641H278.018V440.363Z" fill="#0055DC"/>
<path d="M254.179 440.365H262.832V416.897H254.179V440.365Z" fill="#003682"/>
<path d="M245.526 440.363H254.179V407.641H245.526V440.363Z" fill="#0055DC"/>
<path d="M301.718 440.363H310.371V359.037H301.718V440.363Z" fill="#6ECCE5"/>
<path d="M269.271 440.365H277.924V309.245H269.271V440.365Z" fill="#6ECCE5"/>
<path d="M236.82 440.365H245.473V302.322H236.82V440.365Z" fill="#6ECCE5"/>
<path d="M479.126 439.829H223.799V440.897H479.126V439.829Z" fill="#0055DC"/>
<path d="M573.053 542.863C631.007 542.863 677.99 492.895 677.99 431.259C677.99 369.622 631.007 319.655 573.053 319.655C515.098 319.655 468.115 369.622 468.115 431.259C468.115 492.895 515.098 542.863 573.053 542.863Z" fill="white"/>
<path d="M573.053 545C551.901 545 531.225 538.33 513.637 525.832C496.05 513.333 482.341 495.569 474.246 474.785C466.152 454.003 464.034 431.133 468.162 409.069C472.287 387.006 482.473 366.739 497.43 350.832C512.387 334.925 531.444 324.092 552.188 319.704C572.934 315.314 594.438 317.567 613.979 326.176C633.522 334.784 650.225 349.364 661.976 368.069C673.728 386.771 680 408.763 680 431.259C679.968 461.415 668.69 490.324 648.641 511.649C628.59 532.972 601.407 544.966 573.053 545ZM573.053 321.792C552.696 321.792 532.796 328.212 515.87 340.24C498.944 352.269 485.751 369.366 477.96 389.368C470.169 409.37 468.131 431.381 472.102 452.614C476.075 473.849 485.878 493.355 500.272 508.664C514.666 523.972 533.007 534.397 552.972 538.623C572.938 542.846 593.634 540.679 612.442 532.393C631.249 524.107 647.325 510.076 658.635 492.075C669.944 474.073 675.981 452.909 675.981 431.259C675.951 402.236 665.095 374.412 645.8 353.891C626.504 333.369 600.342 321.824 573.053 321.792Z" fill="#FF6633"/>
<path d="M630.629 450.135H515.628V487.685C515.628 495.379 541.372 501.632 573.129 501.632C604.885 501.632 630.629 495.387 630.629 487.685V450.135Z" fill="#C5EBF5"/>
<path d="M573.128 502.701C544.766 502.701 514.623 497.437 514.623 487.685V449.066H631.632V487.685C631.632 497.437 601.489 502.701 573.128 502.701ZM516.633 451.195V487.676C516.633 493.767 539.835 500.555 573.128 500.555C606.422 500.555 629.622 493.767 629.622 487.676V451.195H516.633Z" fill="#0055DC"/>
<path d="M573.129 493.988C547.272 493.988 530.274 489.835 524.257 486.813C523.823 486.595 523.458 486.249 523.202 485.817C522.947 485.388 522.814 484.887 522.816 484.377V455.879C522.816 455.166 523.084 454.48 523.56 453.975C524.034 453.471 524.679 453.187 525.35 453.187H620.908C621.241 453.187 621.571 453.255 621.878 453.392C622.186 453.526 622.465 453.725 622.7 453.975C622.935 454.225 623.122 454.522 623.249 454.849C623.375 455.176 623.442 455.525 623.442 455.879V484.37C623.444 484.881 623.311 485.381 623.056 485.811C622.801 486.242 622.435 486.589 622.001 486.807C615.984 489.835 598.984 493.988 573.129 493.988Z" fill="white"/>
<path d="M536.505 482.526C538.733 482.526 540.54 480.604 540.54 478.234C540.54 475.864 538.733 473.943 536.505 473.943C534.276 473.943 532.47 475.864 532.47 478.234C532.47 480.604 534.276 482.526 536.505 482.526Z" fill="#0055DC"/>
<path d="M571.812 483.389C567.066 483.389 562.345 483.248 557.782 482.972L557.896 480.835C562.42 481.109 567.102 481.248 571.812 481.248C585.389 481.429 598.943 480.068 612.246 477.187L612.694 479.271C599.244 482.188 585.539 483.569 571.812 483.389Z" fill="#0055DC"/>
<path d="M573.129 464.439C604.885 464.439 630.629 458.194 630.629 450.491C630.629 442.789 604.885 436.544 573.129 436.544C541.372 436.544 515.628 442.789 515.628 450.491C515.628 458.194 541.372 464.439 573.129 464.439Z" fill="#C5EBF5"/>
<path d="M573.129 465.227C544.499 465.227 514.889 459.715 514.889 450.481C514.889 441.246 544.499 435.747 573.129 435.747C601.758 435.747 631.369 441.259 631.369 450.481C631.369 459.703 601.756 465.227 573.129 465.227ZM573.129 437.333C539.178 437.333 516.368 444.137 516.368 450.491C516.368 456.845 539.178 463.652 573.129 463.652C607.08 463.652 629.888 456.847 629.888 450.491C629.888 444.135 607.078 437.333 573.129 437.333Z" fill="#0055DC"/>
<path d="M573.128 460.154C543.835 460.154 526.945 455.191 521.483 451.861C521.256 451.725 521.069 451.526 520.937 451.286C520.806 451.047 520.738 450.776 520.738 450.5C520.738 450.222 520.806 449.951 520.937 449.711C521.069 449.472 521.256 449.273 521.483 449.136C526.937 445.807 543.827 440.844 573.128 440.844C602.429 440.844 619.311 445.807 624.773 449.136C625 449.273 625.187 449.472 625.32 449.711C625.45 449.951 625.518 450.222 625.518 450.5C625.518 450.776 625.45 451.047 625.32 451.286C625.187 451.526 625 451.725 624.773 451.861C619.311 455.185 602.421 460.154 573.128 460.154Z" fill="white"/>
<path d="M630.629 413.443H515.628V450.994C515.628 458.688 541.372 464.941 573.129 464.941C604.885 464.941 630.629 458.696 630.629 450.994V413.443Z" fill="#C5EBF5"/>
<path d="M573.128 466.009C544.766 466.009 514.623 460.746 514.623 450.994V412.375H631.632V450.994C631.632 460.746 601.489 466.009 573.128 466.009ZM516.633 414.503V450.985C516.633 457.076 539.835 463.864 573.128 463.864C606.422 463.864 629.622 457.076 629.622 450.985V414.503H516.633Z" fill="#0055DC"/>
<path d="M573.129 457.296C547.272 457.296 530.274 453.144 524.257 450.122C523.825 449.904 523.459 449.557 523.204 449.126C522.949 448.694 522.814 448.196 522.816 447.685V419.194C522.816 418.481 523.084 417.795 523.56 417.29C524.034 416.784 524.679 416.499 525.35 416.499H620.908C621.579 416.499 622.224 416.784 622.7 417.288C623.174 417.795 623.442 418.481 623.442 419.194V447.685C623.444 448.196 623.309 448.694 623.054 449.126C622.798 449.557 622.433 449.904 622.001 450.122C615.986 453.144 598.984 457.296 573.129 457.296Z" fill="white"/>
<path d="M536.505 445.832C538.733 445.832 540.54 443.911 540.54 441.541C540.54 439.171 538.733 437.249 536.505 437.249C534.276 437.249 532.47 439.171 532.47 441.541C532.47 443.911 534.276 445.832 536.505 445.832Z" fill="#0055DC"/>
<path d="M571.812 446.689C567.066 446.689 562.345 446.548 557.782 446.273L557.896 444.135C562.42 444.409 567.102 444.548 571.812 444.548C585.389 444.727 598.943 443.366 612.246 440.487L612.694 442.571C599.244 445.486 585.539 446.867 571.812 446.689Z" fill="#0055DC"/>
<path d="M573.129 427.747C604.885 427.747 630.629 421.503 630.629 413.8C630.629 406.098 604.885 399.853 573.129 399.853C541.372 399.853 515.628 406.098 515.628 413.8C515.628 421.503 541.372 427.747 573.129 427.747Z" fill="#C5EBF5"/>
<path d="M573.129 428.536C544.499 428.536 514.889 423.024 514.889 413.79C514.889 404.555 544.499 399.056 573.129 399.056C601.758 399.056 631.369 404.568 631.369 413.79C631.369 423.012 601.756 428.536 573.129 428.536ZM573.129 400.642C539.178 400.642 516.368 407.446 516.368 413.8C516.368 420.154 539.178 426.961 573.129 426.961C607.08 426.961 629.888 420.156 629.888 413.8C629.888 407.444 607.078 400.642 573.129 400.642Z" fill="#0055DC"/>
<path d="M573.128 423.456C543.835 423.456 526.945 418.493 521.483 415.161C521.256 415.025 521.067 414.828 520.937 414.589C520.806 414.349 520.738 414.078 520.738 413.8C520.738 413.522 520.806 413.251 520.937 413.011C521.067 412.772 521.256 412.575 521.483 412.439C526.937 409.109 543.827 404.144 573.128 404.144C602.429 404.144 619.311 409.109 624.773 412.439C625 412.575 625.189 412.772 625.32 413.011C625.45 413.251 625.518 413.522 625.518 413.8C625.518 414.078 625.45 414.349 625.32 414.589C625.189 414.828 625 415.025 624.773 415.161C619.311 418.493 602.421 423.456 573.128 423.456Z" fill="white"/>
<path d="M630.629 376.25H515.628V413.8C515.628 421.494 541.372 427.747 573.129 427.747C604.885 427.747 630.629 421.503 630.629 413.8V376.25Z" fill="#C5EBF5"/>
<path d="M573.128 428.816C544.766 428.816 514.623 423.554 514.623 413.8V376.613H631.632V413.8C631.632 423.554 601.489 428.816 573.128 428.816ZM516.633 377.31V413.792C516.633 419.882 539.835 426.67 573.128 426.67C606.422 426.67 629.622 419.882 629.622 413.792V377.31H516.633Z" fill="#0055DC"/>
<path d="M573.129 420.103C547.272 420.103 530.274 415.952 524.257 412.93C523.825 412.712 523.459 412.366 523.204 411.934C522.949 411.503 522.814 411.005 522.816 410.494V382.003C522.816 381.289 523.084 380.603 523.56 380.099C524.034 379.592 524.679 379.308 525.35 379.308H620.908C621.579 379.308 622.224 379.592 622.7 380.097C623.174 380.603 623.442 381.289 623.442 382.003V410.494C623.444 411.005 623.309 411.503 623.054 411.934C622.798 412.366 622.433 412.712 622.001 412.93C615.984 415.952 598.984 420.103 573.129 420.103Z" fill="white"/>
<path d="M536.505 408.946C538.733 408.946 540.54 407.025 540.54 404.655C540.54 402.285 538.733 400.364 536.505 400.364C534.276 400.364 532.47 402.285 532.47 404.655C532.47 407.025 534.276 408.946 536.505 408.946Z" fill="#0055DC"/>
<path d="M571.812 409.502C567.066 409.502 562.345 409.363 557.782 409.086L557.896 406.948C562.42 407.222 567.102 407.361 571.812 407.361C585.389 407.543 598.943 406.181 612.246 403.3L612.694 405.384C599.244 408.301 585.539 409.682 571.812 409.502Z" fill="#0055DC"/>
<path d="M573.129 390.556C604.885 390.556 630.629 384.311 630.629 376.609C630.629 368.906 604.885 362.661 573.129 362.661C541.372 362.661 515.628 368.906 515.628 376.609C515.628 384.311 541.372 390.556 573.129 390.556Z" fill="#C5EBF5"/>
<path d="M573.128 391.625C544.766 391.625 514.623 386.361 514.623 376.609C514.623 366.857 544.766 361.593 573.128 361.593C601.491 361.593 631.632 366.855 631.632 376.609C631.632 386.363 601.489 391.625 573.128 391.625ZM573.128 363.73C539.835 363.73 516.633 370.518 516.633 376.609C516.633 382.7 539.835 389.488 573.128 389.488C606.422 389.488 629.622 382.7 629.622 376.609C629.622 370.518 606.422 363.73 573.128 363.73Z" fill="#0055DC"/>
</svg>
