<svg width="105" height="113" viewBox="0 0 105 113" fill="none" xmlns="http://www.w3.org/2000/svg">
<path d="M0 67.7417V79.032L3.3871 77.4191V67.7417H0Z" fill="#1C2A4F"/>
<path d="M3.47395 41.8479H0V56.4517H3.47395V41.8479Z" fill="#A1D7F4"/>
<path d="M3.47395 32.3984H0V21.2308L11.2903 16.9355V20.3717L3.47395 22.9489V32.3984Z" fill="#A1D7F4"/>
<path d="M31.9142 9.03223L20.3228 14.301L21.1507 16.9355L32.7421 11.6666L31.9142 9.03223Z" fill="#A1D7F4"/>
<path d="M105 92.3752V79.2373L52.0732 58.7095L0 79.2373V92.3752L52.0732 112.903L105 92.3752Z" fill="#A1D7F4"/>
<path d="M65.4839 30.4839V63.5081L69.6237 66.0484V36.4113L86.1828 43.1855V71.9758L90.3226 74.5161V40.6452L65.4839 30.4839Z" fill="#A1D7F4"/>
<path d="M65.4839 65.1614V64.355L68.7957 65.9679V66.7743L65.4839 65.1614Z" fill="#1C2B4F"/>
<path d="M86.1828 74.0324V72.4195L90.3226 74.8389V75.6453L86.1828 74.0324Z" fill="#1C2B4F"/>
<path d="M100.785 79.0323V23.7947L55.2626 5.09886L54.4196 60.3365L51.8905 58.6368H51.0475L50.2045 5.09886L42.6174 7.64828L41.7744 4.24905L54.4196 0L105 21.2452V79.0323H100.785Z" fill="#A1D7F4"/>
<path d="M52.3794 58.7095L0 79.0321L52.3794 99.3546L103.871 79.0321L52.3794 58.7095Z" fill="#3D84BF"/>
</svg>
