<svg width="98" height="96" viewBox="0 0 98 96" fill="none" xmlns="http://www.w3.org/2000/svg">
<rect y="28" width="98" height="68" rx="5" fill="#4C84B5"/>
<rect x="7" y="33" width="84" height="50" rx="5" fill="#1C2A4F"/>
<rect x="35" y="86" width="30" height="4" rx="2" fill="#1C2B4F"/>
<path d="M15 83V4.52727C15.5597 1.4066 16.6363 0.518547 19.5 0H69.5L85 17.6061V83H82H15Z" fill="#E6E6E6"/>
<rect x="22" y="7" width="37" height="7" rx="3.5" fill="#3081CB"/>
<rect x="22" y="24" width="37" height="4" rx="2" fill="#3081CB"/>
<rect x="22" y="30" width="37" height="4" rx="2" fill="#3081CB"/>
<rect x="22" y="36" width="37" height="4" rx="2" fill="#3081CB"/>
<rect x="22" y="42" width="37" height="4" rx="2" fill="#3081CB"/>
<rect x="22" y="48" width="37" height="4" rx="2" fill="#3081CB"/>
<rect x="23" y="54" width="37" height="4" rx="2" fill="#3081CB"/>
<rect x="43" y="71" width="37" height="7" rx="3.5" fill="#3081CB"/>
</svg>
