<svg width="485" height="520" viewBox="0 0 485 520" fill="none" xmlns="http://www.w3.org/2000/svg">
<g clip-path="url(#clip0_295_312)">
<path d="M458.61 389.754L472.954 380.813C483.176 373.521 470.732 349.108 466.901 351.993L242.76 234.239L8.29004 352.421C2.34401 350.646 -7.70907 374.361 9.82252 381.907L227.328 515.783C235.189 520.412 242.269 521.585 248.2 517.495L458.61 389.754Z" fill="#193661"/>
<path d="M456.343 370.224L470.687 361.283C474.104 359 473.598 356.337 470.871 353.357L240.493 214.709L5.19532 353.246C2.36023 355.703 1.37944 358.366 7.54002 362.377L225.045 496.189C232.892 500.818 239.987 501.991 245.918 497.901L456.343 370.224Z" fill="#E4E9F6"/>
<path d="M162.106 424.646L242.393 473.219C246.331 476.69 252.492 472.616 252.599 472.363C252.706 472.109 333.177 423.219 333.177 423.219C333.821 422.538 335.338 420.049 332.533 416.751C313.96 406.907 252.645 370.937 251.312 370.081C248.133 368.988 244.82 368.368 241.473 368.242C240.967 368.543 166.121 415.261 162.765 416.894C159.409 418.527 160.91 424.598 162.106 424.646Z" fill="#456BB3"/>
<path d="M162.275 420.651L242.561 469.24C246.806 472.252 252.89 468.447 252.768 468.384C252.645 468.32 332.457 419.922 332.457 419.922C333.775 418.131 333.192 416.751 330.924 415.832L250.285 367.323C249.187 366.628 247.925 366.26 246.638 366.26C245.35 366.26 244.088 366.628 242.99 367.323C243.266 366.165 183.101 404.133 165.064 414.881C160.727 417.512 160.696 420.191 162.275 420.651Z" fill="#A1D7F4"/>
<path d="M266.192 357.304L346.479 405.829C350.417 409.301 356.578 405.227 356.685 404.973C356.792 404.719 436.374 356.511 436.374 356.511C436.374 356.511 439.439 351.232 436.589 349.298C419.731 337.932 355.98 303.975 354.172 303.912C351.827 302.66 346.004 300.488 345.513 300.741C345.023 300.995 270.161 347.761 266.805 349.393C263.449 351.026 264.997 357.256 266.192 357.304Z" fill="#456BB3"/>
<path d="M266.361 353.309L346.648 401.882C350.893 404.894 356.977 401.089 356.854 401.026C356.731 400.962 436.543 352.564 436.543 352.564C437.861 350.772 437.279 349.393 435.01 348.474L354.371 299.965C352.011 298.712 349.697 298.031 347.199 300.187C346.479 299.156 287.187 336.822 269.15 347.586C264.813 350.17 264.782 352.849 266.361 353.309Z" fill="#A1D7F4"/>
<path d="M279.709 350.471L288.52 355.798C288.949 356.178 289.639 355.798 289.639 355.703C289.639 355.608 298.39 350.376 298.39 350.376C298.39 350.376 298.727 349.806 298.39 349.584C296.535 348.347 289.532 344.622 289.348 344.606C289.041 344.454 288.716 344.342 288.382 344.273C288.382 344.273 280.122 349.425 279.755 349.599C279.387 349.774 279.586 350.455 279.709 350.471Z" fill="#3D84BF"/>
<path d="M279.724 350.027L288.536 355.354C288.713 355.445 288.911 355.484 289.108 355.467C289.305 355.45 289.494 355.378 289.654 355.259C289.654 355.259 298.405 349.948 298.405 349.948C298.405 349.948 298.497 349.599 298.236 349.488L289.394 344.178C289.28 344.085 289.14 344.035 288.995 344.035C288.851 344.035 288.711 344.085 288.597 344.178C288.597 344.067 282.023 348.204 280.03 349.378C279.555 349.679 279.555 349.98 279.724 350.027Z" fill="#FAFCFE"/>
<path d="M196.265 428.419L180.833 419.145C180.342 416.625 180.174 415.562 181.201 414.913L196.709 409.523C197.874 408.762 198.763 408.777 199.452 409.38L214.639 414.374C215.283 414.595 214.854 419.256 213.49 419.906L199.974 428.72C199.379 428.99 198.73 429.104 198.083 429.051C197.436 428.999 196.811 428.781 196.265 428.419V428.419Z" fill="#3D84BF"/>
<path d="M196.265 424.424L181.354 415.499C180.94 415.214 180.879 415.024 181.14 414.913L196.648 405.528C197.813 404.767 198.702 404.783 199.391 405.385L214.578 414.374C215.207 414.738 214.793 415.261 213.429 415.959L199.913 424.773C199.323 425.025 198.683 425.125 198.047 425.064C197.412 425.003 196.8 424.784 196.265 424.424V424.424Z" fill="#FAFCFE"/>
<path d="M221.781 412.725L206.287 403.451C205.797 400.93 205.628 399.868 206.655 399.218L222.164 393.828C223.329 393.068 224.217 393.083 224.907 393.686L240.094 398.679C240.738 398.901 240.309 403.562 238.945 404.212L225.428 413.026C224.842 413.285 224.204 413.393 223.569 413.34C222.933 413.288 222.32 413.077 221.781 412.725Z" fill="#3D84BF"/>
<path d="M221.781 408.73L206.885 399.805C206.471 399.52 206.41 399.329 206.67 399.218L222.21 389.834C223.374 389.073 224.263 389.088 224.953 389.691L240.14 398.679C240.768 399.044 240.354 399.567 238.99 400.265L225.428 408.999C224.844 409.263 224.207 409.376 223.572 409.329C222.937 409.282 222.322 409.077 221.781 408.73Z" fill="#FAFCFE"/>
<path d="M247.711 396.603L232.217 387.329C231.727 384.808 231.558 383.746 232.585 383.096L248.094 377.706C249.258 376.945 250.147 376.961 250.837 377.564L266.024 382.557C266.667 382.779 266.238 387.44 264.874 388.09L251.327 396.904C250.745 397.157 250.113 397.262 249.483 397.21C248.854 397.157 248.246 396.949 247.711 396.603V396.603Z" fill="#3D84BF"/>
<path d="M247.71 392.608L232.799 383.635C232.386 383.35 232.324 383.16 232.585 383.049L248.094 373.664C249.258 372.903 250.147 372.919 250.837 373.521L266.024 382.51C266.652 382.874 266.238 383.397 264.874 384.095L251.327 392.909C250.745 393.162 250.113 393.267 249.483 393.215C248.854 393.162 248.246 392.954 247.71 392.608V392.608Z" fill="#FAFCFE"/>
<path d="M209.782 434.665C211.322 434.665 212.571 433.707 212.571 432.525C212.571 431.343 211.322 430.385 209.782 430.385C208.241 430.385 206.993 431.343 206.993 432.525C206.993 433.707 208.241 434.665 209.782 434.665Z" fill="#FAFCFE"/>
<path d="M216.049 430.908C217.59 430.908 218.838 429.95 218.838 428.768C218.838 427.586 217.59 426.628 216.049 426.628C214.509 426.628 213.26 427.586 213.26 428.768C213.26 429.95 214.509 430.908 216.049 430.908Z" fill="#FAFCFE"/>
<path d="M222.317 427.198C223.858 427.198 225.107 426.24 225.107 425.058C225.107 423.876 223.858 422.918 222.317 422.918C220.777 422.918 219.528 423.876 219.528 425.058C219.528 426.24 220.777 427.198 222.317 427.198Z" fill="#FAFCFE"/>
<path d="M233.75 418.638C235.29 418.638 236.539 417.68 236.539 416.498C236.539 415.316 235.29 414.358 233.75 414.358C232.209 414.358 230.96 415.316 230.96 416.498C230.96 417.68 232.209 418.638 233.75 418.638Z" fill="#FAFCFE"/>
<path d="M240.018 414.881C241.558 414.881 242.807 413.923 242.807 412.741C242.807 411.559 241.558 410.601 240.018 410.601C238.477 410.601 237.229 411.559 237.229 412.741C237.229 413.923 238.477 414.881 240.018 414.881Z" fill="#FAFCFE"/>
<path d="M246.285 411.171C247.826 411.171 249.074 410.213 249.074 409.031C249.074 407.849 247.826 406.891 246.285 406.891C244.745 406.891 243.496 407.849 243.496 409.031C243.496 410.213 244.745 411.171 246.285 411.171Z" fill="#FAFCFE"/>
<path d="M258.53 401.945C260.07 401.945 261.319 400.987 261.319 399.805C261.319 398.623 260.07 397.665 258.53 397.665C256.989 397.665 255.741 398.623 255.741 399.805C255.741 400.987 256.989 401.945 258.53 401.945Z" fill="#FAFCFE"/>
<path d="M264.797 398.188C266.338 398.188 267.587 397.23 267.587 396.048C267.587 394.866 266.338 393.908 264.797 393.908C263.257 393.908 262.008 394.866 262.008 396.048C262.008 397.23 263.257 398.188 264.797 398.188Z" fill="#FAFCFE"/>
<path d="M271.05 394.478C272.591 394.478 273.839 393.52 273.839 392.338C273.839 391.156 272.591 390.198 271.05 390.198C269.51 390.198 268.261 391.156 268.261 392.338C268.261 393.52 269.51 394.478 271.05 394.478Z" fill="#FAFCFE"/>
<path d="M251.618 463.913L277.548 448.298C279.203 447.236 278.559 446.079 276.92 444.874L245.044 425.486L244.554 425.787L240.171 428.768C237.949 427.087 235.696 424.931 233.688 425.597L211.758 438.787C209.536 439.896 210.042 440.784 211.758 441.577L247.956 463.374L249.335 464.088C249.698 464.261 250.099 464.336 250.498 464.306C250.898 464.275 251.283 464.14 251.618 463.913V463.913Z" fill="#FAFCFE"/>
<path d="M240.171 428.768C238.406 427.287 236.382 426.173 234.209 425.486C237.815 425.193 241.438 425.193 245.044 425.486" fill="#3D84BF"/>
<path d="M240.983 456.209L250.852 462.201L275.065 447.3L264.844 441.022L240.983 456.209Z" fill="#DBE1F2"/>
<path d="M216.724 441.26L235.435 429.751C235.435 428.768 235.175 428.276 234.24 428.419L215.85 439.69C215.222 440.8 215.682 441.228 216.724 441.26Z" fill="#4C84B5"/>
<path d="M219.022 443.241L237.734 431.732C237.734 430.765 237.489 430.274 236.539 430.401L218.149 441.672C217.612 442.797 217.995 443.21 219.022 443.241Z" fill="#4C84B5"/>
<path d="M237.366 436.028L247.098 429.529C247.098 428.974 246.975 428.704 246.485 428.768L236.891 435.109C236.585 435.775 236.83 435.949 237.366 436.028Z" fill="#4C84B5"/>
<path d="M240.171 437.645L249.902 431.146C249.902 430.591 249.779 430.321 249.289 430.401L239.695 436.742C239.389 437.392 239.634 437.629 240.171 437.645Z" fill="#4C84B5"/>
<path d="M229.872 449.138L253.856 434.364C253.856 433.111 253.534 432.493 252.323 432.652L228.662 447.109C227.926 448.631 228.524 449.107 229.872 449.138Z" fill="#4C84B5"/>
<path d="M232.569 451.041L256.89 436.108C256.966 434.839 256.568 434.221 255.357 434.38L231.405 449.012C230.623 450.454 231.221 451.009 232.569 451.041Z" fill="#4C84B5"/>
<path d="M235.88 452.848L260.399 437.788C260.476 436.52 260.062 435.886 258.867 436.044L234.776 450.803C233.933 452.261 234.47 452.816 235.88 452.848Z" fill="#4C84B5"/>
<path d="M238.745 454.972L263.05 439.976C263.05 438.707 262.729 438.073 261.518 438.248L237.535 452.896C236.799 454.354 237.397 454.972 238.745 454.972Z" fill="#4C84B5"/>
<path d="M236.477 439.548L225.995 446.142C222.93 446.776 221.689 446 222.532 443.638L233.627 436.742C236.079 436.298 237.09 437.186 236.477 439.548Z" fill="#EE3024"/>
<path d="M259.541 422.966L290.099 404.244C290.804 401.691 290.099 400.059 286.16 400.677L256.231 418.638C255.863 419.082 255.63 419.63 255.561 420.211C255.493 420.792 255.593 421.381 255.848 421.904C256.262 422.696 257.457 423.029 259.541 422.966Z" fill="#FAFCFE"/>
<path d="M267.817 428.387L298.374 409.618C299.079 407.065 298.374 405.449 294.436 406.051L264.506 424.06C264.138 424.504 263.905 425.051 263.837 425.632C263.769 426.214 263.868 426.803 264.123 427.325C264.537 428.102 265.794 428.451 267.817 428.387Z" fill="#FAFCFE"/>
<path d="M276.092 434.142L306.65 415.341C307.355 412.788 306.65 411.171 302.711 411.774L272.782 429.814C272.413 430.255 272.179 430.8 272.111 431.379C272.043 431.957 272.143 432.544 272.399 433.064C272.782 433.856 274.069 434.189 276.092 434.142Z" fill="#FAFCFE"/>
<path d="M285.21 438.422L315.768 419.652C316.473 417.1 315.768 415.483 311.83 416.086L281.977 434.094C281.615 434.539 281.386 435.083 281.318 435.66C281.25 436.237 281.346 436.822 281.594 437.344C281.977 438.137 283.187 438.47 285.21 438.422Z" fill="#FAFCFE"/>
<path d="M149.754 411.552L178.442 394.732C182.202 391.688 182.044 389.12 177.967 387.028L150.858 370.541C149.269 369.603 147.497 369.046 145.673 368.909C143.848 368.771 142.017 369.058 140.314 369.748L111.626 387.662C109.097 389.421 108.255 391.498 111.626 394.367L139.9 411.552C144.053 413.216 147.241 413.121 149.754 411.552Z" fill="#FAFCFE"/>
<path d="M203.544 378.879L232.232 362.044C235.992 359 235.834 356.432 231.757 354.339L204.648 337.868C203.059 336.931 201.287 336.373 199.463 336.236C197.638 336.099 195.807 336.386 194.104 337.076L165.416 355.1C162.887 356.86 162.045 358.937 165.416 361.806L193.69 378.879C197.797 380.591 201.031 380.465 203.544 378.879Z" fill="#FAFCFE"/>
<path d="M256.231 346.397L284.919 329.562C288.679 326.518 288.52 323.95 284.444 321.857L257.334 305.386C255.745 304.449 253.974 303.891 252.149 303.754C250.325 303.617 248.494 303.904 246.791 304.594L218.103 322.507C215.574 324.267 214.731 326.344 218.103 329.213L246.377 346.397C250.484 348.062 253.717 347.967 256.231 346.397Z" fill="#FAFCFE"/>
<path d="M307.814 314.153L336.502 297.317C340.252 294.274 340.094 291.705 336.027 289.613L308.918 273.142C307.329 272.204 305.557 271.647 303.733 271.51C301.908 271.372 300.078 271.659 298.374 272.349L269.717 290.263C267.188 292.022 266.345 294.099 269.717 296.968L297.991 314.153C302.068 315.817 305.301 315.722 307.814 314.153Z" fill="#FAFCFE"/>
<path d="M102.124 378.642L130.812 361.806C134.562 358.762 134.404 356.194 130.337 354.102L103.228 337.662C101.639 336.725 99.8672 336.167 98.0428 336.03C96.2184 335.893 94.3875 336.18 92.6842 336.87L63.9962 354.783C61.4676 356.543 60.6247 358.62 63.9962 361.489L92.2705 378.673C96.3928 380.306 99.6111 380.211 102.124 378.642Z" fill="#FAFCFE"/>
<path d="M101.374 374.583L125.28 360.918C128.345 358.429 128.345 356.353 124.882 354.656L102.293 341.261C100.962 340.5 99.4871 340.049 97.9703 339.939C96.4535 339.83 94.9319 340.064 93.5119 340.627L69.6052 355.18C67.5057 356.606 66.8008 358.35 69.6052 360.617L93.1595 374.583C96.5463 375.947 99.2894 375.867 101.374 374.583Z" fill="#E4E9F6"/>
<path d="M171.914 336.077L200.602 319.273C204.351 316.23 204.193 313.661 200.127 311.569L173.017 295.082C171.427 294.147 169.655 293.592 167.831 293.458C166.006 293.323 164.176 293.613 162.474 294.305L133.786 312.203C131.257 313.978 130.414 316.055 133.786 318.909L162.06 336.077C166.182 337.773 169.416 337.662 171.914 336.077Z" fill="#FAFCFE"/>
<path d="M171.163 332.051L195.07 318.37C198.196 315.897 198.063 313.783 194.671 312.029L172.082 298.649C170.754 297.881 169.279 297.425 167.762 297.313C166.244 297.2 164.721 297.435 163.301 297.999L139.456 312.631C137.356 314.074 136.651 315.801 139.456 318.084L163.01 332.051C166.382 333.414 169.079 333.319 171.163 332.051Z" fill="#E4E9F6"/>
<path d="M239.42 292.197L268.184 275.361C271.924 272.318 271.76 269.749 267.694 267.657L240.6 251.186C239.009 250.246 237.235 249.687 235.407 249.55C233.58 249.413 231.746 249.701 230.041 250.393L201.353 268.307C198.824 270.082 197.997 272.159 201.353 275.013L229.627 292.197C233.673 293.877 236.906 293.766 239.42 292.197Z" fill="#FAFCFE"/>
<path d="M238.669 288.154L262.56 274.474C265.687 272.001 265.554 269.913 262.162 268.212L239.588 254.816C238.255 254.055 236.777 253.604 235.258 253.494C233.739 253.385 232.215 253.619 230.792 254.182L206.885 268.735C204.786 270.177 204.096 271.905 206.885 274.188L230.455 288.154C233.888 289.502 236.569 289.423 238.669 288.154Z" fill="#E4E9F6"/>
<path d="M63.6443 371.841C65.9211 371.841 67.7667 370.506 67.7667 368.86C67.7667 367.214 65.9211 365.88 63.6443 365.88C61.3676 365.88 59.522 367.214 59.522 368.86C59.522 370.506 61.3676 371.841 63.6443 371.841Z" fill="#FAFCFE"/>
<path d="M72.471 377.342C74.7477 377.342 76.5934 376.007 76.5934 374.361C76.5934 372.715 74.7477 371.381 72.471 371.381C70.1943 371.381 68.3486 372.715 68.3486 374.361C68.3486 376.007 70.1943 377.342 72.471 377.342Z" fill="#FAFCFE"/>
<path d="M81.7117 382.842C83.9885 382.842 85.8341 381.508 85.8341 379.862C85.8341 378.216 83.9885 376.882 81.7117 376.882C79.435 376.882 77.5894 378.216 77.5894 379.862C77.5894 381.508 79.435 382.842 81.7117 382.842Z" fill="#FAFCFE"/>
<path d="M134.046 328.928C136.323 328.928 138.169 327.593 138.169 325.947C138.169 324.301 136.323 322.967 134.046 322.967C131.769 322.967 129.924 324.301 129.924 325.947C129.924 327.593 131.769 328.928 134.046 328.928Z" fill="#FAFCFE"/>
<path d="M142.873 334.413C145.15 334.413 146.996 333.078 146.996 331.432C146.996 329.786 145.15 328.452 142.873 328.452C140.597 328.452 138.751 329.786 138.751 331.432C138.751 333.078 140.597 334.413 142.873 334.413Z" fill="#FAFCFE"/>
<path d="M152.114 339.913C154.391 339.913 156.236 338.579 156.236 336.933C156.236 335.287 154.391 333.953 152.114 333.953C149.837 333.953 147.992 335.287 147.992 336.933C147.992 338.579 149.837 339.913 152.114 339.913Z" fill="#FAFCFE"/>
<path d="M200.909 285.142C203.185 285.142 205.031 283.808 205.031 282.162C205.031 280.516 203.185 279.182 200.909 279.182C198.632 279.182 196.786 280.516 196.786 282.162C196.786 283.808 198.632 285.142 200.909 285.142Z" fill="#FAFCFE"/>
<path d="M209.736 290.627C212.012 290.627 213.858 289.293 213.858 287.647C213.858 286.001 212.012 284.667 209.736 284.667C207.459 284.667 205.613 286.001 205.613 287.647C205.613 289.293 207.459 290.627 209.736 290.627Z" fill="#FAFCFE"/>
<path d="M218.976 296.128C221.253 296.128 223.099 294.794 223.099 293.148C223.099 291.502 221.253 290.168 218.976 290.168C216.7 290.168 214.854 291.502 214.854 293.148C214.854 294.794 216.7 296.128 218.976 296.128Z" fill="#FAFCFE"/>
<path d="M71.6284 356.987L94.7995 370.826C96.4546 372.776 98.4315 372.681 100.684 370.636L123.671 356.987V290.786C123.671 289.866 123.472 289.121 123.166 288.947L72.0268 289.217C71.5965 290.266 71.4688 291.422 71.659 292.546L71.6284 356.987Z" fill="#2B3A65"/>
<path d="M96.5466 273.617L122.599 288.646C123.104 288.82 122.951 289.074 122.354 289.359L99.9334 301.708C97.5427 303.452 95.3359 303.785 93.1291 301.819L72.0269 289.217L96.1788 273.617C96.2293 273.571 96.2948 273.545 96.3627 273.545C96.4305 273.545 96.496 273.571 96.5466 273.617V273.617Z" fill="#A1D8F5"/>
<path d="M95.9946 303.706L97.5271 371.968V372.237C98.7006 372.11 99.7896 371.547 100.592 370.652L123.579 357.003V290.786C123.487 289.898 123.487 288.915 122.859 288.82L97.6037 302.945C97.1131 303.127 96.5905 303.197 96.0713 303.151L95.9946 303.706Z" fill="#5193CF"/>
<path d="M140.682 298.696V315.136L163.194 327.818C164.849 329.768 167.071 330.56 169.324 328.531L192.847 315.183L193.292 232.622C193.292 231.703 193.093 231.037 192.786 230.784L141.678 231.053C141.241 232.101 141.107 233.257 141.295 234.382L140.682 298.696Z" fill="#2B3A65"/>
<path d="M166.32 215.121L192.373 230.149C192.878 230.34 192.725 230.577 192.127 230.879L169.707 243.212C167.316 244.956 165.11 245.289 162.903 243.323L141.77 230.641L165.922 215.042C165.953 215.018 165.988 215.002 166.025 214.993C166.062 214.984 166.101 214.984 166.138 214.991C166.175 214.999 166.211 215.014 166.242 215.036C166.274 215.059 166.3 215.088 166.32 215.121V215.121Z" fill="#A1D8F5"/>
<path d="M165.815 245.225L167.439 313.471L167.286 329.942C168.251 329.942 167.654 330.354 168.726 329.371L193.246 315.104L193.384 232.353C193.384 231.481 193.384 230.482 192.679 230.387L167.378 244.512C166.857 244.702 166.304 244.778 165.753 244.734L165.815 245.225Z" fill="#5193CF"/>
<path d="M209.95 229.563L210.395 272.571L220.969 279.515L234.301 286.934C235.956 288.884 237.366 287.568 239.588 286.109L262.162 273.047L262.576 163.394C262.499 162.49 262.376 161.808 262.07 161.555L210.962 161.824C210.527 162.873 210.394 164.029 210.579 165.153L209.95 229.563Z" fill="#2B3A65"/>
<path d="M235.635 146.146L261.855 161.174C262.361 161.365 262.208 161.618 261.61 161.904L239.067 174.253C236.661 175.997 234.363 176.314 232.232 174.348L211.023 161.666L235.251 146.083C235.313 146.046 235.384 146.032 235.454 146.044C235.524 146.055 235.588 146.091 235.635 146.146V146.146Z" fill="#A1D8F5"/>
<path d="M234.93 176.456L236.462 244.702L236.324 287.6C237.274 287.6 237.458 287.917 238.531 286.934L261.518 272.381L262.484 163.521C262.392 162.649 262.392 161.65 261.763 161.555L236.462 175.68C235.971 175.86 235.45 175.935 234.93 175.901V176.456Z" fill="#5193CF"/>
<path d="M478.594 329.07L479.284 194.053C479.207 184.811 476.679 178.47 469.767 174.126L299.018 70.8298C295.631 70.7347 288.95 72.4151 289.057 75.6966L293.149 93.8638V208.653C293.363 219.544 295.064 230.466 324.396 242.039L467.147 329.07C468.465 329.99 467.729 334.904 469.047 335.3C472.005 336.172 476.311 331.036 478.594 329.07Z" fill="#193661"/>
<path d="M471.744 332.907V197.572C471.668 188.33 469.139 181.989 462.227 177.645L291.478 74.3491C288.413 75.2686 285.977 76.5051 285.885 79.2L285.609 97.3831V212.172C285.823 223.063 287.524 233.986 316.856 245.558L459.607 332.589C463.913 335.601 468.449 335.808 471.744 332.907Z" fill="#9FD7F5"/>
<path d="M454.549 315.183V198.555C454.549 190.629 452.312 185.128 446.35 181.386L299.232 92.4053C296.642 93.198 294.497 94.2601 294.42 96.5746L294.236 112.253V211.126C294.42 220.511 295.876 229.912 321.147 239.883L444.113 314.85C447.822 317.45 451.714 317.64 454.549 315.183Z" fill="#193661"/>
<path d="M275.219 352.786L310.19 373.933C311.906 375.519 314.588 373.664 314.634 373.553C314.68 373.442 349.406 352.453 349.406 352.453C349.406 352.453 350.755 350.154 349.498 349.282C342.173 344.336 314.389 329.546 313.607 329.514C312.415 328.888 311.147 328.429 309.837 328.151C309.623 328.293 277.027 348.632 275.556 349.346C274.085 350.059 274.698 352.754 275.219 352.786Z" fill="#3D84BF"/>
<path d="M275.295 351.042L310.251 372.189C312.105 373.505 314.756 371.841 314.695 371.809C314.634 371.777 349.406 350.709 349.406 350.709C349.973 349.932 349.728 349.346 348.716 348.934L313.607 327.802C313.155 327.473 312.612 327.305 312.059 327.322C311.507 327.339 310.975 327.541 310.542 327.897C310.22 327.453 284.413 343.861 276.552 348.506C274.621 349.679 274.605 350.836 275.295 351.042Z" fill="#FAFCFE"/>
<path d="M315.124 378.055L350.095 399.203C351.812 400.788 354.494 398.933 354.54 398.822C354.586 398.711 389.25 377.722 389.25 377.722C389.25 377.722 390.599 375.423 389.342 374.552C382.017 369.606 354.233 354.815 353.452 354.783C352.259 354.157 350.991 353.698 349.682 353.42C349.467 353.563 316.871 373.902 315.4 374.615C313.929 375.328 314.603 378.023 315.124 378.055Z" fill="#3D84BF"/>
<path d="M315.201 376.311L350.157 397.459C352.011 398.774 354.662 397.126 354.601 397.094C354.54 397.062 389.327 375.978 389.327 375.978C389.894 375.202 389.649 374.615 388.638 374.203L353.528 353.071C353.076 352.743 352.533 352.574 351.981 352.591C351.428 352.608 350.896 352.81 350.463 353.166C350.142 352.722 324.335 369.13 316.473 373.775C314.527 374.948 314.511 376.105 315.201 376.311Z" fill="#FAFCFE"/>
<path d="M315.124 327.342L322.557 331.29C322.741 331.385 323.246 331.971 325.131 330.64C333.989 324.299 361.053 308.446 361.42 308.129C361.462 308.04 361.484 307.944 361.485 307.845C361.487 307.747 361.467 307.65 361.427 307.56C361.388 307.471 361.329 307.391 361.257 307.328C361.184 307.265 361.099 307.219 361.007 307.194C358.382 306.466 355.847 305.429 353.451 304.102C352.262 303.472 350.993 303.018 349.682 302.755C349.467 302.882 316.871 323.221 315.4 323.934C313.929 324.647 314.603 327.326 315.124 327.342Z" fill="#3D84BF"/>
<path d="M315.201 325.598L321.806 329.609C322.12 329.851 322.502 329.982 322.894 329.982C323.286 329.982 323.667 329.851 323.982 329.609L361.221 307.225L353.559 302.311C353.107 301.982 352.564 301.814 352.011 301.831C351.459 301.848 350.926 302.05 350.494 302.406C350.172 301.946 324.365 318.354 316.504 323.014C314.527 324.235 314.511 325.392 315.201 325.598Z" fill="#FAFCFE"/>
<path d="M327.093 334.397L390.032 372.285C390.705 372.852 391.547 373.163 392.415 373.163C393.283 373.163 394.125 372.852 394.798 372.285L428.957 352.104C429.677 350.598 429.693 349.425 428.697 348.791L364.577 310.491C364.282 310.296 363.939 310.193 363.589 310.193C363.239 310.193 362.896 310.296 362.6 310.491L327.047 331.099C326.495 331.416 326.204 331.48 326.189 331.607C325.928 332.906 325.576 333.43 327.093 334.397Z" fill="#3D84BF"/>
<path d="M327.415 333.144L390.354 371.032C391.027 371.6 391.869 371.91 392.737 371.91C393.605 371.91 394.447 371.6 395.12 371.032L429.279 350.868C429.999 349.282 430.015 348.189 429.019 347.539L364.9 309.175C364.603 308.984 364.26 308.883 363.911 308.883C363.562 308.883 363.219 308.984 362.923 309.175L327.216 330.64C325.852 331.321 325.745 332.082 327.415 333.144Z" fill="#FAFCFE"/>
<path d="M367.413 352.469L397.97 333.715C398.675 331.163 397.97 329.546 394.032 330.148L364.103 348.157C363.749 348.59 363.525 349.121 363.457 349.683C363.389 350.246 363.48 350.817 363.719 351.327C364.133 352.199 365.39 352.532 367.413 352.469Z" fill="#A1D7F4"/>
<path d="M375.688 357.89L406.246 339.121C406.951 336.568 406.246 334.952 402.307 335.554L372.393 353.515C372.025 353.959 371.792 354.507 371.724 355.088C371.655 355.669 371.755 356.258 372.01 356.781C372.393 357.621 373.665 357.954 375.688 357.89Z" fill="#A1D7F4"/>
<path d="M383.964 363.645L414.521 344.875C415.226 342.323 414.521 340.706 410.583 341.308L380.653 359.317C380.285 359.762 380.052 360.309 379.984 360.89C379.916 361.471 380.015 362.06 380.27 362.583C380.684 363.36 381.941 363.708 383.964 363.645Z" fill="#A1D7F4"/>
<path d="M393.097 367.925L423.639 349.156C424.344 346.603 423.639 344.986 419.716 345.589L389.787 363.597C389.418 364.042 389.185 364.589 389.117 365.17C389.049 365.751 389.149 366.34 389.404 366.863C389.802 367.64 391.059 367.989 393.097 367.925Z" fill="#A1D7F4"/>
<path d="M288.107 355.338L279.279 350.059C279.019 349.901 278.988 349.79 279.142 349.71L288.336 344.146C289.026 343.702 289.547 343.718 289.961 344.067L298.957 349.393C299.324 349.615 299.079 349.916 298.267 350.297L290.267 355.528C289.919 355.678 289.541 355.738 289.165 355.705C288.789 355.672 288.426 355.546 288.107 355.338V355.338Z" fill="#EE3024"/>
<path d="M300.075 362.456L291.248 357.177C290.988 357.003 290.957 356.892 291.11 356.828L300.305 351.264C300.995 350.804 301.516 350.82 301.93 351.185L310.925 356.495C311.293 356.717 311.048 357.018 310.236 357.415L302.236 362.63C301.89 362.787 301.511 362.854 301.135 362.823C300.758 362.793 300.394 362.667 300.075 362.456V362.456Z" fill="#EE3024"/>
<path d="M312.381 369.368L303.554 364.089C303.309 363.93 303.263 363.803 303.416 363.74L312.611 358.176C313.301 357.732 313.822 357.732 314.235 358.176L323.231 363.502C323.599 363.724 323.354 364.025 322.541 364.406L314.542 369.637C314.187 369.775 313.806 369.822 313.43 369.776C313.054 369.729 312.694 369.589 312.381 369.368V369.368Z" fill="#EE3024"/>
<path d="M326.174 380.005L317.347 374.726C317.101 374.567 317.071 374.456 317.209 374.377L326.404 368.813C327.093 368.369 327.614 368.385 328.028 368.734L337.024 374.06C337.391 374.282 337.146 374.583 336.334 374.964L328.334 380.195C327.986 380.344 327.608 380.405 327.232 380.372C326.856 380.339 326.493 380.213 326.174 380.005Z" fill="#A1D7F4"/>
<path d="M338.173 387.123L329.346 381.844C329.1 381.669 329.07 381.558 329.208 381.495L338.403 375.931C339.092 375.471 339.613 375.487 340.027 375.931L349.023 381.241C349.39 381.463 349.145 381.765 348.333 382.161L340.333 387.376C339.981 387.522 339.599 387.575 339.222 387.531C338.845 387.486 338.485 387.346 338.173 387.123V387.123Z" fill="#A1D7F4"/>
<path d="M350.479 394.098L341.652 388.819C341.407 388.645 341.376 388.534 341.514 388.47L350.709 382.906C351.398 382.462 351.935 382.462 352.333 382.906L361.329 388.232C361.697 388.454 361.451 388.756 360.639 389.136L352.64 394.367C352.285 394.505 351.904 394.553 351.527 394.506C351.151 394.459 350.792 394.319 350.479 394.098V394.098Z" fill="#A1D7F4"/>
<path d="M339.062 372.966L330.235 367.687C329.99 367.513 329.959 367.402 330.112 367.339L339.307 361.774C339.997 361.33 340.533 361.33 340.932 361.695L349.927 367.022C350.295 367.228 350.065 367.545 349.253 367.925L341.238 373.157C340.887 373.309 340.506 373.371 340.127 373.337C339.749 373.304 339.383 373.177 339.062 372.966V372.966Z" fill="#EE3024"/>
<path d="M351.061 380.068L342.234 374.789C341.989 374.631 341.958 374.52 342.111 374.441L351.306 368.892C351.996 368.432 352.532 368.448 352.931 368.797L361.926 374.124C362.294 374.345 362.064 374.647 361.252 375.027L353.237 380.258C352.887 380.415 352.506 380.479 352.126 380.446C351.746 380.412 351.38 380.283 351.061 380.068V380.068Z" fill="#EE3024"/>
<path d="M363.367 387.059L354.54 381.78C354.295 381.606 354.264 381.495 354.417 381.432L363.612 375.867C364.302 375.408 364.838 375.423 365.237 375.867L374.232 381.178C374.6 381.4 374.37 381.701 373.558 382.097L365.543 387.313C365.189 387.461 364.804 387.516 364.424 387.471C364.044 387.427 363.681 387.285 363.367 387.059V387.059Z" fill="#EE3024"/>
<path d="M351.214 366.023L342.387 360.744C342.142 360.585 342.111 360.474 342.265 360.395L351.459 354.831C352.149 354.387 352.685 354.387 353.084 354.752L362.08 360.078C362.447 360.3 362.217 360.601 361.405 360.982L353.39 366.213C353.04 366.365 352.659 366.427 352.28 366.394C351.901 366.361 351.535 366.234 351.214 366.023V366.023Z" fill="#456BB3"/>
<path d="M363.198 373.141L354.371 367.862C354.126 367.687 354.095 367.576 354.248 367.513L363.443 361.949C364.133 361.489 364.669 361.505 365.068 361.949L374.064 367.259C374.431 367.481 374.201 367.783 373.389 368.179L365.374 373.394C365.02 373.543 364.635 373.597 364.255 373.553C363.875 373.509 363.512 373.367 363.198 373.141V373.141Z" fill="#456BB3"/>
<path d="M375.458 380.116L366.631 374.837C366.386 374.663 366.355 374.552 366.508 374.488L375.703 368.924C376.393 368.48 376.929 368.48 377.343 368.845L386.323 374.171C386.691 374.393 386.461 374.694 385.649 375.075L377.634 380.306C377.283 380.458 376.902 380.52 376.523 380.487C376.145 380.454 375.779 380.327 375.458 380.116Z" fill="#456BB3"/>
<path d="M341.59 336.965L372.132 318.195C372.853 315.643 372.132 314.026 368.209 314.628L338.28 332.637C337.911 333.081 337.678 333.629 337.61 334.21C337.542 334.791 337.642 335.38 337.897 335.903C338.311 336.695 339.567 337.028 341.59 336.965Z" fill="#A1D7F4"/>
<path d="M349.866 342.418L380.408 323.649C381.128 321.096 380.408 319.479 376.485 320.082L346.556 338.09C346.187 338.535 345.954 339.082 345.886 339.663C345.818 340.244 345.918 340.833 346.173 341.356C346.586 342.101 347.874 342.418 349.866 342.418Z" fill="#A1D7F4"/>
<path d="M358.141 348.125L388.683 329.371C389.404 326.819 388.683 325.202 384.76 325.805L354.831 343.813C354.462 344.254 354.228 344.799 354.16 345.378C354.092 345.956 354.192 346.543 354.448 347.063C354.861 347.856 356.118 348.189 358.141 348.125Z" fill="#A1D7F4"/>
<path d="M367.259 352.405L397.817 333.652C398.522 331.099 397.817 329.482 393.878 330.085L363.949 348.093C363.603 348.531 363.383 349.06 363.315 349.621C363.247 350.183 363.334 350.752 363.566 351.264C363.98 352.136 365.236 352.469 367.259 352.405Z" fill="#A1D7F4"/>
<path d="M294.436 344.859L314.71 332.415C315.17 330.719 314.71 329.641 312.105 330.037L292.183 341.99C291.938 342.283 291.784 342.645 291.74 343.029C291.697 343.414 291.765 343.803 291.938 344.146C292.26 344.669 293.102 344.891 294.436 344.859Z" fill="#2E6FB7"/>
<path d="M307.186 351.343L326.741 339.343C327.2 337.757 326.741 336.664 324.227 337.06L305.071 348.585C304.833 348.865 304.682 349.214 304.639 349.584C304.595 349.955 304.66 350.33 304.826 350.662C305.087 351.169 305.899 351.391 307.186 351.343Z" fill="#A1D7F4"/>
<path d="M318.94 358.16L337.468 346.778C337.897 345.192 337.468 344.257 335.077 344.622L316.932 355.544C316.711 355.812 316.57 356.14 316.526 356.489C316.483 356.838 316.539 357.193 316.687 357.51C316.948 358.001 317.699 358.271 318.94 358.16Z" fill="#A1D7F4"/>
<path d="M325.392 362.091L340.962 352.58C343.843 350.44 341.084 346.096 338.387 347.697L320.994 358.667C318.756 361.093 323.476 363.93 325.392 362.091Z" fill="#DBE1F2"/>
<path d="M313.622 354.704L329.192 345.192C332.073 343.036 329.315 338.693 326.618 340.31L309.224 351.264C307.033 353.689 311.707 356.527 313.622 354.704Z" fill="#DBE1F2"/>
<path d="M301.899 347.539L317.469 338.027C320.35 335.887 317.592 331.543 314.895 333.144L297.501 344.114C295.356 346.54 300.03 349.377 301.899 347.539Z" fill="#DBE1F2"/>
<path d="M303.968 112.364L327.997 127.218V156.878L303.968 141.612V112.364Z" fill="#3E699D"/>
<path d="M331.905 129.96V157.814V158.876L357.36 175.077V144.719L331.905 129.96Z" fill="#3E699D"/>
<path d="M303.968 148.571L327.997 163.425V193.086L303.968 177.82V148.571Z" fill="#3E699D"/>
<path d="M332.564 166.184L331.905 194.021L357.36 208.907V180.927L332.564 166.184Z" fill="#3E699D"/>
<path d="M303.968 185.001L327.997 199.855V229.515L303.968 214.249V185.001Z" fill="#3E699D"/>
<path d="M332.564 202.597L331.905 230.451L357.36 245.336V217.356L332.564 202.597Z" fill="#3E699D"/>
<path d="M444.512 193.72V201.71L425.954 191.12V183.447L444.512 193.72Z" fill="#EE3024"/>
<path d="M444.512 207.163V216.104L403.717 192.388L404.024 184.145L444.512 207.163Z" fill="#F3F7FC"/>
<path d="M444.512 221.335L404.759 198.301V206.83L444.512 229.991V221.335Z" fill="#E0C133"/>
<path d="M444.512 236.395V245.114L398.124 218.942V210.429L398.691 210.682L444.512 236.395Z" fill="#F3F7FC"/>
<path d="M444.512 251.979L421.31 237.917V245.986L444.512 258.748V251.979Z" fill="#F3F7FC"/>
<path d="M444.512 266.373V275.219L423.731 263.329L424.636 254.927L444.512 266.373Z" fill="#F3F7FC"/>
<path d="M422.367 262.346L380.853 238.631V230.355L423.272 254.071L422.367 262.346Z" fill="#EE3024"/>
<path d="M444.512 278.928L431.195 271.382L431.226 279.467L444.512 286.886V278.928Z" fill="#F3F7FC"/>
<path d="M403.917 255.958V263.392L428.85 277.898V270.003L403.917 255.958Z" fill="#F3F7FC"/>
<path d="M401.955 262.457L380.853 251.138V243.022L401.924 254.769L401.955 262.457Z" fill="#F3F7FC"/>
<path d="M380.853 262.156V255.751L410.675 271.477L410.629 278.199L410.261 277.993L380.853 262.156Z" fill="#F3F7FC"/>
<path d="M414.169 273.348L413.203 272.872V279.578L413.602 279.784L444.512 296.747V289.66L414.169 273.348Z" fill="#F3F7FC"/>
<path d="M402.307 205.467V196.89L399.656 195.353L384.99 186.856L385.174 196.494L402.307 205.467Z" fill="#F3F7FC"/>
<path d="M396.177 209.319L395.825 218.054L378.339 208.4L378.293 199.253L396.177 209.319Z" fill="#F3F7FC"/>
<path d="M422.368 189.027V186.079V180.657L375.55 153.739V162.332L422.368 189.027Z" fill="#E0C133"/>
<path d="M336.211 230.815L341.866 228.104C343.009 227.463 343.592 226.297 342.923 224.934L342.418 224.744C342.756 223.322 345.731 225.108 345.13 223.983C344.529 222.857 341.937 222.174 341.084 224.411L340.257 224.268C339.512 224.087 339.926 223.546 341.13 222.683C341.605 221.906 340.456 221.621 339.751 222.302L336.027 226.265L334.878 228.009L336.211 230.815Z" fill="#FBC4B5"/>
<path d="M287.907 300.393C287.743 300.721 287.645 301.081 287.618 301.45C287.591 301.819 287.636 302.19 287.75 302.54C287.865 302.891 288.046 303.214 288.284 303.49C288.521 303.767 288.81 303.991 289.133 304.15C289.802 304.402 290.53 304.435 291.218 304.245C291.723 304.15 291.218 303.833 291.846 303.579C293.777 303.046 295.636 302.263 297.378 301.249C298.619 300.139 299.723 299.013 299.753 297.729C298.987 296.921 297.547 296.556 294.374 297.301L290.942 299.315L287.907 300.393Z" fill="#387CBD"/>
<path d="M297.531 301.962C297.369 302.291 297.273 302.651 297.247 303.019C297.221 303.387 297.266 303.757 297.381 304.107C297.495 304.457 297.675 304.78 297.912 305.057C298.148 305.334 298.436 305.559 298.757 305.719C299.426 305.971 300.154 306.004 300.841 305.814C301.347 305.719 300.841 305.402 301.47 305.148C303.407 304.619 305.272 303.836 307.017 302.818C308.243 301.708 309.362 300.583 309.377 299.299C308.626 298.49 307.171 298.126 303.998 298.871L300.581 300.884L297.531 301.962Z" fill="#387CBD"/>
<path d="M286.191 252.058L286.927 300.091C289.823 301.027 292.244 299.838 294.374 297.238L297.439 258.431L286.191 252.058Z" fill="#82C1E6"/>
<path d="M297.393 301.582C299.876 302.343 302.364 301.582 304.857 299.299L308.443 255.831H296.765C296.995 272.111 297.21 287.584 297.393 301.582Z" fill="#9FD7F5"/>
<path d="M296.443 212.807V202.914L299.815 201.329L301.347 204.611L302.175 197.334L308.305 196.05C309.148 204.627 309.485 212.331 305.408 212.236H303.615V214.408L296.443 212.807Z" fill="#F39E8A"/>
<path d="M297.777 208.415C292.352 204.595 287.141 200.695 293.593 191.818C295.846 188.901 300.459 188.901 306.282 190.391C307.874 190.304 309.435 189.901 310.879 189.202C311.661 193.038 311.063 195.955 307.983 197.239L302.42 198.523C302.773 202.629 302.221 206.133 301.148 207.004C300.67 205.92 300.251 204.808 299.892 203.675C299.795 203.35 299.728 203.015 299.692 202.677C299.692 202.36 299.371 201.979 299.187 202.027C297.823 202.455 296.765 203.517 298.466 206.703" fill="#EE3024"/>
<path d="M308.949 259.255C299.141 259.826 289.532 259.857 283.938 248.792L287.249 217.404C287.892 214.804 289.731 213.821 292.505 214.233C292.949 211.855 294.482 211.855 295.953 211.729L303.324 214.582L304.305 214.661C304.556 215.206 304.686 215.802 304.686 216.405C304.686 217.008 304.556 217.604 304.305 218.149C307.677 218.862 309.178 221.208 310.098 224.078L309.761 237.204L308.949 259.255Z" fill="#5193CF"/>
<path d="M334.709 226.583L336.916 230.815C337.284 231.291 336.778 231.972 335.813 232.749L324.028 240.802C320.748 242.958 317.3 243.038 313.546 239.756C309.515 236.966 305.883 234.176 304.994 231.433C300.995 220.796 307.477 218.45 312.657 225.933L317.622 231.957L319.001 233.891C321.633 232.387 324.406 231.166 327.277 230.245L334.709 226.583Z" fill="#387CBD"/>
<path d="M379.964 284.033L351.337 266.975V281.465L380.807 299.204L379.964 284.033Z" fill="#3E699D"/>
<path d="M384.392 301.36L383.197 285.998L379.963 284.033L380.806 299.204L384.392 301.36Z" fill="#2B3A65"/>
<path d="M422.067 85.4019C407.794 81.6796 399.58 71.5708 388.237 69.7666C376.895 67.9624 370.778 59.8528 369.463 55.3966C366.599 45.6921 369.731 35.1246 379.317 36.0313C382.149 29.0561 386.695 27.4518 393.477 32.9343C400.855 20.6719 409.832 18.7886 423.072 44.7504C430.662 48.1124 433.735 56.3711 434.542 67.071C444.369 77.2828 443.647 84.3835 428.255 86.5319C426.145 86.4755 436.34 89.1242 422.067 85.4019Z" fill="white"/>
<path d="M369.656 104.002C355.383 100.28 347.169 90.1711 335.826 88.3669C324.484 86.5627 318.367 78.4531 317.052 73.9969C314.188 64.2924 317.32 53.7248 326.906 54.6316C329.738 47.6564 334.284 46.0521 341.066 51.5346C348.444 39.2722 357.421 37.3889 370.661 63.3506C378.251 66.7127 381.324 74.9713 382.131 85.6713C391.958 95.883 391.236 102.984 375.844 105.132C373.734 105.076 383.929 107.724 369.656 104.002Z" fill="white"/>
<path d="M443.97 150.099C429.697 146.376 421.483 136.267 410.141 134.463C398.798 132.659 392.682 124.55 391.366 120.093C388.503 110.389 391.634 99.8213 401.22 100.728C404.053 93.7528 408.598 92.1485 415.381 97.6311C422.758 85.3686 431.736 83.4853 444.976 109.447C452.565 112.809 455.638 121.068 456.445 131.768C466.273 141.979 465.55 149.08 450.158 151.229C448.048 151.172 458.243 153.821 443.97 150.099Z" fill="white"/>
</g>
<defs>
<clipPath id="clip0_295_312">
<rect width="485" height="520" fill="white"/>
</clipPath>
</defs>
</svg>
