<svg width="460" height="237" viewBox="0 0 460 237" fill="none" xmlns="http://www.w3.org/2000/svg">
<rect y="21" width="460" height="216" rx="25" fill="#2B3A65"/>
<path fill-rule="evenodd" clip-rule="evenodd" d="M355.973 12.1754H102.975C99.6152 12.186 96.3944 13.5163 94.0085 15.8788C91.6224 18.2413 90.2628 21.4464 90.2231 24.8019V191.005H368.722V24.8051C368.687 21.4484 367.329 18.2407 364.942 15.8769C362.556 13.5129 359.334 12.1831 355.973 12.1754Z" fill="#DCE9F5"/>
<path d="M357.03 32.0442H101.445V180.806H357.03V32.0442Z" fill="white"/>
<path d="M229.474 24.5851C230.71 24.5851 231.711 23.585 231.711 22.3513C231.711 21.1175 230.71 20.1174 229.474 20.1174C228.238 20.1174 227.237 21.1175 227.237 22.3513C227.237 23.585 228.238 24.5851 229.474 24.5851Z" fill="#1C2A4F"/>
<path fill-rule="evenodd" clip-rule="evenodd" d="M379.853 203.825H79.1466C63.5149 203.825 52.9878 201.431 52.9878 199.153V192.227C53.0293 191.863 53.2126 191.528 53.4983 191.297C53.7839 191.066 54.1491 190.956 54.5152 190.991H404.483C404.849 190.956 405.215 191.066 405.5 191.297C405.786 191.528 405.97 191.862 406.012 192.227V199.425C406.012 201.229 397.855 203.825 379.853 203.825Z" fill="#DCE9F5"/>
<path fill-rule="evenodd" clip-rule="evenodd" d="M406.012 199.425C406.012 201.226 397.855 203.825 379.853 203.825H79.1466C63.5149 203.825 52.9878 201.431 52.9878 199.153L406.012 199.425Z" fill="white"/>
<path fill-rule="evenodd" clip-rule="evenodd" d="M267.729 191.5V193.073C267.729 194.194 265.519 194.533 263.846 194.533H195.204C193.445 194.533 191.218 194.194 191.218 193.073V191.5" fill="#1C2A4F"/>
<path d="M357.03 32.0442H101.445V43.628H357.03V32.0442Z" fill="#2B3A65"/>
<path d="M110.484 39.7765C111.557 39.7765 112.427 38.9076 112.427 37.8357C112.427 36.7638 111.557 35.8949 110.484 35.8949C109.411 35.8949 108.541 36.7638 108.541 37.8357C108.541 38.9076 109.411 39.7765 110.484 39.7765Z" fill="white"/>
<path d="M116.767 39.7765C117.84 39.7765 118.71 38.9076 118.71 37.8357C118.71 36.7638 117.84 35.8949 116.767 35.8949C115.694 35.8949 114.824 36.7638 114.824 37.8357C114.824 38.9076 115.694 39.7765 116.767 39.7765Z" fill="white"/>
<path d="M123.05 39.7765C124.123 39.7765 124.993 38.9076 124.993 37.8357C124.993 36.7638 124.123 35.8949 123.05 35.8949C121.977 35.8949 121.107 36.7638 121.107 37.8357C121.107 38.9076 121.977 39.7765 123.05 39.7765Z" fill="white"/>
<path d="M233.119 148.419H205.965V166.977H233.255" fill="#2B3A65"/>
<path d="M233.255 167.275H205.965L205.667 166.977V148.419L205.965 148.121H233.119V148.717H206.263V166.679H233.255V167.275Z" fill="#0055DC"/>
<path d="M239.438 171.278C246.948 171.278 253.035 165.198 253.035 157.698C253.035 150.197 246.948 144.117 239.438 144.117C231.928 144.117 225.841 150.197 225.841 157.698C225.841 165.198 231.928 171.278 239.438 171.278Z" fill="white"/>
<path d="M239.439 171.576C236.69 171.576 234.004 170.762 231.719 169.238C229.433 167.712 227.652 165.545 226.601 163.009C225.549 160.473 225.273 157.682 225.81 154.99C226.346 152.297 227.67 149.825 229.613 147.884C231.556 145.943 234.032 144.621 236.728 144.085C239.424 143.549 242.218 143.825 244.757 144.875C247.296 145.925 249.466 147.704 250.993 149.987C252.52 152.269 253.335 154.952 253.335 157.697C253.33 161.377 251.865 164.904 249.259 167.506C246.655 170.108 243.123 171.571 239.439 171.576ZM239.439 144.417C236.809 144.417 234.237 145.196 232.05 146.656C229.863 148.116 228.158 150.191 227.152 152.617C226.145 155.045 225.882 157.716 226.395 160.293C226.908 162.869 228.175 165.236 230.035 167.093C231.895 168.951 234.265 170.216 236.845 170.729C239.425 171.241 242.099 170.978 244.529 169.972C246.959 168.967 249.037 167.264 250.497 165.08C251.959 162.895 252.739 160.327 252.739 157.7C252.735 154.178 251.333 150.801 248.839 148.31C246.346 145.82 242.965 144.419 239.439 144.415V144.417Z" fill="#FE2401"/>
<path d="M238.055 161.848L234.293 157.923L235.625 156.649L238.077 159.207L243.257 153.975L244.568 155.27L238.055 161.848Z" fill="#EE3024"/>
<path d="M244.05 93.5605H214.95V69.0612C214.95 65.206 216.483 61.5087 219.212 58.7828C221.942 56.0567 225.644 54.5253 229.504 54.5253C233.363 54.5253 237.065 56.0567 239.795 58.7828C242.524 61.5087 244.058 65.206 244.058 69.0612L244.05 93.5605ZM215.648 92.8617H243.351L243.357 69.1406C243.354 65.4707 241.891 61.9523 239.291 59.3595C236.69 56.7667 233.165 55.3118 229.491 55.315C225.816 55.3182 222.293 56.7791 219.697 59.3764C217.101 61.9736 215.645 65.4945 215.648 69.1644V92.8617Z" fill="#FF6633"/>
<path d="M241.268 90.7843H217.726V70.0348C217.726 69.2893 217.768 68.5444 217.85 67.8034C218.173 64.9418 219.541 62.2994 221.691 60.3812C223.841 58.4631 226.624 57.4036 229.508 57.4053C232.391 57.407 235.172 58.4697 237.321 60.3903C239.47 62.3109 240.834 64.9549 241.154 67.8169C241.234 68.5469 241.274 69.2807 241.275 70.015V70.0507L241.268 90.7843ZM218.423 90.0863H240.569L240.576 70.0412C240.575 69.3321 240.537 68.6235 240.461 67.9185C240.166 65.2228 238.884 62.7309 236.863 60.9202C234.842 59.1095 232.223 58.1073 229.507 58.1056C226.792 58.1039 224.172 59.1029 222.149 60.9111C220.125 62.7194 218.84 65.2097 218.541 67.905C218.463 68.6224 218.424 69.3434 218.424 70.065L218.423 90.0863Z" fill="#FD8A3A"/>
<path d="M238.49 88.0089H220.505V69.1677C220.525 66.7994 221.48 64.535 223.164 62.8668C224.847 61.1986 227.122 60.2616 229.493 60.2596C231.864 60.2576 234.14 61.1908 235.826 62.8562C237.512 64.5215 238.472 66.7844 238.496 69.1526L238.49 88.0089ZM221.204 87.3101H237.791L237.797 69.1502C237.774 66.9666 236.888 64.8804 235.334 63.3451C233.778 61.8098 231.679 60.9497 229.493 60.9516C227.307 60.9534 225.209 61.8172 223.657 63.3551C222.105 64.8931 221.223 66.9808 221.204 69.1645V87.3101Z" fill="#FBAD40"/>
<path d="M247.544 82.0315H211.456C210.123 82.0315 209.042 83.1115 209.042 84.4432V120.487C209.042 121.818 210.123 122.898 211.456 122.898H247.544C248.878 122.898 249.959 121.818 249.959 120.487V84.4432C249.959 83.1115 248.878 82.0315 247.544 82.0315Z" fill="#DCE9F5"/>
<path d="M247.544 123.197H211.456C210.736 123.196 210.047 122.91 209.538 122.402C209.029 121.894 208.744 121.205 208.743 120.487V84.4441C208.744 83.7254 209.029 83.0369 209.538 82.5287C210.047 82.0204 210.736 81.7346 211.456 81.7338H247.544C248.264 81.7346 248.953 82.0204 249.462 82.5287C249.971 83.0369 250.256 83.7254 250.257 84.4441V120.487C250.256 121.205 249.971 121.894 249.462 122.402C248.953 122.91 248.264 123.196 247.544 123.197ZM211.456 82.3294C210.895 82.3301 210.357 82.5533 209.96 82.9496C209.563 83.3458 209.34 83.8834 209.339 84.4441V120.487C209.34 121.047 209.563 121.585 209.96 121.981C210.357 122.378 210.895 122.601 211.456 122.601H247.544C248.105 122.601 248.643 122.378 249.04 121.981C249.437 121.585 249.66 121.047 249.661 120.487V84.4441C249.66 83.8834 249.437 83.3458 249.04 82.9496C248.643 82.5533 248.105 82.3301 247.544 82.3294H211.456Z" fill="#1C2A4F"/>
<path d="M246.26 119.204V85.7258H212.74V119.204H246.26Z" fill="white"/>
<path d="M231.442 109.479H227.85V104.244C226.799 103.827 225.927 103.057 225.383 102.066C224.839 101.076 224.658 99.9279 224.871 98.8185C225.083 97.7091 225.677 96.7085 226.548 95.9882C227.419 95.2688 228.515 94.8749 229.647 94.8749C230.777 94.8749 231.873 95.2688 232.744 95.9882C233.616 96.7085 234.209 97.7091 234.421 98.8185C234.634 99.9279 234.453 101.076 233.909 102.066C233.365 103.057 232.493 103.827 231.442 104.244V109.479ZM228.375 108.955H230.919V103.878L231.094 103.816C232.059 103.475 232.872 102.805 233.39 101.923C233.908 101.042 234.098 100.006 233.924 98.9987C233.752 97.991 233.227 97.077 232.445 96.4178C231.662 95.7595 230.672 95.3982 229.648 95.3982C228.625 95.3982 227.635 95.7595 226.853 96.4178C226.07 97.077 225.545 97.991 225.373 98.9987C225.2 100.006 225.389 101.042 225.907 101.923C226.425 102.805 227.238 103.475 228.203 103.816L228.378 103.878L228.375 108.955Z" fill="#1755DB"/>
<path d="M229.645 102.747C231.328 102.747 232.692 101.384 232.692 99.7038C232.692 98.0235 231.328 96.6608 229.645 96.6608C227.963 96.6608 226.599 98.0235 226.599 99.7038C226.599 101.384 227.963 102.747 229.645 102.747Z" fill="#C5EBF5"/>
<path d="M229.646 101.277C229.334 101.277 229.029 101.185 228.77 101.013C228.511 100.839 228.309 100.594 228.19 100.307C228.07 100.019 228.039 99.7031 228.1 99.3973C228.16 99.0924 228.311 98.8121 228.531 98.5921C228.751 98.3713 229.032 98.222 229.337 98.1609C229.642 98.1005 229.96 98.1315 230.247 98.2506C230.535 98.3697 230.781 98.5715 230.954 98.8295C231.128 99.0884 231.22 99.3926 231.22 99.7039C231.219 100.121 231.053 100.52 230.758 100.816C230.463 101.11 230.063 101.276 229.646 101.277ZM229.646 98.6564C229.438 98.6564 229.235 98.7176 229.062 98.8327C228.889 98.9479 228.754 99.1115 228.675 99.3036C228.595 99.495 228.574 99.7062 228.614 99.9095C228.655 100.113 228.755 100.3 228.902 100.447C229.048 100.594 229.236 100.694 229.44 100.735C229.643 100.775 229.855 100.754 230.046 100.675C230.239 100.596 230.403 100.461 230.518 100.288C230.633 100.116 230.695 99.9127 230.695 99.7055C230.695 99.4275 230.585 99.1599 230.388 98.963C230.191 98.766 229.924 98.6556 229.646 98.6548V98.6564Z" fill="#1755DB"/>
<path d="M303.464 124.598C316.462 124.598 326.999 114.074 326.999 101.092C326.999 88.1097 316.462 77.5861 303.464 77.5861C290.466 77.5861 279.929 88.1097 279.929 101.092C279.929 114.074 290.466 124.598 303.464 124.598Z" fill="#DCE9F5"/>
<path d="M303.464 124.896C298.751 124.896 294.142 123.5 290.223 120.884C286.304 118.269 283.249 114.551 281.445 110.201C279.641 105.852 279.169 101.066 280.089 96.4488C281.008 91.831 283.278 87.5896 286.611 84.2607C289.944 80.9318 294.191 78.6644 298.814 77.7458C303.437 76.8273 308.229 77.2985 312.584 79.1C316.939 80.9016 320.661 83.9526 323.28 87.8668C325.899 91.781 327.297 96.3837 327.297 101.091C327.29 107.402 324.777 113.453 320.309 117.915C315.841 122.378 309.783 124.889 303.464 124.896ZM303.464 77.8839C298.868 77.8839 294.375 79.245 290.554 81.795C286.733 84.3457 283.754 87.97 281.996 92.2106C280.238 96.452 279.777 101.118 280.674 105.62C281.57 110.122 283.784 114.257 287.033 117.503C290.283 120.749 294.424 122.959 298.931 123.855C303.439 124.75 308.111 124.29 312.357 122.533C316.603 120.777 320.232 117.802 322.785 113.985C325.338 110.169 326.701 105.681 326.701 101.091C326.694 94.9384 324.243 89.0397 319.887 84.6887C315.531 80.3377 309.625 77.8908 303.464 77.8839Z" fill="#0055DC"/>
<path d="M303.464 120.925C314.431 120.925 323.322 112.045 323.322 101.092C323.322 90.1387 314.431 81.2589 303.464 81.2589C292.497 81.2589 283.606 90.1387 283.606 101.092C283.606 112.045 292.497 120.925 303.464 120.925Z" fill="white"/>
<path d="M306.545 117.379L305.432 112.16L306.016 112.036L307.129 117.255L306.545 117.379ZM300.229 117.362L299.645 117.238L300.758 112.019L301.342 112.143L300.229 117.362ZM312.905 114.703L309.767 110.386L310.249 110.036L313.383 114.353L312.905 114.703ZM293.882 114.656L293.4 114.306L296.538 109.989L297.021 110.339L293.882 114.656ZM317.626 109.674L313.002 107.006L313.3 106.49L317.924 109.158L317.626 109.674ZM289.186 109.604L288.887 109.089L293.512 106.421L293.81 106.937L289.186 109.604ZM287.378 105.356L287.239 104.777L292.423 103.528L292.562 104.106L287.378 105.356ZM319.892 103.161L314.581 102.605L314.643 102.012L319.954 102.568L319.892 103.161ZM314.233 97.9385L314.048 97.3723L319.126 95.7229L319.31 96.2899L314.233 97.9385ZM312.015 93.8194L311.617 93.3763L315.585 89.8068L315.983 90.2491L312.015 93.8194ZM308.312 90.9606L307.767 90.7184L309.939 85.8441L310.484 86.0824L308.312 90.9606ZM303.765 89.8489H303.168V84.5132H303.765V89.8489Z" fill="#1755DB"/>
<path d="M304.252 117.637L303.879 112.317L304.474 112.276L304.847 117.596L304.252 117.637ZM298 116.742L297.44 116.539L299.269 111.526L299.83 111.729L298 116.742ZM310.923 115.873L308.416 111.162L308.943 110.882L311.449 115.593L310.923 115.873ZM292.091 113.18L291.663 112.767L295.372 108.929L295.8 109.343L292.091 113.18ZM316.299 111.549L312.091 108.264L312.458 107.795L316.665 111.08L316.299 111.549ZM288.144 107.525L287.921 106.973L292.871 104.974L293.095 105.53L288.144 107.525ZM319.449 105.415L314.268 104.124L314.412 103.547L319.594 104.837L319.449 105.415ZM314.572 99.4592L314.468 98.8732L319.726 97.9464L319.831 98.5333L314.572 99.4592ZM312.949 95.0717L312.615 94.5786L317.042 91.5951L317.376 92.089L312.949 95.0717ZM309.681 91.7237L309.175 91.4061L312.004 86.8796L312.511 87.1973L309.681 91.7237ZM305.332 89.9926L304.742 89.9131L305.485 84.6299L306.075 84.7093L305.332 89.9926Z" fill="#1755DB"/>
<path d="M302.523 117.657L301.928 117.615L302.301 112.295L302.896 112.337L302.523 117.657ZM308.779 116.796L306.951 111.782L307.507 111.578L309.336 116.592L308.779 116.796ZM295.861 115.862L295.335 115.582L297.841 110.872L298.368 111.151L295.861 115.862ZM314.705 113.264L310.998 109.424L311.426 109.01L315.132 112.844L314.705 113.264ZM290.507 111.512L290.141 111.044L294.347 107.759L294.714 108.228L290.507 111.512ZM318.679 107.628L313.729 105.629L313.952 105.077L318.903 107.076L318.679 107.628ZM314.679 101.049L314.659 100.454L319.996 100.268L320.016 100.863L314.679 101.049ZM313.684 96.479L313.423 95.9438L318.222 93.6051L318.483 94.1403L313.684 96.479ZM310.914 92.7085L310.458 92.3258L313.889 88.2385L314.346 88.6212L310.914 92.7085ZM306.849 90.3889L306.276 90.2253L307.747 85.0969L308.32 85.2613L306.849 90.3889Z" fill="#1755DB"/>
<path d="M286.885 102.504L286.843 101.91L292.166 101.529L292.208 102.123L286.885 102.504Z" fill="#FF6633"/>
<path d="M287.03 98.4507L286.948 99.0407L292.232 99.7737L292.314 99.1844L287.03 98.4507Z" fill="#FF6633"/>
<path d="M287.932 95.1067L287.729 95.6665L292.746 97.4819L292.948 96.922L287.932 95.1067Z" fill="#FF6633"/>
<path d="M289.608 92.0151L289.293 92.5202L293.823 95.3401L294.139 94.8342L289.608 92.0151Z" fill="#FF6633"/>
<path d="M291.695 89.3335L291.282 89.7623L295.126 93.4597L295.539 93.0309L291.695 89.3335Z" fill="#FBAD40"/>
<path d="M294.391 87.1544L293.897 87.4879L296.889 91.9032L297.382 91.5697L294.391 87.1544Z" fill="#FBAD40"/>
<path d="M297.483 85.5861L296.93 85.81L298.938 90.7494L299.49 90.5255L297.483 85.5861Z" fill="#FBAD40"/>
<path d="M300.832 84.6967L300.246 84.8007L301.18 90.049L301.767 89.945L300.832 84.6967Z" fill="#FBAD40"/>
<path d="M301.678 100.319L299.982 100.955L301.678 101.59V102.1L299.412 101.221V100.692L301.678 99.8126V100.319Z" fill="#1755DB"/>
<path d="M303.201 102.511C302.976 102.362 302.798 102.151 302.69 101.903C302.441 101.294 302.441 100.612 302.69 100.002C302.798 99.7547 302.976 99.5435 303.201 99.3942C303.423 99.2576 303.679 99.1853 303.939 99.1853C304.2 99.1853 304.456 99.2576 304.678 99.3942C304.905 99.5435 305.083 99.7547 305.192 100.002C305.44 100.612 305.44 101.294 305.192 101.903C305.083 102.151 304.905 102.362 304.678 102.511C304.456 102.648 304.2 102.72 303.939 102.72C303.679 102.72 303.423 102.648 303.201 102.511ZM304.521 101.861C304.661 101.579 304.735 101.267 304.735 100.953C304.735 100.638 304.661 100.326 304.521 100.045C304.456 99.9508 304.37 99.8738 304.268 99.8206C304.167 99.7682 304.055 99.7404 303.941 99.7404C303.827 99.7404 303.714 99.7682 303.613 99.8206C303.512 99.8738 303.425 99.9508 303.361 100.045C303.22 100.326 303.147 100.638 303.147 100.953C303.147 101.267 303.22 101.579 303.361 101.861C303.425 101.954 303.512 102.031 303.613 102.085C303.714 102.137 303.827 102.165 303.941 102.165C304.055 102.165 304.167 102.137 304.268 102.085C304.37 102.031 304.456 101.954 304.521 101.861Z" fill="#1755DB"/>
<path d="M155.536 124.598C168.534 124.598 179.071 114.074 179.071 101.092C179.071 88.1097 168.534 77.5861 155.536 77.5861C142.538 77.5861 132.001 88.1097 132.001 101.092C132.001 114.074 142.538 124.598 155.536 124.598Z" fill="#DCE9F5"/>
<path d="M155.536 124.896C150.823 124.896 146.214 123.5 142.295 120.884C138.376 118.269 135.321 114.551 133.517 110.201C131.713 105.852 131.241 101.066 132.161 96.4488C133.08 91.831 135.35 87.5896 138.683 84.2607C142.016 80.9318 146.263 78.6644 150.886 77.7458C155.509 76.8273 160.301 77.2985 164.656 79.1C169.01 80.9016 172.733 83.9526 175.352 87.8668C177.971 91.781 179.369 96.3837 179.369 101.091C179.362 107.402 176.849 113.453 172.381 117.915C167.912 122.378 161.855 124.889 155.536 124.896ZM155.536 77.8839C150.94 77.8839 146.447 79.245 142.626 81.795C138.805 84.3457 135.826 87.97 134.068 92.2106C132.309 96.452 131.849 101.118 132.746 105.62C133.642 110.122 135.856 114.257 139.105 117.503C142.355 120.749 146.496 122.959 151.003 123.855C155.51 124.75 160.182 124.29 164.429 122.533C168.675 120.777 172.304 117.802 174.857 113.985C177.41 110.169 178.773 105.681 178.773 101.091C178.766 94.9384 176.315 89.0397 171.959 84.6887C167.602 80.3377 161.696 77.8908 155.536 77.8839Z" fill="#0055DC"/>
<path d="M155.536 120.925C166.503 120.925 175.393 112.045 175.393 101.092C175.393 90.1387 166.503 81.2589 155.536 81.2589C144.569 81.2589 135.678 90.1387 135.678 101.092C135.678 112.045 144.569 120.925 155.536 120.925Z" fill="white"/>
<path d="M140.333 93.7194L140.083 94.2602L145.034 96.5472L145.285 96.0064L140.333 93.7194Z" fill="#1755DB"/>
<path d="M144.672 88.1653L144.223 88.5568L147.815 92.6592L148.263 92.2669L144.672 88.1653Z" fill="#1755DB"/>
<path d="M150.896 84.8546L150.326 85.0301L151.937 90.2372L152.506 90.0617L150.896 84.8546Z" fill="#1755DB"/>
<path d="M157.338 84.2885L156.688 89.7004L157.28 89.771L157.928 84.3591L157.338 84.2885Z" fill="#1755DB"/>
<path d="M164.043 86.458L161.248 91.1393L161.76 91.4443L164.555 86.763L164.043 86.458Z" fill="#1755DB"/>
<path d="M169.286 91.1678L164.824 94.3062L165.167 94.793L169.63 91.6546L169.286 91.1678Z" fill="#FBAD40"/>
<path d="M166.908 99.8992L166.816 99.3107L172.169 98.4849L172.26 99.0733L166.908 99.8992Z" fill="#EC6430"/>
<path d="M138.866 98.2999L138.774 98.8884L144.164 99.723L144.256 99.1345L138.866 98.2999Z" fill="#1755DB"/>
<path d="M141.502 91.6832L141.18 92.1843L145.763 95.1376L146.087 94.6373L141.502 91.6832Z" fill="#1755DB"/>
<path d="M146.573 86.7883L146.074 87.1139L149.059 91.6745L149.558 91.3489L146.573 86.7883Z" fill="#1755DB"/>
<path d="M153.197 84.375L152.608 84.4703L153.478 89.8504L154.067 89.7559L153.197 84.375Z" fill="#1755DB"/>
<path d="M159.655 84.7094L158.257 89.9783L158.834 90.1308L160.232 84.8618L159.655 84.7094Z" fill="#1755DB"/>
<path d="M165.993 87.7913L162.572 92.0366L163.036 92.4098L166.457 88.1645L165.993 87.7913Z" fill="#1755DB"/>
<path d="M165.946 96.4082L165.674 95.8785L170.528 93.3882L170.8 93.9179L165.946 96.4082Z" fill="#FBAD40"/>
<path d="M172.493 101.068H167.046V101.664H172.493V101.068Z" fill="#EC6430"/>
<path d="M144.129 101.068H138.693V101.664H144.129V101.068Z" fill="#1755DB"/>
<path d="M139.455 95.9039L139.282 96.4741L144.503 98.0504L144.675 97.4803L139.455 95.9039Z" fill="#1755DB"/>
<path d="M143.024 89.7789L142.634 90.23L146.764 93.7932L147.153 93.3421L143.024 89.7789Z" fill="#1755DB"/>
<path d="M148.68 85.6559L148.139 85.9092L150.459 90.8415L151 90.5874L148.68 85.6559Z" fill="#1755DB"/>
<path d="M155.574 84.186L154.978 84.1987L155.089 89.648L155.685 89.6361L155.574 84.186Z" fill="#1755DB"/>
<path d="M161.919 85.4144L159.804 90.4396L160.353 90.6699L162.469 85.6455L161.919 85.4144Z" fill="#1755DB"/>
<path d="M167.767 89.3478L163.789 93.0793L164.198 93.5129L168.175 89.7822L167.767 89.3478Z" fill="#F2AA3F"/>
<path d="M171.508 95.8008L166.354 97.5891L166.551 98.1514L171.704 96.363L171.508 95.8008Z" fill="#FBAD40"/>
<path d="M166.894 97.7249C166.881 97.6932 166.858 97.667 166.828 97.6519C166.797 97.636 166.762 97.632 166.729 97.6408L154.732 100.658C154.714 100.663 154.698 100.671 154.683 100.681C154.668 100.693 154.656 100.706 154.646 100.722C154.637 100.738 154.631 100.755 154.628 100.774C154.625 100.791 154.626 100.81 154.631 100.828C154.636 100.845 154.644 100.862 154.654 100.877C154.665 100.891 154.679 100.904 154.695 100.913C154.71 100.922 154.728 100.928 154.746 100.932C154.764 100.934 154.783 100.933 154.8 100.928L154.823 100.923L155.749 103.003L155.739 103.007C155.723 103.016 155.709 103.028 155.697 103.042C155.686 103.056 155.677 103.073 155.672 103.09C155.666 103.107 155.665 103.126 155.667 103.144C155.669 103.162 155.674 103.18 155.683 103.196C155.691 103.212 155.703 103.227 155.717 103.238C155.731 103.25 155.747 103.258 155.765 103.263C155.783 103.269 155.801 103.27 155.82 103.269C155.837 103.267 155.855 103.262 155.871 103.253L166.83 97.902C166.861 97.8854 166.884 97.8584 166.896 97.8258C166.908 97.7932 166.907 97.7567 166.894 97.7249Z" fill="#0055DC"/>
<path d="M155.387 104.816C156.992 104.816 158.294 103.516 158.294 101.913C158.294 100.31 156.992 99.0098 155.387 99.0098C153.782 99.0098 152.48 100.31 152.48 101.913C152.48 103.516 153.782 104.816 155.387 104.816Z" fill="#E0F3F8"/>
<path d="M155.386 104.962C154.782 104.962 154.192 104.784 153.691 104.449C153.188 104.114 152.797 103.637 152.565 103.08C152.335 102.523 152.274 101.909 152.392 101.317C152.51 100.727 152.801 100.183 153.228 99.7562C153.655 99.3298 154.199 99.0399 154.791 98.9224C155.383 98.8049 155.998 98.8652 156.555 99.0963C157.113 99.3266 157.59 99.7181 157.925 100.219C158.261 100.721 158.44 101.31 158.44 101.914C158.439 102.722 158.117 103.497 157.544 104.069C156.972 104.641 156.196 104.962 155.386 104.962ZM155.386 99.1567C154.84 99.1567 154.307 99.3187 153.853 99.622C153.399 99.9246 153.046 100.356 152.837 100.859C152.627 101.363 152.573 101.918 152.68 102.452C152.786 102.987 153.05 103.478 153.435 103.863C153.822 104.249 154.314 104.511 154.849 104.618C155.384 104.724 155.94 104.669 156.444 104.461C156.948 104.253 157.379 103.899 157.683 103.446C157.986 102.992 158.148 102.459 158.148 101.914C158.147 101.182 157.856 100.481 157.338 99.9643C156.821 99.4473 156.119 99.1574 155.386 99.1567Z" fill="#1755DB"/>
<path d="M155.387 103.197C156.097 103.197 156.673 102.622 156.673 101.913C156.673 101.204 156.097 100.629 155.387 100.629C154.677 100.629 154.102 101.204 154.102 101.913C154.102 102.622 154.677 103.197 155.387 103.197Z" fill="#1755DB"/>
<path d="M334.882 135.727H123.421V136.521H334.882V135.727Z" fill="#1C2A4F"/>
<path d="M379.996 204.633H79.2937C65.8987 204.633 52.3398 202.756 52.3398 199.167V192.242C52.3813 191.666 52.6485 191.13 53.0835 190.749C53.5185 190.369 54.0862 190.175 54.6631 190.211H404.628C405.205 190.175 405.773 190.369 406.208 190.749C406.644 191.129 406.911 191.666 406.953 192.242V199.439C406.946 202.547 396.113 204.633 379.996 204.633ZM54.6615 191.799C54.2417 191.799 53.9285 192.033 53.9285 192.242V199.165C54.1415 200.264 62.0003 203.042 79.2922 203.042H379.996C398.314 203.042 405.004 200.367 405.369 199.389L405.363 192.237C405.363 192.028 405.045 191.794 404.628 191.794L54.6615 191.799Z" fill="#0055DC"/>
<path d="M404.628 190.211H369.517V24.805C369.498 21.2325 368.061 17.8135 365.522 15.2976C362.982 12.7818 359.547 11.3745 355.97 11.3845H102.975C99.3977 11.3745 95.9628 12.7818 93.4233 15.2976C90.8838 17.8135 89.4469 21.2325 89.4277 24.805V190.211H54.6612C54.0842 190.175 53.5166 190.369 53.0816 190.749C52.6466 191.13 52.3793 191.666 52.3379 192.242V199.165C52.3379 202.753 65.8983 204.631 79.2918 204.631H379.996C396.112 204.631 406.945 202.544 406.949 199.437V192.239C406.907 191.664 406.639 191.129 406.205 190.749C405.77 190.37 405.204 190.176 404.628 190.211ZM91.0179 24.805C91.0741 21.6656 92.3554 18.672 94.5886 16.462C96.8219 14.2519 99.8309 12.9999 102.975 12.9727H355.976C359.131 12.9621 362.161 14.2018 364.403 16.42C366.644 18.6382 367.914 21.6536 367.932 24.805V190.211H91.0179V24.805ZM379.996 203.045H79.2934C61.9999 203.045 54.1412 200.265 53.9297 199.167V192.242C53.9297 192.033 54.243 191.799 54.6628 191.799H404.628C405.048 191.799 405.362 192.033 405.362 192.242L405.369 199.395C405.004 200.369 398.314 203.045 379.996 203.045Z" fill="#2B3A65"/>
</svg>
