<svg width="460" height="285" viewBox="0 0 460 285" fill="none" xmlns="http://www.w3.org/2000/svg">
<rect y="69" width="460" height="216" rx="25" fill="#2B3A65"/>
<g clip-path="url(#clip0_148_26)">
<path opacity="0.75" d="M409 183.821L255.443 275L31 149.369L185.811 48.7598L409 183.821Z" fill="url(#paint0_linear_148_26)"/>
<path opacity="0.43" d="M405.176 155.656L286.475 226.141L112.977 129.026L232.647 51.2566L405.176 155.656Z" fill="url(#paint1_linear_148_26)"/>
<path d="M148.829 71.7789L174.008 86.3287V101.525H164.927L149.941 90.2087L148.829 71.7789Z" fill="white"/>
<path d="M250.898 225.629L326.009 181.791L167.311 88.5651L95.9448 132.681L250.898 225.629Z" fill="#DCE9F5"/>
<path d="M250.898 218.031L314.18 181.208L172.337 98.9655L164.688 97.1063L106.102 132.08L250.898 218.031Z" fill="url(#paint2_linear_148_26)"/>
<path d="M280.604 199.709L240.43 175.352H217.474L207.913 170.179H178.367L139.686 147.115L183.258 114.997L296.543 189.794L297.815 190.656L281.12 200.006" fill="url(#paint3_linear_148_26)"/>
<path d="M250.898 229.725V225.63L95.9448 132.682V136.93L250.898 229.725Z" fill="#1B2B4F"/>
<path d="M250.898 225.629L326.009 181.792V185.752L250.898 229.59V225.629Z" fill="#4297D2"/>
<path d="M161.05 4.49067C162.749 0.969982 166.44 -1.43702 169.446 0.898131L301.532 78.3533C304.298 80.2214 304.281 83.8858 304.441 87.6221L304.512 190.171C303.765 192.21 302.813 193.943 300.901 194.213L161.459 113.084L161.05 4.49067Z" fill="#1B2B4F"/>
<path d="M295.155 193.674C298.428 195.937 302.199 195.677 301.95 191.878L302.164 88.2508C302.395 82.9159 300.073 79.6107 295.671 77.9402L166.19 2.425C164.029 1.29335 161.672 1.67057 160.907 4.28414L161.459 115.213L295.155 193.674Z" fill="#DCE9F5"/>
<path d="M298.313 179.403V85.6821L164.688 7.59827L164.928 101.525L298.313 179.403Z" fill="white"/>
<path d="M238.838 160.64L218.808 172.388C217.172 173.547 215.74 173.529 214.503 172.388L188.355 157.416C187.723 156.338 187.287 155.27 188.959 154.344L208.446 143.073L238.838 160.64Z" fill="white"/>
<path d="M187.83 155.467C187.511 156.113 187.344 156.825 187.344 157.546C187.344 158.268 187.511 158.98 187.83 159.626L214.744 174.948C216.015 176.008 217.412 175.891 218.808 174.948V172.55C218.304 172.893 217.723 173.105 217.118 173.168C216.513 173.23 215.902 173.142 215.339 172.909L188.177 157.084C187.862 156.609 187.739 156.031 187.83 155.467Z" fill="#1B2B4F"/>
<path d="M218.808 174.948L240.857 161.88L238.838 160.694L218.808 172.55V174.948Z" fill="#4297D2"/>
<path d="M139.304 63.615C141.287 61.8726 143.155 61.2169 144.845 62.1959L180.039 82.853C181.647 83.962 182.794 85.6315 183.258 87.5413L181.106 88.5652C180.633 87.116 179.782 85.8223 178.642 84.8199L141.652 63.2647C140.852 63.1186 140.027 63.2416 139.304 63.615Z" fill="#1B2B4F"/>
<path d="M298.34 85.6821L164.714 7.59827V17.4598L176.348 27.2674L298.34 98.4716" fill="#1B2B4F"/>
<path d="M179.985 26.7824L179.123 109.815L164.928 100.905L164.688 16.8131L179.985 26.7824Z" fill="#1B2B4F"/>
<path d="M184.032 47.215L200.78 56.2861V64.6118V79.0359L183.356 69.2283L183.783 55.1545L184.032 47.215Z" fill="#DCE9F5"/>
<path d="M183.52 76L200 85.6084V103L183 93.2306L183.52 76Z" fill="#DCE9F5"/>
<path d="M188.782 57.4088L197.169 62.2857C198.227 62.7886 199.019 61.7019 198.129 60.9834L190.125 56.3311C188.915 55.6036 187.946 56.9238 188.782 57.4088Z" fill="white"/>
<path d="M188.782 61.9713L197.169 66.8482C198.227 67.3511 199.019 66.2554 198.129 65.5459L190.125 60.8935C188.915 60.175 187.946 61.4773 188.782 61.9713Z" fill="white"/>
<path d="M188.595 66.0668L196.973 70.9526C198.031 71.4556 198.823 70.3599 197.933 69.6503L189.929 64.998C188.719 64.2615 187.75 65.5638 188.595 66.0668Z" fill="white"/>
<path d="M187.456 85.1252L195.835 90.0021C196.893 90.5051 197.693 89.4183 196.804 88.6998L188.799 84.0475C187.59 83.32 186.647 84.6403 187.456 85.1252Z" fill="white"/>
<path d="M187.261 89.2297L195.648 94.1066C196.706 94.6096 197.498 93.5139 196.608 92.8043L188.604 88.152C187.394 87.4245 186.425 88.7447 187.261 89.2297Z" fill="white"/>
<path d="M167.631 28.6146L175.974 33.4915C177.032 33.9944 177.833 32.8987 176.944 32.1892L168.939 27.5368C167.756 26.8093 166.795 28.1206 167.631 28.6146Z" fill="white"/>
<path d="M182.885 28.6146L191.263 33.4915C192.321 33.9944 193.122 32.8987 192.232 32.1892L184.228 27.5368C183.009 26.8093 182.049 28.1206 182.885 28.6146Z" fill="white"/>
<path d="M195.977 35.8626L204.355 40.7305C205.414 41.2424 206.214 40.1467 205.325 39.4282L197.32 34.7758C196.101 34.0573 195.141 35.3686 195.977 35.8626Z" fill="white"/>
<path d="M167.631 34.7489L175.974 39.6258C177.032 40.1287 177.833 39.033 176.944 38.3235L168.939 33.6711C167.756 32.9437 166.795 34.2639 167.631 34.7489Z" fill="white"/>
<path d="M167.631 46.4965L175.974 51.3733C177.032 51.8763 177.833 50.7806 176.944 50.071L168.939 45.4187C167.756 44.6912 166.795 46.0115 167.631 46.4965Z" fill="white"/>
<path d="M167.631 41.0807L175.974 45.9576C177.032 46.4605 177.833 45.3738 176.944 44.6553L168.939 40.0029C167.756 39.2754 166.795 40.5957 167.631 41.0807Z" fill="white"/>
<path d="M167.631 52.8193L175.974 57.6872C177.032 58.1992 177.833 57.1034 176.944 56.3849L168.939 51.7326C167.756 51.0051 166.795 52.3254 167.631 52.8193Z" fill="white"/>
<path d="M167.631 58.9536L175.974 63.8215C177.032 64.3335 177.833 63.2377 176.944 62.5282L168.939 57.8669C167.756 57.1484 166.795 58.4597 167.631 58.9536Z" fill="white"/>
<path d="M167.631 70.5036L175.974 75.3715C177.032 75.8835 177.833 74.7877 176.944 74.0692L168.939 69.4169C167.756 68.6894 166.795 70.0546 167.631 70.5036Z" fill="white"/>
<path d="M167.631 65.0879L175.974 69.9647C177.032 70.4677 177.833 69.372 176.944 68.6624L168.939 64.0101C167.756 63.2826 166.795 64.5939 167.631 65.0879Z" fill="white"/>
<path d="M207.059 61.0013L221.032 68.9858L291.971 109.492V168.984L206.525 118.823L206.597 76.0361L207.059 61.0013Z" fill="#DCE9F5"/>
<path d="M291.927 100.555L291.829 108.082L206.854 59.6452L207.059 53.0349L291.927 100.555Z" fill="#3F6A9E"/>
<path d="M206.854 67.7014L291.829 115.653V108.082L206.854 59.6451V67.7014Z" fill="#A3D7F4"/>
<path d="M212.565 75.3266L286.857 117.323C291.971 120.44 289.774 124.841 285.968 122.712L210.546 80.0777C205.387 76.9343 209.149 73.1531 212.565 75.3266Z" fill="#C7E2F4"/>
<path d="M212.565 84.4786L286.857 126.475C291.971 129.592 289.774 133.993 285.968 131.864L210.546 89.2297C205.387 86.0862 209.149 82.3051 212.565 84.4786Z" fill="#C7E2F4"/>
<path d="M213.027 95.0316L287.311 137.037C292.425 140.145 290.237 144.555 286.421 142.372L210.999 99.7828C205.84 96.6483 209.612 92.8581 213.027 95.0316Z" fill="#C7E2F4"/>
<path d="M213.027 104.184L287.311 146.18C292.425 149.297 290.237 153.698 286.421 151.569L211.008 108.98C205.841 105.791 209.612 102.01 213.027 104.184Z" fill="#C7E2F4"/>
<path d="M179.985 169.792C181.933 169.334 183.018 168.284 183.258 166.64V87.667L181.106 88.6909L181.159 168.499C181.088 168.966 180.875 169.415 179.985 169.792Z" fill="#3F6A9E"/>
<path d="M181.311 169.047C180.688 170.574 179.238 170.843 177.104 170.035L141.02 148.938C140.164 148.216 139.474 147.314 138.999 146.295C138.524 145.275 138.276 144.163 138.272 143.037L138.316 68.1056L138.272 65.501C138.583 63.6508 139.846 63.1299 141.652 63.3634L177.424 84.2361C178.33 84.6615 179.132 85.2851 179.77 86.0618C180.408 86.8384 180.868 87.7487 181.115 88.7267L181.311 169.047Z" fill="#DCE9F5"/>
<path d="M179.114 88.2327L179.167 168.526L140.46 146.064V65.5997L179.114 88.2327Z" fill="white"/>
<path d="M142.185 104.507L148.011 107.839L177.611 124.733V147.653V166.299L141.963 145.435V128.631L141.99 110.776L142.185 104.507Z" fill="#DCE9F5"/>
<path d="M177.584 121.006L177.549 124.149L142.097 103.941L142.186 101.184L177.584 121.006Z" fill="#3F6A9E"/>
<path d="M142.097 107.3L177.549 127.302V124.149L142.097 103.941V107.3Z" fill="#A3D7F4"/>
<path d="M144.48 110.471L175.476 127.993C177.611 129.296 176.695 131.137 175.103 130.221L143.635 112.455C141.483 111.153 143.066 109.572 144.48 110.471Z" fill="#C7E2F4"/>
<path d="M144.48 114.297L175.476 131.819C177.611 133.122 176.695 134.963 175.103 134.047L143.635 116.282C141.483 114.961 143.066 113.39 144.48 114.297Z" fill="#C7E2F4"/>
<path d="M144.676 118.707L175.663 136.229C177.798 137.522 176.881 139.364 175.289 138.457L143.831 120.682C141.679 119.38 143.244 117.799 144.676 118.707Z" fill="#C7E2F4"/>
<path d="M144.676 122.524L175.663 140.046C177.798 141.339 176.881 143.181 175.289 142.274L143.831 124.499C141.679 123.197 143.244 121.616 144.676 122.524Z" fill="#C7E2F4"/>
<path d="M184.032 47.215L200.78 56.2861V64.6118V79.0359L183.356 69.2283L183.783 55.1545L184.032 47.215Z" fill="#DCE9F5"/>
<path d="M188.782 57.4088L197.169 62.2857C198.227 62.7886 199.019 61.7019 198.129 60.9834L190.125 56.3311C188.915 55.6036 187.946 56.9238 188.782 57.4088Z" fill="white"/>
<path d="M188.782 61.9713L197.169 66.8482C198.227 67.3511 199.019 66.2554 198.129 65.5459L190.125 60.8935C188.915 60.175 187.946 61.4773 188.782 61.9713Z" fill="white"/>
<path d="M188.595 66.0668L196.973 70.9526C198.031 71.4556 198.823 70.3599 197.933 69.6503L189.929 64.998C188.719 64.2615 187.75 65.5638 188.595 66.0668Z" fill="white"/>
<path d="M187.456 85.1252L195.835 90.0021C196.893 90.5051 197.693 89.4183 196.804 88.6998L188.799 84.0475C187.59 83.32 186.647 84.6403 187.456 85.1252Z" fill="white"/>
<path d="M187.261 89.2297L195.648 94.1066C196.706 94.6096 197.498 93.5139 196.608 92.8043L188.604 88.152C187.394 87.4245 186.425 88.7447 187.261 89.2297Z" fill="white"/>
<path d="M160.658 86.5981L176.65 95.7322V112.258L160.151 102.971L160.658 86.5981Z" fill="#DCE9F5"/>
<path d="M143.537 77.2217L159.538 86.3557L158.986 102.576L143.039 93.5947L143.537 77.2217Z" fill="#DCE9F5"/>
<path d="M179.114 88.2327L140.46 65.5997V71.0694L179.114 93.5048V88.2327Z" fill="#1B2B4F"/>
<path d="M142.923 70.6294L150.128 74.8147C151.017 75.2458 151.72 74.3118 150.955 73.692L144.08 69.6953C143.066 69.0756 142.176 70.2073 142.923 70.6294Z" fill="white"/>
<path d="M175.476 88.0173L177.878 89.4184C178.18 89.5711 178.411 89.2567 178.162 89.0502L175.859 87.712C175.512 87.5144 175.236 87.8916 175.476 88.0173Z" fill="white"/>
<path d="M175.476 89.2118L177.878 90.6129C178.18 90.7566 178.411 90.4422 178.162 90.2357L175.859 88.9154C175.512 88.6909 175.236 89.0681 175.476 89.2118Z" fill="white"/>
<path d="M175.298 90.2806L177.709 91.6817C178.011 91.8254 178.242 91.511 177.984 91.3045L175.681 89.9752C175.334 89.7597 175.085 90.1459 175.298 90.2806Z" fill="white"/>
</g>
<defs>
<linearGradient id="paint0_linear_148_26" x1="122.271" y1="318.146" x2="331.473" y2="-0.000687977" gradientUnits="userSpaceOnUse">
<stop offset="0.7" stop-color="#F6FBFE"/>
<stop offset="0.95" stop-color="#C7E4F6"/>
</linearGradient>
<linearGradient id="paint1_linear_148_26" x1="215.304" y1="-74.1859" x2="275.16" y2="216.195" gradientUnits="userSpaceOnUse">
<stop offset="0.24" stop-color="#F6FBFE"/>
<stop offset="1" stop-color="#EDF5FC"/>
</linearGradient>
<linearGradient id="paint2_linear_148_26" x1="274.325" y1="221.453" x2="144.713" y2="93.0993" gradientUnits="userSpaceOnUse">
<stop offset="0.67" stop-color="#C7E2F4"/>
<stop offset="0.81" stop-color="#C5E0F3"/>
<stop offset="0.86" stop-color="#BEDAEF"/>
<stop offset="0.9" stop-color="#B3D0E7"/>
<stop offset="0.93" stop-color="#A2C1DC"/>
<stop offset="0.95" stop-color="#8CAECE"/>
<stop offset="0.97" stop-color="#7096BD"/>
<stop offset="0.99" stop-color="#517AA9"/>
<stop offset="1" stop-color="#3F6A9E"/>
</linearGradient>
<linearGradient id="paint3_linear_148_26" x1="269.06" y1="219.693" x2="167.459" y2="119.069" gradientUnits="userSpaceOnUse">
<stop stop-color="#C7E2F4"/>
<stop offset="0.03" stop-color="#C0DCEF"/>
<stop offset="0.26" stop-color="#92B3D2"/>
<stop offset="0.47" stop-color="#6E93BC"/>
<stop offset="0.68" stop-color="#547DAB"/>
<stop offset="0.86" stop-color="#446FA1"/>
<stop offset="1" stop-color="#3F6A9E"/>
</linearGradient>
<clipPath id="clip0_148_26">
<rect width="378" height="275" fill="white" transform="translate(31)"/>
</clipPath>
</defs>
</svg>
