<svg width="90" height="99" viewBox="0 0 90 99" fill="none" xmlns="http://www.w3.org/2000/svg">
<rect y="12" width="90" height="71" rx="11" fill="#A1D7F4"/>
<path d="M0 63H90V73C90 79.0751 85.0751 84 79 84H11C4.92487 84 0 79.0751 0 73V63Z" fill="#4C84B5"/>
<rect x="32" y="84" width="27" height="15" fill="#3E699D"/>
<path d="M54.5 75.0001H36.5C37.577 59.7816 35.5885 54.3022 26 51.5001L45.1186 20.126L65 51.5001C55.851 53.4985 53.5372 58.6168 54.5 75.0001Z" fill="#1C2A4F"/>
<path d="M25.5 8C16.4698 15.5137 14.7113 21.0804 14 32H18C18.8992 21.0441 21.9785 17.4283 28 11.5C32.0384 8.99819 34.3238 7.91681 38.5 7.5H52C56.6564 8.39727 59.0466 9.16077 62.5 11.5C69.5456 16.7177 70.9549 20.6329 72.5 28V30.5H76.5V28C75.284 18.2731 73.1722 13.7568 66 8C61.0556 4.9393 58.0829 3.84274 52.5 3H38.5C32.7792 3.81248 29.88 4.81371 25.5 8Z" fill="#3D84BF"/>
<rect x="11" y="28" width="12" height="11" fill="#1C2A4F"/>
<rect x="68" y="28" width="12" height="11" fill="#1C2A4F"/>
<rect x="39" width="13" height="11" fill="#A1D7F4"/>
<circle cx="45" cy="48" r="5" fill="#A1D7F4"/>
<path d="M44 47V19H46V47H44Z" fill="#A1D7F4"/>
</svg>
