<svg width="449" height="272" viewBox="0 0 449 272" fill="none" xmlns="http://www.w3.org/2000/svg">
<path fill-rule="evenodd" clip-rule="evenodd" d="M383.565 15.332H65.369C61.1434 15.3453 57.0926 17.0205 54.0918 19.9955C51.0909 22.9705 49.3809 27.0066 49.331 31.232V240.525H399.6V31.236C399.556 27.0091 397.848 22.9698 394.846 19.9931C391.845 17.0163 387.792 15.3417 383.565 15.332V15.332Z" fill="#C5EBF5"/>
<path d="M384.895 40.352H63.445V227.682H384.895V40.352Z" fill="white"/>
<path d="M224.467 30.959C226.021 30.959 227.28 29.6996 227.28 28.146C227.28 26.5924 226.021 25.333 224.467 25.333C222.913 25.333 221.654 26.5924 221.654 28.146C221.654 29.6996 222.913 30.959 224.467 30.959Z" fill="#0055DC"/>
<path fill-rule="evenodd" clip-rule="evenodd" d="M413.6 256.668H35.4C15.74 256.668 2.5 253.654 2.5 250.785V242.064C2.55216 241.605 2.78272 241.184 3.14202 240.893C3.50132 240.601 3.96061 240.463 4.421 240.507H444.576C445.037 240.463 445.497 240.601 445.856 240.892C446.216 241.183 446.447 241.604 446.5 242.064V251.128C446.5 253.4 436.241 256.668 413.6 256.668Z" fill="#C5EBF5"/>
<path fill-rule="evenodd" clip-rule="evenodd" d="M446.5 251.128C446.5 253.396 436.241 256.668 413.6 256.668H35.4C15.74 256.668 2.5 253.654 2.5 250.785L446.5 251.128Z" fill="white"/>
<path fill-rule="evenodd" clip-rule="evenodd" d="M272.581 241.148V243.129C272.581 244.541 269.801 244.967 267.697 244.967H181.366C179.153 244.967 176.353 244.541 176.353 243.129V241.148" fill="#0055DC"/>
<path d="M384.895 40.352H63.445V54.939H384.895V40.352Z" fill="#0055DC"/>
<path d="M74.813 50.089C76.1628 50.089 77.257 48.9948 77.257 47.645C77.257 46.2952 76.1628 45.201 74.813 45.201C73.4632 45.201 72.369 46.2952 72.369 47.645C72.369 48.9948 73.4632 50.089 74.813 50.089Z" fill="white"/>
<path d="M82.715 50.089C84.0648 50.089 85.159 48.9948 85.159 47.645C85.159 46.2952 84.0648 45.201 82.715 45.201C81.3652 45.201 80.271 46.2952 80.271 47.645C80.271 48.9948 81.3652 50.089 82.715 50.089Z" fill="white"/>
<path d="M90.618 50.089C91.9678 50.089 93.062 48.9948 93.062 47.645C93.062 46.2952 91.9678 45.201 90.618 45.201C89.2682 45.201 88.174 46.2952 88.174 47.645C88.174 48.9948 89.2682 50.089 90.618 50.089Z" fill="white"/>
<path d="M229.052 186.898H194.9V210.267H229.223" fill="#C5EBF5"/>
<path d="M229.223 210.642H194.9L194.525 210.267V186.898L194.9 186.523H229.051V187.273H195.275V209.892H229.223V210.642Z" fill="#0055DC"/>
<path d="M236.999 215.683C246.444 215.683 254.1 208.027 254.1 198.582C254.1 189.137 246.444 181.481 236.999 181.481C227.554 181.481 219.898 189.137 219.898 198.582C219.898 208.027 227.554 215.683 236.999 215.683Z" fill="white"/>
<path d="M237 216.059C233.543 216.059 230.164 215.034 227.29 213.114C224.416 211.193 222.176 208.464 220.853 205.27C219.531 202.077 219.184 198.563 219.859 195.172C220.533 191.782 222.198 188.668 224.642 186.224C227.086 183.78 230.2 182.115 233.59 181.441C236.981 180.766 240.495 181.113 243.688 182.435C246.882 183.758 249.611 185.998 251.532 188.872C253.452 191.746 254.477 195.125 254.477 198.582C254.471 203.215 252.628 207.657 249.351 210.933C246.075 214.21 241.633 216.053 237 216.059V216.059ZM237 181.859C233.692 181.859 230.458 182.84 227.707 184.678C224.956 186.516 222.812 189.129 221.546 192.185C220.28 195.242 219.949 198.605 220.594 201.85C221.24 205.094 222.833 208.075 225.173 210.414C227.512 212.753 230.493 214.346 233.737 214.992C236.982 215.637 240.345 215.306 243.402 214.039C246.458 212.773 249.071 210.629 250.908 207.878C252.746 205.127 253.727 201.893 253.727 198.585C253.723 194.15 251.959 189.898 248.823 186.761C245.687 183.625 241.435 181.861 237 181.856V181.859Z" fill="#FF6633"/>
<path d="M235.26 203.808L230.529 198.866L232.204 197.262L235.287 200.483L241.803 193.895L243.451 195.525L235.26 203.808Z" fill="#FF6633"/>
<path d="M242.8 117.817H206.2V86.966C206.2 82.1113 208.129 77.4555 211.561 74.0228C214.994 70.59 219.65 68.6615 224.505 68.6615C229.359 68.6615 234.015 70.59 237.448 74.0228C240.88 77.4555 242.809 82.1113 242.809 86.966L242.8 117.817ZM207.078 116.937H241.921L241.928 87.066C241.924 82.4446 240.084 78.0141 236.814 74.7491C233.543 71.4841 229.109 69.652 224.488 69.656C219.867 69.66 215.436 71.4996 212.171 74.7703C208.906 78.0409 207.074 82.4746 207.078 87.096V116.937Z" fill="#FF6633"/>
<path d="M239.3 114.321H209.691V88.192C209.692 87.2532 209.744 86.3151 209.847 85.382C210.254 81.7785 211.974 78.4511 214.678 76.0356C217.383 73.6202 220.883 72.286 224.51 72.2881C228.136 72.2903 231.634 73.6285 234.336 76.047C237.039 78.4656 238.755 81.795 239.157 85.399C239.257 86.3183 239.308 87.2423 239.309 88.167V88.167V88.212L239.3 114.321ZM210.568 113.442H238.421L238.43 88.2C238.429 87.3071 238.381 86.4148 238.286 85.527C237.914 82.1324 236.302 78.9944 233.76 76.7143C231.218 74.4341 227.924 73.1721 224.509 73.17C221.094 73.1679 217.799 74.4258 215.254 76.7029C212.709 78.9799 211.093 82.1159 210.717 85.51C210.619 86.4134 210.57 87.3213 210.57 88.23L210.568 113.442Z" fill="#FD8A3A"/>
<path d="M235.807 110.826H213.187V87.1C213.212 84.1178 214.414 81.2663 216.531 79.1656C218.648 77.0649 221.509 75.885 224.491 75.8825C227.473 75.8799 230.336 77.0551 232.456 79.1522C234.577 81.2493 235.784 84.0989 235.814 87.081L235.807 110.826ZM214.066 109.946H234.928L234.935 87.078C234.906 84.3283 233.792 81.7012 231.837 79.7679C229.881 77.8346 227.241 76.7514 224.492 76.7538C221.742 76.7561 219.104 77.8439 217.152 79.7805C215.199 81.7172 214.09 84.3462 214.066 87.096V109.946Z" fill="#FBAD40"/>
<path d="M247.194 103.299H201.806C200.129 103.299 198.769 104.659 198.769 106.336V151.724C198.769 153.401 200.129 154.761 201.806 154.761H247.194C248.871 154.761 250.231 153.401 250.231 151.724V106.336C250.231 104.659 248.871 103.299 247.194 103.299Z" fill="#C3E9F3"/>
<path d="M247.194 155.137H201.806C200.901 155.136 200.034 154.776 199.394 154.136C198.754 153.496 198.395 152.629 198.394 151.724V106.337C198.395 105.432 198.754 104.565 199.394 103.925C200.034 103.285 200.901 102.925 201.806 102.924H247.194C248.099 102.925 248.966 103.285 249.606 103.925C250.246 104.565 250.605 105.432 250.606 106.337V151.724C250.605 152.629 250.246 153.496 249.606 154.136C248.966 154.776 248.099 155.136 247.194 155.137V155.137ZM201.806 103.674C201.1 103.675 200.424 103.956 199.924 104.455C199.425 104.954 199.145 105.631 199.144 106.337V151.724C199.145 152.43 199.425 153.107 199.924 153.606C200.424 154.105 201.1 154.386 201.806 154.387H247.194C247.9 154.386 248.576 154.105 249.076 153.606C249.575 153.107 249.855 152.43 249.856 151.724V106.337C249.855 105.631 249.575 104.954 249.076 104.455C248.576 103.956 247.9 103.675 247.194 103.674H201.806Z" fill="#0055DC"/>
<path d="M245.579 150.109V107.951H203.421V150.109H245.579Z" fill="white"/>
<path d="M226.942 137.862H222.425V131.27C221.103 130.745 220.006 129.775 219.322 128.528C218.638 127.281 218.41 125.835 218.678 124.438C218.945 123.041 219.691 121.781 220.787 120.874C221.883 119.968 223.261 119.472 224.684 119.472C226.106 119.472 227.484 119.968 228.58 120.874C229.676 121.781 230.422 123.041 230.689 124.438C230.957 125.835 230.729 127.281 230.045 128.528C229.361 129.775 228.264 130.745 226.942 131.27V137.862ZM223.085 137.202H226.285V130.809L226.504 130.731C227.718 130.302 228.741 129.458 229.392 128.348C230.044 127.238 230.282 125.933 230.064 124.665C229.847 123.396 229.187 122.245 228.203 121.415C227.219 120.586 225.974 120.131 224.686 120.131C223.399 120.131 222.154 120.586 221.17 121.415C220.186 122.245 219.526 123.396 219.309 124.665C219.091 125.933 219.329 127.238 219.981 128.348C220.632 129.458 221.655 130.302 222.869 130.731L223.088 130.809L223.085 137.202Z" fill="#1755DB"/>
<path d="M224.683 129.385C226.799 129.385 228.515 127.669 228.515 125.553C228.515 123.437 226.799 121.721 224.683 121.721C222.567 121.721 220.851 123.437 220.851 125.553C220.851 127.669 222.567 129.385 224.683 129.385Z" fill="#C5EBF5"/>
<path d="M224.683 127.534C224.291 127.534 223.908 127.418 223.582 127.201C223.256 126.983 223.002 126.674 222.852 126.312C222.702 125.95 222.663 125.552 222.739 125.167C222.815 124.783 223.004 124.43 223.281 124.153C223.558 123.875 223.911 123.687 224.295 123.61C224.679 123.534 225.078 123.573 225.44 123.723C225.802 123.873 226.111 124.127 226.329 124.452C226.547 124.778 226.663 125.161 226.663 125.553C226.662 126.078 226.453 126.581 226.082 126.953C225.711 127.324 225.208 127.533 224.683 127.534V127.534ZM224.683 124.234C224.422 124.234 224.166 124.311 223.949 124.456C223.731 124.601 223.562 124.807 223.462 125.049C223.362 125.29 223.335 125.556 223.386 125.812C223.437 126.068 223.563 126.304 223.748 126.489C223.932 126.674 224.168 126.8 224.424 126.851C224.68 126.902 224.946 126.876 225.187 126.776C225.429 126.676 225.635 126.506 225.78 126.289C225.925 126.072 226.003 125.816 226.003 125.555C226.003 125.205 225.864 124.868 225.617 124.62C225.369 124.372 225.033 124.233 224.683 124.232V124.234Z" fill="#1755DB"/>
<path d="M317.525 156.901C333.873 156.901 347.125 143.649 347.125 127.301C347.125 110.953 333.873 97.701 317.525 97.701C301.177 97.701 287.925 110.953 287.925 127.301C287.925 143.649 301.177 156.901 317.525 156.901Z" fill="#C3E9F3"/>
<path d="M317.525 157.276C311.597 157.276 305.801 155.518 300.872 152.224C295.943 148.931 292.101 144.249 289.832 138.772C287.563 133.295 286.969 127.268 288.126 121.454C289.282 115.639 292.137 110.298 296.329 106.106C300.521 101.914 305.862 99.0588 311.677 97.9021C317.491 96.7454 323.518 97.3388 328.995 99.6074C334.472 101.876 339.154 105.718 342.448 110.647C345.742 115.576 347.5 121.372 347.5 127.3C347.491 135.247 344.33 142.867 338.711 148.486C333.091 154.106 325.472 157.267 317.525 157.276V157.276ZM317.525 98.076C311.745 98.076 306.094 99.79 301.288 103.001C296.482 106.213 292.736 110.777 290.525 116.117C288.313 121.458 287.734 127.334 288.862 133.003C289.989 138.672 292.773 143.879 296.86 147.967C300.947 152.054 306.155 154.837 311.824 155.965C317.493 157.092 323.369 156.513 328.71 154.301C334.05 152.089 338.614 148.343 341.825 143.537C345.036 138.731 346.75 133.08 346.75 127.3C346.741 119.552 343.659 112.124 338.18 106.645C332.701 101.166 325.273 98.0847 317.525 98.076V98.076Z" fill="#0055DC"/>
<path d="M317.525 152.276C331.318 152.276 342.5 141.094 342.5 127.301C342.5 113.508 331.318 102.326 317.525 102.326C303.732 102.326 292.55 113.508 292.55 127.301C292.55 141.094 303.732 152.276 317.525 152.276Z" fill="white"/>
<path d="M321.4 147.81L320 141.238L320.735 141.082L322.135 147.654L321.4 147.81ZM313.456 147.789L312.722 147.633L314.122 141.061L314.856 141.217L313.456 147.789ZM329.399 144.441L325.452 139.005L326.059 138.564L330 144L329.399 144.441ZM305.474 144.382L304.867 143.941L308.814 138.505L309.421 138.946L305.474 144.382ZM335.336 138.108L329.521 134.748L329.896 134.099L335.711 137.458L335.336 138.108ZM299.567 138.02L299.192 137.371L305.008 134.012L305.383 134.661L299.567 138.02ZM297.294 132.67L297.119 131.941L303.638 130.368L303.814 131.097L297.294 132.67ZM338.187 129.906L331.507 129.206L331.585 128.46L338.265 129.16L338.187 129.906ZM331.069 123.33L330.836 122.617L337.223 120.54L337.455 121.254L331.069 123.33ZM328.279 118.143L327.779 117.585L332.77 113.09L333.27 113.647L328.279 118.143ZM323.622 114.543L322.937 114.238L325.668 108.1L326.354 108.4L323.622 114.543ZM317.903 113.143H317.153V106.424H317.903V113.143Z" fill="#1755DB"/>
<path d="M318.516 148.136L318.047 141.436L318.795 141.384L319.264 148.084L318.516 148.136ZM310.653 147.009L309.948 146.753L312.248 140.44L312.954 140.696L310.653 147.009ZM326.906 145.914L323.753 139.982L324.415 139.629L327.568 145.561L326.906 145.914ZM303.221 142.523L302.682 142.003L307.347 137.17L307.886 137.691L303.221 142.523ZM333.667 140.469L328.375 136.333L328.836 135.742L334.128 139.878L333.667 140.469ZM298.257 135.402L297.976 134.707L304.202 132.19L304.484 132.89L298.257 135.402ZM337.629 132.745L331.113 131.119L331.294 130.392L337.811 132.017L337.629 132.745ZM331.495 125.245L331.365 124.507L337.978 123.34L338.109 124.079L331.495 125.245ZM329.454 119.72L329.034 119.099L334.602 115.342L335.022 115.964L329.454 119.72ZM325.344 115.504L324.707 115.104L328.266 109.404L328.903 109.804L325.344 115.504ZM319.874 113.324L319.132 113.224L320.067 106.571L320.809 106.671L319.874 113.324Z" fill="#1755DB"/>
<path d="M316.341 148.161L315.593 148.108L316.062 141.408L316.81 141.461L316.341 148.161ZM324.21 147.076L321.91 140.762L322.61 140.506L324.91 146.819L324.21 147.076ZM307.963 145.9L307.301 145.548L310.453 139.616L311.116 139.968L307.963 145.9ZM331.663 142.629L327 137.793L327.539 137.272L332.2 142.1L331.663 142.629ZM301.229 140.423L300.768 139.833L306.059 135.697L306.52 136.287L301.229 140.423ZM336.661 135.531L330.435 133.014L330.716 132.319L336.943 134.836L336.661 135.531ZM331.63 127.247L331.605 126.498L338.317 126.263L338.342 127.013L331.63 127.247ZM330.378 121.492L330.05 120.818L336.086 117.873L336.414 118.547L330.378 121.492ZM326.895 116.744L326.321 116.262L330.637 111.115L331.211 111.597L326.895 116.744ZM321.782 113.823L321.061 113.617L322.911 107.159L323.632 107.366L321.782 113.823Z" fill="#1755DB"/>
<path d="M296.674 129.079L296.621 128.331L303.315 127.851L303.368 128.599L296.674 129.079Z" fill="#FF6633"/>
<path d="M296.856 123.975L296.753 124.718L303.399 125.641L303.502 124.899L296.856 123.975Z" fill="#FF6633"/>
<path d="M297.99 119.764L297.734 120.469L304.044 122.755L304.299 122.05L297.99 119.764Z" fill="#FF6633"/>
<path d="M300.098 115.871L299.702 116.507L305.4 120.058L305.797 119.421L300.098 115.871Z" fill="#FF6633"/>
<path d="M302.723 112.494L302.203 113.034L307.038 117.69L307.558 117.15L302.723 112.494Z" fill="#FBAD40"/>
<path d="M306.114 109.75L305.493 110.17L309.255 115.73L309.876 115.31L306.114 109.75Z" fill="#FBAD40"/>
<path d="M310.002 107.775L309.307 108.057L311.832 114.277L312.526 113.995L310.002 107.775Z" fill="#FBAD40"/>
<path d="M314.215 106.655L313.477 106.786L314.652 113.395L315.391 113.264L314.215 106.655Z" fill="#FBAD40"/>
<path d="M315.278 126.328L313.145 127.128L315.278 127.928V128.571L312.428 127.464V126.797L315.278 125.69V126.328Z" fill="#1755DB"/>
<path d="M317.194 129.088C316.911 128.9 316.687 128.634 316.551 128.322C316.238 127.555 316.238 126.696 316.551 125.929C316.687 125.617 316.911 125.351 317.194 125.163C317.473 124.991 317.795 124.9 318.123 124.9C318.451 124.9 318.773 124.991 319.052 125.163C319.337 125.351 319.561 125.617 319.698 125.929C320.01 126.696 320.01 127.555 319.698 128.322C319.561 128.634 319.337 128.9 319.052 129.088C318.773 129.26 318.451 129.351 318.123 129.351C317.795 129.351 317.473 129.26 317.194 129.088V129.088ZM318.854 128.269C319.031 127.914 319.123 127.522 319.123 127.126C319.123 126.729 319.031 126.337 318.854 125.982C318.773 125.864 318.664 125.767 318.536 125.7C318.409 125.634 318.268 125.599 318.125 125.599C317.981 125.599 317.84 125.634 317.712 125.7C317.585 125.767 317.476 125.864 317.395 125.982C317.218 126.337 317.126 126.729 317.126 127.126C317.126 127.522 317.218 127.914 317.395 128.269C317.476 128.387 317.585 128.484 317.712 128.551C317.84 128.617 317.981 128.652 318.125 128.652C318.268 128.652 318.409 128.617 318.536 128.551C318.664 128.484 318.773 128.387 318.854 128.269Z" fill="#1755DB"/>
<path d="M131.475 156.901C147.823 156.901 161.075 143.649 161.075 127.301C161.075 110.953 147.823 97.701 131.475 97.701C115.127 97.701 101.875 110.953 101.875 127.301C101.875 143.649 115.127 156.901 131.475 156.901Z" fill="#C3E9F3"/>
<path d="M131.475 157.276C125.547 157.276 119.751 155.518 114.822 152.224C109.893 148.931 106.051 144.249 103.782 138.772C101.513 133.295 100.919 127.268 102.076 121.454C103.232 115.639 106.087 110.298 110.279 106.106C114.471 101.914 119.812 99.0588 125.627 97.9021C131.441 96.7454 137.468 97.3388 142.945 99.6074C148.422 101.876 153.104 105.718 156.398 110.647C159.692 115.576 161.45 121.372 161.45 127.3C161.441 135.247 158.28 142.867 152.661 148.486C147.041 154.106 139.422 157.267 131.475 157.276V157.276ZM131.475 98.076C125.695 98.076 120.044 99.79 115.238 103.001C110.432 106.213 106.686 110.777 104.475 116.117C102.263 121.458 101.684 127.334 102.812 133.003C103.939 138.672 106.723 143.879 110.81 147.967C114.897 152.054 120.105 154.837 125.774 155.965C131.443 157.092 137.319 156.513 142.66 154.301C148 152.089 152.564 148.343 155.775 143.537C158.986 138.731 160.7 133.08 160.7 127.3C160.691 119.552 157.609 112.124 152.13 106.645C146.651 101.166 139.223 98.0847 131.475 98.076V98.076Z" fill="#0055DC"/>
<path d="M131.475 152.276C145.268 152.276 156.45 141.094 156.45 127.301C156.45 113.508 145.268 102.326 131.475 102.326C117.682 102.326 106.5 113.508 106.5 127.301C106.5 141.094 117.682 152.276 131.475 152.276Z" fill="white"/>
<path d="M112.355 118.017L112.04 118.698L118.267 121.578L118.582 120.897L112.355 118.017Z" fill="#1755DB"/>
<path d="M117.812 111.023L117.247 111.516L121.764 116.682L122.328 116.188L117.812 111.023Z" fill="#1755DB"/>
<path d="M125.639 106.854L124.922 107.075L126.948 113.632L127.664 113.411L125.639 106.854Z" fill="#1755DB"/>
<path d="M133.741 106.141L132.924 112.956L133.668 113.045L134.484 106.23L133.741 106.141Z" fill="#1755DB"/>
<path d="M142.174 108.873L138.659 114.768L139.303 115.152L142.818 109.257L142.174 108.873Z" fill="#1755DB"/>
<path d="M148.769 114.804L143.157 118.756L143.588 119.369L149.201 115.417L148.769 114.804Z" fill="#FBAD40"/>
<path d="M145.778 125.799L145.662 125.058L152.394 124.018L152.509 124.759L145.778 125.799Z" fill="#EC6430"/>
<path d="M110.509 123.785L110.394 124.526L117.173 125.577L117.288 124.836L110.509 123.785Z" fill="#1755DB"/>
<path d="M113.825 115.453L113.419 116.084L119.184 119.803L119.591 119.173L113.825 115.453Z" fill="#1755DB"/>
<path d="M120.202 109.289L119.575 109.699L123.329 115.442L123.956 115.032L120.202 109.289Z" fill="#1755DB"/>
<path d="M128.533 106.25L127.793 106.37L128.887 113.145L129.627 113.026L128.533 106.25Z" fill="#1755DB"/>
<path d="M136.656 106.671L134.898 113.306L135.623 113.498L137.381 106.863L136.656 106.671Z" fill="#1755DB"/>
<path d="M144.627 110.552L140.324 115.898L140.908 116.368L145.211 111.022L144.627 110.552Z" fill="#1755DB"/>
<path d="M144.568 121.403L144.226 120.736L150.33 117.6L150.672 118.267L144.568 121.403Z" fill="#FBAD40"/>
<path d="M152.802 127.271H145.951V128.021H152.802V127.271Z" fill="#EC6430"/>
<path d="M117.129 127.271H110.292V128.021H117.129V127.271Z" fill="#1755DB"/>
<path d="M111.25 120.768L111.033 121.486L117.599 123.471L117.816 122.753L111.25 120.768Z" fill="#1755DB"/>
<path d="M115.739 113.055L115.248 113.623L120.442 118.11L120.932 117.542L115.739 113.055Z" fill="#1755DB"/>
<path d="M122.852 107.863L122.172 108.182L125.09 114.393L125.77 114.073L122.852 107.863Z" fill="#1755DB"/>
<path d="M131.523 106.012L130.773 106.028L130.913 112.89L131.663 112.875L131.523 106.012Z" fill="#1755DB"/>
<path d="M139.504 107.559L136.843 113.887L137.534 114.177L140.195 107.85L139.504 107.559Z" fill="#1755DB"/>
<path d="M146.858 112.512L141.855 117.211L142.369 117.757L147.371 113.059L146.858 112.512Z" fill="#F2AA3F"/>
<path d="M151.564 120.638L145.082 122.89L145.329 123.598L151.81 121.346L151.564 120.638Z" fill="#FBAD40"/>
<path d="M145.76 123.061C145.744 123.021 145.715 122.988 145.677 122.969C145.638 122.949 145.594 122.944 145.553 122.955L130.464 126.755C130.442 126.761 130.421 126.771 130.402 126.784C130.384 126.798 130.368 126.815 130.356 126.835C130.345 126.855 130.337 126.877 130.333 126.9C130.33 126.922 130.331 126.946 130.337 126.968C130.343 126.99 130.353 127.011 130.366 127.03C130.38 127.048 130.397 127.064 130.417 127.076C130.437 127.087 130.459 127.095 130.482 127.099C130.504 127.102 130.528 127.101 130.55 127.095L130.579 127.088L131.743 129.707L131.731 129.713C131.711 129.724 131.693 129.739 131.678 129.757C131.664 129.774 131.653 129.795 131.646 129.817C131.639 129.839 131.637 129.862 131.64 129.885C131.642 129.908 131.649 129.93 131.66 129.95C131.67 129.971 131.685 129.989 131.703 130.003C131.721 130.018 131.741 130.029 131.763 130.035C131.786 130.042 131.809 130.044 131.832 130.042C131.854 130.04 131.877 130.033 131.897 130.022L145.68 123.284C145.719 123.263 145.748 123.229 145.763 123.188C145.778 123.147 145.777 123.101 145.76 123.061V123.061Z" fill="#0055DC"/>
<path d="M131.288 131.991C133.307 131.991 134.944 130.354 134.944 128.335C134.944 126.316 133.307 124.679 131.288 124.679C129.269 124.679 127.632 126.316 127.632 128.335C127.632 130.354 129.269 131.991 131.288 131.991Z" fill="#E0F3F8"/>
<path d="M131.287 132.175C130.527 132.175 129.785 131.95 129.154 131.528C128.522 131.106 128.03 130.506 127.739 129.804C127.449 129.103 127.373 128.33 127.521 127.585C127.669 126.841 128.035 126.156 128.572 125.619C129.109 125.082 129.794 124.717 130.538 124.569C131.283 124.421 132.056 124.497 132.757 124.788C133.459 125.078 134.059 125.571 134.48 126.202C134.902 126.834 135.127 127.576 135.127 128.336C135.126 129.354 134.721 130.33 134.001 131.05C133.281 131.77 132.305 132.174 131.287 132.175ZM131.287 124.864C130.6 124.864 129.929 125.068 129.358 125.45C128.788 125.831 128.343 126.374 128.08 127.008C127.817 127.642 127.749 128.341 127.883 129.014C128.017 129.687 128.348 130.306 128.833 130.791C129.319 131.277 129.938 131.607 130.611 131.741C131.284 131.875 131.983 131.806 132.617 131.544C133.251 131.281 133.793 130.836 134.175 130.265C134.556 129.694 134.76 129.023 134.76 128.336C134.759 127.415 134.393 126.532 133.742 125.881C133.091 125.23 132.208 124.865 131.287 124.864V124.864Z" fill="#1755DB"/>
<path d="M131.288 129.952C132.181 129.952 132.905 129.228 132.905 128.335C132.905 127.442 132.181 126.718 131.288 126.718C130.395 126.718 129.671 127.442 129.671 128.335C129.671 129.228 130.395 129.952 131.288 129.952Z" fill="#1755DB"/>
<path d="M357.039 170.915H91.084V171.915H357.039V170.915Z" fill="#6ECCE5"/>
<path d="M413.779 257.686H35.585C18.738 257.686 1.685 255.322 1.685 250.803V242.082C1.7371 241.357 2.07322 240.682 2.62033 240.203C3.16744 239.724 3.88135 239.48 4.607 239.525H444.759C445.485 239.48 446.199 239.724 446.746 240.203C447.294 240.681 447.63 241.357 447.683 242.082V251.146C447.674 255.059 434.049 257.686 413.779 257.686ZM4.605 241.525C4.077 241.525 3.683 241.819 3.683 242.082V250.8C3.951 252.184 13.835 255.683 35.583 255.683H413.779C436.818 255.683 445.232 252.314 445.691 251.083L445.683 242.076C445.683 241.813 445.283 241.519 444.759 241.519L4.605 241.525Z" fill="#0055DC"/>
<path d="M444.759 239.525H400.6V31.236C400.576 26.7373 398.769 22.4318 395.575 19.2637C392.381 16.0956 388.061 14.3235 383.562 14.336H65.369C60.8703 14.3235 56.5502 16.0956 53.3563 19.2637C50.1623 22.4318 48.3551 26.7373 48.331 31.236V239.525H4.605C3.87935 239.48 3.16544 239.724 2.61833 240.203C2.07122 240.682 1.73511 241.357 1.683 242.082V250.8C1.683 255.318 18.738 257.683 35.583 257.683H413.779C434.049 257.683 447.674 255.056 447.679 251.143V242.079C447.626 241.355 447.289 240.681 446.743 240.203C446.196 239.725 445.484 239.481 444.759 239.525V239.525ZM50.331 31.236C50.4017 27.2826 52.0131 23.5129 54.8219 20.7299C57.6307 17.9468 61.4151 16.3703 65.369 16.336H383.569C387.538 16.3227 391.349 17.8838 394.168 20.6771C396.987 23.4703 398.584 27.2675 398.607 31.236V239.525H50.331V31.236ZM413.779 255.686H35.585C13.835 255.686 3.951 252.186 3.685 250.803V242.082C3.685 241.819 4.079 241.525 4.607 241.525H444.759C445.287 241.525 445.683 241.819 445.683 242.082L445.691 251.09C445.232 252.317 436.818 255.686 413.779 255.686V255.686Z" fill="#0055DC"/>
</svg>
